SplineFontDB: 3.2
FontName: Scriven
FullName: Scriven
FamilyName: Scriven
Weight: Regular
Copyright: Copyright (c) 2024, Kevin Smith
Version: 0.1.0
ItalicAngle: 0
UnderlinePosition: -100
UnderlineWidth: 50
Ascent: 650
Descent: 350
InvalidEm: 0
sfntRevision: 0x00010000
LayerCount: 2
Layer: 0 0 "Back" 1
Layer: 1 0 "Fore" 0
XUID: [1021 154 1557044757 1433364]
StyleMap: 0x0000
FSType: 0
OS2Version: 4
OS2_WeightWidthSlopeOnly: 0
OS2_UseTypoMetrics: 1
CreationTime: 1708861063
ModificationTime: 1709700956
PfmFamily: 17
TTFWeight: 400
TTFWidth: 5
LineGap: 90
VLineGap: 0
Panose: 2 0 5 3 0 0 0 0 0 0
OS2TypoAscent: 650
OS2TypoAOffset: 0
OS2TypoDescent: -350
OS2TypoDOffset: 0
OS2TypoLinegap: 90
OS2WinAscent: 668
OS2WinAOffset: 0
OS2WinDescent: 356
OS2WinDOffset: 0
HheadAscent: 668
HheadAOffset: 0
HheadDescent: -356
HheadDOffset: 0
OS2SubXSize: 650
OS2SubYSize: 700
OS2SubXOff: 0
OS2SubYOff: 140
OS2SupXSize: 650
OS2SupYSize: 700
OS2SupXOff: 0
OS2SupYOff: 480
OS2StrikeYSize: 49
OS2StrikeYPos: 258
OS2XHeight: 323
OS2Vendor: '    '
OS2CodePages: 00000001.00000000
OS2UnicodeRanges: a000004f.10002000.08008000.00000000
Lookup: 1 0 0 "Dotted Consonants" { "Dotted Consonants-1" ("midDot") } ['ss02' ('DFLT' <'dflt' > 'latn' <'dflt' > 'runr' <'dflt' > ) ]
Lookup: 4 0 0 "'hlig' Historic Ligatures lookup 0" { "'hlig' Historic Ligatures lookup 0-1"  } ['hlig' ('DFLT' <'dflt' > 'latn' <'dflt' > 'runr' <'dflt' > ) ]
Lookup: 1 0 0 "Hobbit" { "Hobbit-1"  } ['ss01' ('DFLT' <'dflt' > 'latn' <'dflt' > 'runr' <'dflt' > ) ]
Lookup: 4 0 1 "'rlig' Required Ligatures lookup 2" { "Variant Selector Sequences"  "Ophidian Combining Sequences"  } ['rlig' ('DFLT' <'dflt' > 'latn' <'dflt' > 'runr' <'dflt' > ) ]
Lookup: 4 0 1 "'rlig' Required Ligatures lookup 3" { "ZWJ Sequences"  } ['rlig' ('DFLT' <'dflt' > 'latn' <'dflt' > 'runr' <'dflt' > ) ]

StartChar: .notdef
Encoding: 65536 -1 0
Width: 500
GlyphClass: 1
Flags: HMW
HStem: 0 50<100 400 100 450> 383 50<100 400 100 100>
VStem: 50 50<50 50 50 383> 400 50<50 383 383 383>
LayerCount: 2
Fore
SplineSet
50 0 m 1
 50 433 l 1
 450 433 l 1
 450 0 l 1
 50 0 l 1
100 50 m 1
 400 50 l 1
 400 383 l 1
 100 383 l 1
 100 50 l 1
EndSplineSet
Validated: 1
EndChar

StartChar: novianDecorationRight
Encoding: 65537 -1 1
Width: 753
GlyphClass: 3
Flags: W
HStem: -19.017 21G<549.473 554.873> 0.631607 21G
LayerCount: 2
Back
SplineSet
683 103.677132482 m 1029
684 437.677734375 m 5
 578.04296875 542.634765625 l 5
 307.086914062 271.6796875 l 5
 579.044921875 -0.2783203125 l 5
 683 103.677132482 l 1029
EndSplineSet
Refer: 87 9671 S 1 0 0 1 0 0 2
Fore
SplineSet
712.126229129 122.415787577 m 0x80
 713.26364607 122.415787577 714.322833964 122.135367007 714.322833964 121.090814582 c 0
 714.322833964 120.324504226 713.727437466 118.928632214 711.278369111 116.43791448 c 2
 607.119420253 12.2785902177 l 2
 595.065106428 0.224232946664 559.828264772 -19.016975407 549.918692746 -19.016975407 c 0
 549.027891874 -19.016975407 548.387660448 -18.847796924 548.035321129 -18.4954576056 c 0
 275.978059696 253.561803827 275.978059696 253.561803827 275.909999526 253.6796875 c 0
 275.812050528 253.84934014 275.764080098 254.045330495 275.764080098 254.2660054 c 0
 275.764080098 255.352422624 276.926762241 257.037131044 279.012505787 259.122867073 c 2
 549.968560475 530.077945198 l 2
 562.02068209 542.130023375 597.257747315 561.37342072 607.169197879 561.37342072 c 0
 608.056835684 561.37342072 608.695680334 561.205441546 609.048805335 560.855649264 c 0
 715.107567165 455.797847545 715.107567165 455.797847545 715.176914536 455.677734375 c 0
 715.274863534 455.508081735 715.322833964 455.31209138 715.322833964 455.091416475 c 0
 715.322833964 447.565324771 667.441601992 418.93907928 654.873770871 418.93907928 c 0
 653.986133066 418.93907928 653.347288416 419.107058454 652.994163415 419.456850736 c 2
 561.255416294 510.329787009 l 1
 339.45908475 288.534254851 l 1
 595.899416005 32.0939235963 l 1
 654.925501622 91.1202219518 l 2
 666.979815447 103.174579223 702.216657103 122.415787577 712.126229129 122.415787577 c 0x80
EndSplineSet
Refer: 87 9671 S 1 0 0 1 0 0 2
Ligature2: "ZWJ Sequences" uni005D uni200D uni25C7
LCarets2: 2 0 0
EndChar

StartChar: uni002C
Encoding: 44 44 3
Width: 213
GlyphClass: 2
Flags: HMW
HStem: -76.5442 145.798
VStem: 98.4963 66.3538
LayerCount: 2
Back
SplineSet
88 -55 m 1
 111 -42 128 -34.296875 128 -15 c 3
 128 -9.74609375 127 -5 124 0 c 1
 91 48 l 1025
EndSplineSet
Fore
SplineSet
59.6771660358 30.5863179001 m 0
 59.6771660358 38.1124096045 107.558398008 66.7386550945 120.126229129 66.7386550945 c 0
 121.134659221 66.7386550945 121.821975905 66.5218470201 122.134032968 66.0679458377 c 0
 155.18932632 17.9875191435 155.18932632 17.9875191435 155.44753553 17.5402876727 c 0
 158.329913656 12.5478623126 159.322833964 7.7028963054 159.322833964 2.41368209992 c 0
 159.322833964 -20.5665428822 131.908719452 -37.0843700851 89.2628165075 -61.1885760971 c 0
 75.750497844 -68.8259736026 63.67405976 -73.7386550945 58.8737708714 -73.7386550945 c 0
 57.7363539296 -73.7386550945 56.6771660358 -73.4582345249 56.6771660358 -72.4136820999 c 0
 56.6771660358 -70.8884159739 59.1131275813 -64.2084808776 93.0414610582 -45.2756924786 c 0
 94.7543850988 -42.6484589293 96.6771660357 -38.1424887435 96.6771660358 -32.4136820999 c 0
 96.6771660358 -28.5216929874 96.1668395022 -23.5693999542 92.8659670323 -18.0679458377 c 0
 90.697390866 -14.6949687844 59.6771660358 29.7403891531 59.6771660358 30.5863179001 c 0
EndSplineSet
EndChar

StartChar: uni002E
Encoding: 46 46 4
Width: 213
GlyphClass: 2
Flags: HMW
HStem: -20.6535 89.9077
VStem: 57.1141 100.374
LayerCount: 2
Back
SplineSet
91 48 m 29
 124 0 l 1053
EndSplineSet
Fore
SplineSet
92.8659670323 -18.0679458377 m 0
 77.7138953876 3.97143122805 59.6771660358 29.9973583181 59.6771660358 30.5863179001 c 0
 59.6771660358 38.1124096045 107.558398008 66.7386550945 120.126229129 66.7386550945 c 0
 121.134659221 66.7386550945 121.821975905 66.5218470201 122.134032968 66.0679458377 c 0
 138.766021193 41.8759629643 155.322833964 18.0026416819 155.322833964 17.4136820999 c 0
 155.322833964 9.88759039554 107.441601992 -18.7386550945 94.8737708714 -18.7386550945 c 0
 93.8653407793 -18.7386550945 93.1780240953 -18.5218470201 92.8659670323 -18.0679458377 c 0
EndSplineSet
EndChar

StartChar: uni005B
Encoding: 91 91 5
Width: 267
GlyphClass: 2
Flags: HMW
HStem: 570.089 43.7138
VStem: 70.4404 66.3538
LayerCount: 2
Back
SplineSet
162 593.02734375 m 4
 79 593.02734375 l 4
 78 -162.58984375 l 0
 162 -162.589752197 l 1024
EndSplineSet
Fore
SplineSet
48.8737785397 -181.328407292 m 2
 48.0145045717 -181.328407292 46.6771603307 -181.175576549 46.6771673712 -180.001508444 c 2
 47.6771673712 575.615679056 l 2
 47.6871333128 583.1461158 95.5600309588 611.765998845 108.126229129 611.765998845 c 2
 191.126229129 611.765998845 l 2
 192.26364607 611.765998845 193.322833964 611.485578275 193.322833964 610.44102585 c 0
 193.322833964 602.914934146 145.441601992 574.288688655 132.873770871 574.288688655 c 2
 110.27499052 574.288688655 l 1
 109.3245888 -143.851186259 l 1
 136.591799686 -143.851186259 163.859010573 -143.851097102 191.12622146 -143.851097102 c 0
 192.26364921 -143.851097102 193.322833964 -144.131518869 193.322833964 -145.176070097 c 0
 193.322833964 -152.702165943 145.441615816 -181.328393594 132.87377854 -181.328407292 c 2
 48.8737785397 -181.328407292 l 2
EndSplineSet
EndChar

StartChar: uni005D
Encoding: 93 93 6
Width: 267
GlyphClass: 2
Flags: HMW
HStem: -185.084 43.3959 570.848 42.17
VStem: 132.555 66.3584
LayerCount: 2
Back
SplineSet
78 -162.58984375 m 0
 161 -162.58984375 l 0
 162 593.02734375 l 0
 78 593.02734375 l 1024
EndSplineSet
Fore
SplineSet
191.126229129 611.765998845 m 2
 191.984344823 611.765998845 193.322839672 611.613540893 193.322832629 610.439008444 c 2
 192.322832629 -145.178179056 l 2
 192.312866687 -152.7086158 144.439969041 -181.328498845 131.873770871 -181.328498845 c 2
 48.8737708714 -181.328498845 l 2
 47.7363539296 -181.328498845 46.6771660358 -181.048078275 46.6771660358 -180.00352585 c 0
 46.6771660358 -172.477434146 94.5583980083 -143.851188655 107.126229129 -143.851188655 c 2
 129.72500948 -143.851188655 l 1
 130.675411204 574.288688655 l 1
 48.8737708714 574.288688655 l 2
 47.7363539296 574.288688655 46.6771660358 574.569109225 46.6771660358 575.61366165 c 0
 46.6771660358 583.139753354 94.5583980083 611.765998845 107.126229129 611.765998845 c 2
 191.126229129 611.765998845 l 2
EndSplineSet
EndChar

StartChar: uni0061
Encoding: 97 97 7
Width: 330
GlyphClass: 2
Flags: HMW
HStem: -20.9414 42.9277<39.7268 115.747> 279.856 42.9277<47.6027 129.355>
VStem: 4.7663 66.3545<60.1255 72.2627>
LayerCount: 2
Back
SplineSet
125.579101562 236 m 0
 12.5791015625 86 25.40625 0 71.5791015625 0 c 3
 96.5791015625 0 160.579101562 32 204.579101562 58 c 1025
20.5791015625 276 m 1
 51.5791015625 294 63.5263671875 298 81.5791015625 298 c 3
 164.5859375 298 237.571289062 0 294.579101562 0 c 3
 299.579101562 0 312.579101562 6 341.579101562 22 c 1025
EndSplineSet
Fore
SplineSet
42.4528724339 -18.7386550945 m 0
 32.598059394 -18.7386550945 6.51640707419 -14.6024844835 6.51640707419 29.1858889032 c 0
 6.51640707419 69.6867474605 30.5071398551 134.924545043 95.4507767959 221.132912664 c 0
 97.7392968259 224.170771111 103.16761329 228.688180882 110.440622223 233.618970273 c 1
 91.0195026332 261.245174502 71.1256874368 279.261344905 52.4528724339 279.261344905 c 0
 45.0933149233 279.261344905 38.9651525425 278.219163998 35.8856298667 277.269115115 c 0
 30.8046935491 275.701619637 2.33780403115 257.261344905 -8.54712756613 257.261344905 c 0
 -9.68454450787 257.261344905 -10.7437324017 257.541765475 -10.7437324017 258.5863179 c 0
 -10.7437324017 268.048845298 56.1921116825 304.289952847 82.7378092277 312.479439642 c 0
 94.9704508104 316.253273671 102.287777806 316.738655095 110.705330691 316.738655095 c 0
 156.503470104 316.738655095 195.188435565 238.148495218 239.001635013 146.056670589 c 0
 253.225227099 116.159822961 266.899760491 87.4213346302 279.954285929 64.8102333037 c 0
 295.722123663 37.4995372233 311.102218179 19.9156993479 322.557816769 18.7955511401 c 0
 325.661540472 20.3589204782 332.304965845 23.7815503406 342.242839863 29.2645148691 c 0
 354.966116775 36.2842538553 366.134419979 40.7386550945 370.705330691 40.7386550945 c 0
 371.842747632 40.7386550945 372.901935526 40.4582345249 372.901935526 39.4136820999 c 0
 372.901935526 29.0568992053 284.05072481 -18.7386550945 265.452872433 -18.7386550945 c 0
 249.160807433 -18.7386550945 232.943023269 -1.93081651872 205.284379674 51.4485123053 c 1
 197.90953204 47.1382123997 84.5103457696 -18.7386550945 42.4528724339 -18.7386550945 c 0
69.2120597934 63.8600593363 m 0
 69.2120597934 51.1610763584 71.6415851337 41.0236877504 75.932110636 33.5922795821 c 0
 81.7457727614 23.522721403 91.0229893085 18.7386550945 100.705330691 18.7386550945 c 0
 126.122973121 18.7386550945 198.236252857 61.2354579729 199.820112891 62.1696775223 c 0
 192.241105993 77.2644682257 184.490218523 93.557537647 176.572255677 110.200456204 c 0
 144.819009976 176.943227134 135.522248011 193.227394548 126.257229582 208.92929185 c 1
 85.0676153975 145.460228905 69.2120597934 96.3014122129 69.2120597934 63.8600593363 c 0
EndSplineSet
Substitution2: "Hobbit-1" a.hobbit
EndChar

StartChar: uni0062
Encoding: 98 98 8
Width: 371
GlyphClass: 2
Flags: HMW
HStem: -21.6877 42.9282 279.832 42.9282 648.654 20G
VStem: 53.4038 66.3538 63.1827 80.1184 301.615 66.3538
LayerCount: 2
Back
SplineSet
102 252 m 1
 284 357 310 272.004132161 310 151 c 3
 310 40.9954546394 248 0 155 0 c 3
 114 0 64 40.8452405258 64 70 c 7
 64 129.22837158 77 423 87 649 c 5
 56 630 l 5
 84 570 72 282 64 70 c 1029
EndSplineSet
Fore
SplineSet
116.126229129 667.738655095 m 0xe4
 118.29071071 667.738655095 118.323400994 666.73961206 118.321268575 666.343781059 c 2
 118.306911723 666.019316216 l 2
 104.445794815 352.758074089 104.445794815 352.758074089 101.492764582 258.629614307 c 1
 178.913898032 302.996697873 230.520544215 318.199285652 261.967599366 318.199285652 c 0
 330.247245466 318.199285652 341.322833964 248.647434242 341.322833964 168.4136821 c 0
 341.322833964 82.3887553546 305.184464659 46.5499583918 251.789749308 15.7225051104 c 0
 208.39421088 -9.33192068278 172.299056654 -18.7386550945 125.873770871 -18.7386550945 c 0
 82.1851255967 -18.7386550945 32.6771660358 23.1393482782 32.6771660358 52.5863179001 c 0
 32.6771660513 81.9263368729 35.8557848102 168.570479978 40.2786372289 275.999929208 c 0
 41.4223427894 321.122427124 42.159506857 365.30167172 42.159506857 406.206945887 c 0
 42.159506857 504.551583127 37.898552251 583.972021543 24.7820544643 612.078802515 c 0
 24.7117196304 612.229520016 24.6771660358 612.39902869 24.6771660358 612.5863179 c 0
 24.6771660358 615.735886872 34.4488624129 623.91376039 48.1539358147 632.313644088 c 0
 81.5343812385 652.772626767 81.5343812385 652.772626767 84 654.196152423 c 0
 98.2056011716 662.397760083 111.121102251 667.738655095 116.126229129 667.738655095 c 0xe4
95.3228543317 87.3849638492 m 0
 95.3578336018 58.5502492061 145.801354121 18.7386550945 184.126229129 18.7386550945 c 0
 207.992668705 18.7386550945 227.236105347 21.4023647494 244.140313753 26.4750358736 c 1
 252.846855715 35.4085022392 278.677166036 63.1702710271 278.677166036 133.5863179 c 0
 278.677166036 219.040335276 265.324949354 280.767878222 202.418346319 280.767878222 c 0
 166.89045235 280.767878222 136.573403196 264.103726359 101.04334169 244.57417592 c 1
 99.7977937539 206.316816918 99.6037934183 200.828307493 95.3228543317 87.3849638492 c 0
EndSplineSet
EndChar

StartChar: uni0063
Encoding: 99 99 9
Width: 399
GlyphClass: 2
Flags: HMW
HStem: -21.4639 42.9277<132.646 216.996> 279.856 42.9277
VStem: 39.1769 66.3545<139.227 150.256>
LayerCount: 2
Back
SplineSet
337 243 m 5
 314 274 284.040810958 299.444335938 204 299.444335938 c 7
 137.999999999 299.444335938 62 204.033324079 62 144 c 7
 62 69 104 0 157 0 c 7
 219.110072597 0 283 46 300 65 c 1037
EndSplineSet
Fore
SplineSet
127.873770871 -18.7386550945 m 0
 71.0021737378 -18.7386550945 30.6771660358 53.5331548274 30.6771660358 126.5863179 c 0
 30.6771660358 156.990283323 55.226132533 233.546515887 153.288896563 290.163079097 c 0
 185.77310076 308.917843135 212.287387821 318.182991033 233.126229129 318.182991033 c 0
 314.691815637 318.182991033 345.023630683 292.217869661 368.112452922 261.098152731 c 0
 368.244222947 260.920549653 368.322833964 260.696039099 368.322833964 260.4136821 c 0
 368.322833964 252.887590396 320.441601992 224.261344905 307.873770871 224.261344905 c 0
 306.887976172 224.261344905 306.209041135 224.468529193 305.887547078 224.901847269 c 0
 282.976369317 255.782130339 253.389806279 280.705680843 174.873770871 280.705680843 c 0
 168.551210573 280.705680843 161.973280952 279.312931281 157.96206143 278.252767213 c 0
 123.455468483 249.112973134 93.3228339642 198.914920351 93.3228339642 161.4136821 c 0
 93.3228339642 84.6241154717 136.915834372 18.7386550945 186.126229129 18.7386550945 c 0
 219.487754581 18.7386550945 247.469326018 33.3350078592 249.89732552 34.7368140257 c 0
 253.830355998 37.0075502308 266.05733731 45.9556449912 270.825469407 51.284733805 c 0
 281.180795335 62.8583333719 318.735711617 83.7386550945 329.126229129 83.7386550945 c 0
 330.26364607 83.7386550945 331.322833964 83.4582345249 331.322833964 82.4136820999 c 0
 331.322833964 72.9792764205 216.617046833 -18.7386550945 127.873770871 -18.7386550945 c 0
EndSplineSet
EndChar

StartChar: uni0064
Encoding: 100 100 10
Width: 390
GlyphClass: 2
Flags: HMW
HStem: -21.4639 42.9277<125.348 203.583> 279.856 42.9277 648.653 20G<357.484 357.484>
VStem: 31.8789 66.3545<139.227 150.256> 269.208 66.5889<46.0996 53.5039> 280.512 62.873
LayerCount: 2
Back
SplineSet
391 18 m 4
 372 7 350.411728335 0 327 0 c 7
 308.889229724 0 304 29 305 70 c 5
 305 128.228515625 318 423 328 649 c 5
 297 630 l 5
 325 570 313 282 305 70 c 1029
312 270 m 0
 290.3828125 286.688476562 257.292178671 299.444335938 204 299.444335938 c 3
 137.999999999 299.444335938 62 204.033324079 62 144 c 3
 62 69 104 0 157 0 c 3
 219.110072597 0 283 46 300 65 c 1033
EndSplineSet
Fore
SplineSet
93.3228339642 161.4136821 m 0xf0
 93.3228339642 84.6241154717 136.915834372 18.7386550945 186.126229129 18.7386550945 c 0
 219.487754581 18.7386550945 247.469326018 33.3350078592 249.89732552 34.7368140257 c 0
 253.830355998 37.0075502308 266.05733731 45.9556449912 270.825469407 51.284733805 c 0
 271.591890374 52.1413219451 272.550408789 53.0849217671 273.679880188 54.0981264616 c 0
 273.777108334 82.1053571135 276.477540123 157.419501603 280.325108283 252.278910614 c 1
 258.938830914 268.484200058 226.438847464 280.705680841 174.873770871 280.705680843 c 0
 168.551210573 280.705680843 161.973280952 279.312931281 157.96206143 278.252767213 c 0
 123.455468483 249.112973134 93.3228339642 198.914920351 93.3228339642 161.4136821 c 0xf0
273.640882004 35.0303312393 m 1
 225.718131594 4.86622349578 173.596009713 -18.7386550945 127.873770871 -18.7386550945 c 0
 71.0021737378 -18.7386550945 30.6771660358 53.5331548274 30.6771660358 126.5863179 c 0
 30.6771660358 156.990283323 55.226132533 233.546515887 153.288896563 290.163079097 c 0
 185.77310076 308.917843135 212.287387821 318.182991033 233.126229129 318.182991033 c 0
 251.801284943 318.182991033 268.015944974 316.651554615 282.143026469 313.957182861 c 1
 282.779965072 345.818725446 283.159506873 376.855665829 283.159506873 406.206945323 c 0
 283.159506873 504.551582823 278.898552276 583.972021489 265.782054464 612.078802515 c 0
 265.71171963 612.229520016 265.677166036 612.39902869 265.677166036 612.5863179 c 0
 265.677166036 615.735886872 275.448862413 623.91376039 289.153935815 632.313644088 c 0
 322.534381239 652.772626767 322.534381239 652.772626767 325 654.196152423 c 0
 339.205601172 662.397760083 352.121102251 667.738655095 357.126229129 667.738655095 c 0
 359.29071071 667.738655095 359.323400994 666.73961206 359.321268575 666.343781059 c 0
 354.322383156 553.368973639 348.573667911 423.186630632 344.074227375 313.97589615 c 0
 342.52788935 253.125756208 336.202753833 80.2614187998 336.202753833 77.8993413279 c 0
 336.202753833 49.7545604473 339.88679071 18.7386550945 356.126229129 18.7386550945 c 0
 365.117888609 18.7386550945 377.826968545 19.8541205436 390.666684002 24.7109284427 c 0
 403.800874385 32.0492396216 415.43628738 36.7386551033 420.126229066 36.7386551033 c 0
 421.263646065 36.7386551033 422.322833964 36.4582345271 422.322833964 35.4136820999 c 0
 422.322833964 28.0836313607 372.379661075 -3.71533268575 331.813046878 -14.2401549446 c 0
 319.7442605 -17.3713462954 308.906068584 -18.7386550945 297.873770871 -18.7386550945 c 0
 286.423589403 -18.7386550945 274.755835503 -10.9109783753 273.640882004 35.0303312393 c 1
EndSplineSet
EndChar

StartChar: uni0065
Encoding: 101 101 11
Width: 387
GlyphClass: 2
Flags: HMW
HStem: -21.4639 42.9277<131.646 209.881> 279.856 42.9277<179.758 289.729>
VStem: 38.1769 66.3535<148.685 150.255>
AnchorPoint: "dot-over" 206 300 basechar 0
LayerCount: 2
Back
SplineSet
299 65 m 17
 282 46 218.110351562 0 156 0 c 3
 103 0 61 69 61 144 c 3
 61 204.033203125 137 299.444335938 203 299.444335938 c 3
 283.041015625 299.444335938 313 274 336 243 c 1
 72 102 l 1049
EndSplineSet
Fore
SplineSet
300.304184644 230.867190437 m 1
 277.905657836 258.929514435 247.265187835 280.705680843 173.873770871 280.705680843 c 0
 167.734055487 280.705680798 161.387479294 279.429611751 157.33555193 278.377691209 c 0
 138.916619589 262.660086011 125.783978355 246.484536264 114.516869223 227.798774395 c 0
 100.905247147 205.224791508 92.3228339642 181.303547427 92.3228339642 161.4136821 c 0
 92.3228339642 147.927593302 93.693659814 134.62425717 96.250846 121.884157298 c 1
 300.304184644 230.867190437 l 1
99.1383384827 109.56233896 m 1
 113.972614269 54.3754923827 149.361691539 18.7386550945 185.126229129 18.7386550945 c 0
 218.487843461 18.7386550945 246.469413564 33.3350044924 248.897247358 34.7367149871 c 0
 252.830166889 37.0073871365 265.057288641 45.9555905962 269.825469407 51.284733805 c 0
 280.180795335 62.8583333719 317.735711617 83.7386550945 328.126229129 83.7386550945 c 0
 329.26364607 83.7386550945 330.322833964 83.4582345249 330.322833964 82.4136820999 c 0
 330.322833964 72.9816994492 215.621316086 -18.7386550945 126.873770871 -18.7386550945 c 0
 70.0021737378 -18.7386550945 29.6771660358 53.5331548274 29.6771660358 126.5863179 c 0
 29.6771660358 156.99013739 54.2260909721 233.546476203 152.288948623 290.163093465 c 0
 184.773133908 308.917846584 211.287405363 318.182991033 232.126229129 318.182991033 c 0
 313.692019809 318.182991033 344.023632167 292.21786766 367.112452922 261.098152731 c 0
 367.244222947 260.920549653 367.322833964 260.696039099 367.322833964 260.4136821 c 0
 367.322833964 256.359970713 351.348664412 244.265581217 332.851573554 234.386453146 c 2
 99.1383384827 109.56233896 l 1
EndSplineSet
Substitution2: "Hobbit-1" e.hobbit
EndChar

StartChar: uni0066
Encoding: 102 102 12
Width: 215
GlyphClass: 2
Flags: HMW
HStem: 290.471 42.9467 521.611 42.9282
VStem: 116.087 66.1732
LayerCount: 2
Back
SplineSet
25 296 m 5
 215 312 l 1029
273 479 m 5
 260 500 212 542.875 163 542.875 c 7
 126 542.875 80 538.173828125 80 466 c 7
 80 222.331054688 84 -100 37 -162 c 1029
EndSplineSet
Fore
SplineSet
48.7616790639 338.396700102 m 0
 48.7616790639 341.795649872 48.6771660358 447.484421398 48.6771660358 448.5863179 c 0
 48.6771660358 497.870709298 68.8423278938 516.090864126 106.51746352 537.842613821 c 0
 138.53182132 556.326111915 157.203041147 561.613655095 192.126229129 561.613655095 c 0
 243.369155395 561.613655095 291.042017941 518.21882314 304.176914536 497 c 0
 304.274863534 496.83034736 304.322833964 496.634357005 304.322833964 496.4136821 c 0
 304.322833964 488.887590396 256.441601992 460.261344905 243.873770871 460.261344905 c 0
 242.835387419 460.261344905 242.13747672 460.491223946 241.83915463 460.97312886 c 0
 228.957982059 481.78117686 180.630844605 524.136344905 133.873770871 524.136344905 c 0
 128.761424723 524.136344905 123.501899388 524.033167755 118.416062066 523.696320696 c 0
 116.640256586 519.799891555 111.322833964 507.657704636 111.322833964 483.4136821 c 0
 111.322833964 482.310021336 111.407577426 376.424647239 111.407577426 373.047638237 c 0
 111.407577426 355.327863504 111.388898335 337.470961411 111.333984177 319.584830229 c 1
 243.785654458 330.738655095 243.785654458 330.738655095 244.126229129 330.738655095 c 0
 245.26364607 330.738655095 246.322833964 330.458234525 246.322833964 329.4136821 c 0
 246.322833964 322.106828231 200.633109611 294.475556617 186.605591872 293.294291965 c 2
 111.189638125 286.943474807 l 1
 109.754479524 43.6475440945 99.3759283091 -104.593622051 67.1037481653 -147.165434156 c 0
 58.8638464945 -158.035091679 18.7891263815 -180.738655095 7.87377087137 -180.738655095 c 0
 6.73635392963 -180.738655095 5.67716603581 -180.458234525 5.67716603581 -179.4136821 c 0
 5.67716603581 -177.494861718 17.1670029157 -167.288291599 26.7697752428 -120.751647675 c 0
 42.7597337417 -43.261629203 48.0431680097 90.1843146438 48.677807888 281.679320682 c 1
 23.4784958487 279.557273352 -3.59634377922 277.261344905 -4.12622912863 277.261344905 c 0
 -5.26364607037 277.261344905 -6.32283396419 277.541765475 -6.32283396419 278.5863179 c 0
 -6.32283396419 284.924984012 29.8438683548 308.02031701 48.7479378245 313.70319604 c 1
 48.7576783864 321.95654531 48.7616790639 330.191296743 48.7616790639 338.396700102 c 0
EndSplineSet
EndChar

StartChar: uni0067
Encoding: 103 103 13
Width: 424
GlyphClass: 2
Flags: HMW
HStem: -337.379 42.9287<270.557 345.507> -21.4639 42.9277<262.968 347.663> 279.856 42.9277 281.704 43.4385
VStem: 142.899 66.3535<-257.31 -202.387> 173.367 66.3545<129.513 142.336> 282.281 66.3545<-81.1152 -38.292> 446.108 66.3545<-222.315 -175.673> 453.519 66.3535<180.735 194.568>
LayerCount: 2
Back
SplineSet
307 306 m 0
 339.77734375 294.048828125 353 236.0625 353 204 c 3
 353 145.418945312 346 103 306 65 c 0
 252.28125 13.9677734375 180 -43.40234375 180 -67 c 3
 180 -104.935546875 345 -140.956054688 345 -187 c 3
 345 -249.032226562 229.0078125 -316 168 -316 c 3
 94.3564453125 -316 43.2001953125 -290 43.2001953125 -236 c 3
 43.2001953125 -200.954101562 69.0322265625 -159.220703125 123 -128 c 1033
-13 300 m 1
 22.7431640625 292.739257812 125.192382812 293.708007812 210 299.444335938 c 0
 224.989257812 300.458007812 283.991210938 306 307 306 c 3
 323.00390625 306 390.49609375 303.482421875 410 300 c 1025
210 299.444335938 m 3
 144 299.444335938 73 196 73 130 c 3
 73 55 125 -1 168 -1 c 3
 230.110351562 -1 289 46 306 65 c 1025
EndSplineSet
Fore
SplineSet
41.6771660358 112.5863179 m 0xc2
 41.6771660358 151.571858591 69.5607580227 227.717778784 143.565949786 278.526765815 c 1
 111.351337413 276.950876972 78.4482796148 276.069694723 48.8532693137 276.069694723 c 0
 8.9058386909 276.069694723 -25.0144357164 277.675180458 -43.0789888845 281.344751039 c 0
 -43.5801485257 281.446554867 -44.3228339642 281.71743554 -44.3228339642 282.5863179 c 0
 -44.3228339642 290.112409604 3.55839800833 318.738655095 16.1262291286 318.738655095 c 0
 17.0413257113 318.738655095 35.4876790227 313.624353404 107.492861296 313.624353404 c 0
 223.968636454 313.624353404 297.245723465 324.738655095 336.126229129 324.738655095 c 0
 359.94521304 324.738655095 439.446694794 320.996828501 441.176914536 318 c 0
 441.274863534 317.83034736 441.322833964 317.634357005 441.322833964 317.4136821 c 0
 441.322833964 309.887590396 393.441601992 281.261344905 380.873770871 281.261344905 c 0
 380.79243368 281.261344905 374.692417953 282.115788874 372.810670615 282.330831048 c 1
 380.793522187 261.712873072 384.322833964 238.146848607 384.322833964 221.4136821 c 0
 384.322833964 153.648405079 374.077807598 116.012861876 334.37876075 77.834727072 c 0
 329.631624004 72.6330880729 323.032854804 66.2920857606 313.873217923 58.7267690097 c 0
 305.997003017 51.5172237493 298.053937816 44.3560325028 290.288655599 37.3531666912 c 0
 246.66323151 -1.9889960933 211.322833964 -34.344535357 211.322833964 -49.5863179001 c 0
 211.322833964 -86.3313870817 376.322833964 -122.51442828 376.322833964 -169.5863179 c 0
 376.322833964 -232.935140418 259.743230786 -300.034778148 197.90959521 -322.271910377 c 0
 174.129225686 -330.824006928 154.728770596 -334.738655095 138.873770871 -334.738655095 c 0
 101.39535261 -334.738655095 11.8773613483 -327.032884649 11.8773613483 -253.4136821 c 0
 11.8773613483 -196.636675146 71.8075857853 -150.627750897 120 -122.803847577 c 0
 134.205601172 -114.602239917 147.121102251 -109.261344905 152.126229129 -109.261344905 c 0
 153.26364607 -109.261344905 154.322833964 -109.541765475 154.322833964 -110.5863179 c 0
 154.322833964 -114.084019117 142.271555162 -123.783048911 126.165178283 -133.100691254 c 0
 112.143008509 -141.212606417 74.5230292767 -175.983075032 74.5230292767 -218.5863179 c 0
 74.5230292767 -272.036010443 125.514521613 -297.261344905 197.126229129 -297.261344905 c 0
 218.726997665 -297.261344905 246.27511309 -287.647637608 260.542898122 -279.410128079 c 0
 275.16259394 -270.969442763 313.677166036 -239.746181059 313.677166036 -204.4136821 c 0
 313.677166036 -159.410640597 148.677166036 -123.526839615 148.677166036 -84.4136820999 c 0
 148.677166036 -66.6239627779 184.497759935 -32.5634150619 222.070237572 1.48567559047 c 1
 189.256247444 -13.6777586694 162.744436031 -19.7386545247 138.873770871 -19.7386550945 c 0
 92.2779773837 -19.7386550945 41.6771660358 38.7611567032 41.6771660358 112.5863179 c 0xc2
321.677166036 186.5863179 m 0
 321.677166036 218.816650183 308.316498887 275.290476617 277.052281976 287.25892509 c 0
 275.97608145 287.252728971 183.99700086 282.370405991 169.714496567 279.444869236 c 1
 157.577633432 268.228659907 138.155327509 246.945393193 122.386806492 214.598895163 c 0
 111.136343576 191.52044182 104.322833964 167.647837236 104.322833964 147.4136821 c 0
 104.322833964 71.3248873801 157.669145662 17.7386550945 197.126229129 17.7386550945 c 0
 228.292897312 17.7386550945 251.470488324 30.3901168816 251.470488324 30.3901168816 c 1
 259.682303699 35.1312106988 266.514808627 41.6202544586 278.646918446 53.1456182088 c 0
 319.008764313 91.4893717819 321.677166036 142.924209817 321.677166036 186.5863179 c 0
EndSplineSet
EndChar

StartChar: uni0068
Encoding: 104 104 14
Width: 383
GlyphClass: 2
Flags: HMW
HStem: 274.761 42.9282 648.654 20G
VStem: 38.5996 66.3538 51.3631 62.1838 289.127 66.3538
LayerCount: 2
Back
SplineSet
78 194 m 5
 111 247 157 299.444335938 206 299.444335938 c 7
 271 299.444335938 322 221 322 153 c 7
 322 58 269 -25 209 -60 c 1028
71 0 m 0
 72 31 72 29 73 70 c 1
 73 128.228515625 88 423 98 649 c 1
 67 630 l 1
 95 570 81 282 73 70 c 1025
EndSplineSet
Fore
SplineSet
290.677166036 135.5863179 m 0xc8
 290.677166036 204.721759608 238.356736694 280.705680843 176.873770871 280.705680843 c 0
 172.479198166 280.705680843 168.133475913 280.110987531 164.750168338 279.425748933 c 0
 144.049499799 260.877476153 126.713062285 238.532274407 109.056562803 210.271934998 c 1
 108.662625441 199.773984002 104.368089036 88.5836058916 104.321703672 87.3543937529 c 0
 103.520192418 54.5067933087 103.520192418 54.5067933087 102.322013023 17.3632320783 c 0
 102.075725534 9.72831992778 54.3983664138 -18.7386550945 41.8737708714 -18.7386550945 c 0
 39.7511745273 -18.7386550945 39.6767327796 -17.7774447067 39.6779869768 -17.3632320783 c 0
 40.8796339244 19.8878232966 40.8796339244 19.8878232966 41.6768453738 52.5797501787 c 0
 41.6768453738 52.8048354361 44.6343962704 150.934045863 48.7459326004 242.218180783 c 0
 50.7885477526 304.752604054 52.2791261431 366.599058219 52.2791261431 421.684098356 c 0
 52.2791261431 512.836104716 48.1976247865 585.474008967 35.7820544643 612.078802515 c 0
 35.7117196304 612.229520016 35.6771660358 612.39902869 35.6771660358 612.5863179 c 0
 35.6771660358 615.735886872 45.4488624129 623.91376039 59.1539358147 632.313644088 c 0
 92.5343812385 652.772626767 92.5343812385 652.772626767 95 654.196152423 c 0
 109.205601172 662.397760083 122.121102251 667.738655095 127.126229129 667.738655095 c 0
 129.29071071 667.738655095 129.323400994 666.73961206 129.321268575 666.343781059 c 0
 129.139981068 662.246683381 111.921708778 290.643057972 110.739199366 256.654322835 c 1
 141.272211878 283.916706114 196.883851721 318.182991033 235.126229129 318.182991033 c 0
 303.691988608 318.182991033 353.322833964 237.197043048 353.322833964 170.4136821 c 0
 353.322833964 138.453583181 345.727456849 39.4388145857 257.585844016 -33.7244382516 c 0
 249.472772445 -40.4588136228 234.239080028 -52.3564135822 212 -65.1961524227 c 0
 197.794398828 -73.3977600831 184.878897749 -78.7386550945 179.873770871 -78.7386550945 c 0
 178.736353931 -78.7386550945 177.677166036 -78.4582345251 177.677166036 -77.4136821005 c 0
 177.677166036 -74.0621787403 188.742054413 -65.0169221123 203.837003874 -56.069211456 c 0
 235.140058777 -33.4178791213 290.677166036 37.6551230665 290.677166036 135.5863179 c 0xc8
EndSplineSet
EndChar

StartChar: uni006B
Encoding: 107 107 17
Width: 371
GlyphClass: 2
Flags: HMW
HStem: -356.804 21G<64.1769 64.1769> -21.4639 42.9277<309.394 407.65> 279.856 42.9277<311.226 373.383> 648.653 20G<172.744 172.744>
VStem: 95.7736 68.1992
LayerCount: 2
Back
SplineSet
313 276 m 25
 313 276 308 303 295 303 c 3
 194 303 100.973632812 246.552734375 86 156 c 0
 65 29 279 0 329 0 c 1025
45 -335 m 5
 54 -259 75 29 76 70 c 5
 76 128.228515625 89 423 99 649 c 5
 68 630 l 5
 96 570 84 282 76 70 c 1029
  Spiro
    45 -335 {
    56.8014 -205.5 o
    69.5293 -36.1787 o
    76 70 v
    79.7339 195.586 o
    88.6028 411.622 o
    99 649 v
    68 630 v
    84.2901 505.437 o
    83.6979 295.845 o
    76 70 v
    0 0 z
  EndSpiro
EndSplineSet
Fore
SplineSet
15.8737708714 -353.738655095 m 0
 14.7363539296 -353.738655095 13.6771660358 -353.458234525 13.6771660358 -352.4136821 c 0
 13.6771660358 -352.349295875 13.6812497341 -352.282808267 13.6893672521 -352.214260337 c 0
 22.672575688 -276.356055767 43.6809389253 11.7410063679 44.6771660358 52.5863179001 c 0
 44.6771660358 81.3772872534 47.843714747 167.74170299 52.2534371701 275.008138142 c 0
 53.4115030068 320.474977487 54.1595068733 365.00201805 54.1595068733 406.206945323 c 0
 54.1595068733 504.551582823 49.898552276 583.972021489 36.7820544643 612.078802515 c 0
 36.7117196304 612.229520016 36.6771660358 612.39902869 36.6771660358 612.5863179 c 0
 36.6771660358 615.735886872 46.4488624129 623.91376039 60.1539358147 632.313644088 c 0
 93.5343812385 652.772626767 93.5343812385 652.772626767 96 654.196152423 c 0
 110.205601172 662.397760083 123.121102251 667.738655095 128.126229129 667.738655095 c 0
 130.29071071 667.738655095 130.323400994 666.73961206 130.321268575 666.343781059 c 0
 125.322383156 553.368973639 119.573667911 423.186630632 115.074227375 313.97589615 c 0
 114.434336995 288.795490212 113.664676825 263.307720061 112.824836636 237.916212728 c 1
 129.643348436 252.670558156 214.244701153 321.738655095 324.126229129 321.738655095 c 0
 331.400465212 321.738655095 334.91347072 317.086057459 337.704171698 312.252421576 c 0
 342.377143211 304.158597494 344.301319466 293.714775243 344.301319466 293.657861708 c 0
 344.315700847 293.580202249 344.322833964 293.498777449 344.322833964 293.4136821 c 0
 344.322833964 285.887590396 296.441601992 257.261344905 283.873770871 257.261344905 c 0
 283.064171317 257.261344905 281.873583967 257.397659758 281.698680534 258.342138292 c 2
 281.698680534 258.342138292 279.803966829 268.538518177 275.350342626 276.252421576 c 0
 272.55101591 281.100997675 268.489251416 284.261344905 265.873770871 284.261344905 c 0
 246.323354955 284.261344905 227.186669918 282.020524816 210.140456644 278.149618509 c 0
 186.900904299 272.872309801 173.402535279 265.850741391 173.402535279 265.850741391 c 1
 145.3508887 246.925659988 115.878598602 201.016680549 115.878598602 156.327843957 c 0
 115.878598602 44.705723957 312.370851637 18.7386550945 358.126229129 18.7386550945 c 0
 359.26364607 18.7386550945 360.322833964 18.4582345249 360.322833964 17.4136820999 c 0
 360.322833964 9.88759039554 312.441601992 -18.7386550945 299.873770871 -18.7386550945 c 0
 266.938558437 -18.7386550945 166.617715496 -6.76093553242 104.516009314 35.8119467103 c 1
 98.3022134486 -61.7410168662 83.499999449 -257.075531965 76.3106327479 -317.785739663 c 0
 75.3703794753 -325.725656188 28.2738743028 -353.738655095 15.8737708714 -353.738655095 c 0
EndSplineSet
EndChar

StartChar: uni006C
Encoding: 108 108 18
Width: 146
GlyphClass: 2
Flags: HMW
HStem: -19.7275 42.9287 648.653 20G<134.303 134.303>
VStem: 46.2629 66.3545<14.3486 49.3545> 57.3332 62.8721
LayerCount: 2
Back
SplineSet
150 18 m 0
 131 7 109.412109375 0 86 0 c 3
 67.8896484375 0 63 29 64 70 c 5
 64 128.228515625 77 423 87 649 c 5
 56 630 l 5
 84 570 72 282 64 70 c 1029
EndSplineSet
Fore
SplineSet
56.8737708714 -18.7386550945 m 0xc0
 43.8290917682 -18.7386550945 32.5513084885 -8.23833026286 32.5513084885 42.7059367208 c 0
 32.5513084885 45.913503353 32.5948172733 49.2100186366 32.6771660358 52.5863179001 c 0
 32.6771660358 81.3772872534 35.843714747 167.74170299 40.2534371701 275.008138141 c 0
 41.4115030068 320.474977486 42.1595068733 365.00201805 42.1595068733 406.206945323 c 0
 42.1595068733 504.551582823 37.898552276 583.972021489 24.7820544643 612.078802515 c 0
 24.7117196304 612.229520016 24.6771660358 612.39902869 24.6771660358 612.5863179 c 0
 24.6771660358 615.735886872 34.4488624129 623.91376039 48.1539358147 632.313644088 c 0
 81.5343812385 652.772626767 81.5343812385 652.772626767 84 654.196152423 c 0
 98.2056011716 662.397760083 111.121102251 667.738655095 116.126229129 667.738655095 c 0
 118.29071071 667.738655095 118.323400994 666.73961206 118.321268575 666.343781059 c 0
 113.322383156 553.368973639 107.573667911 423.186630632 103.074227375 313.97589615 c 0
 101.527840875 253.123848661 95.2027610563 80.2619327701 95.2027610563 77.8998604893 c 0
 95.2027610563 49.7602518855 98.8856664538 18.7386550945 115.126229129 18.7386550945 c 0
 124.118041159 18.7386550945 136.827050005 19.8541140852 149.666505349 24.7108278279 c 0
 162.800768759 32.0491969178 174.436266129 36.7386550995 179.126229093 36.7386550995 c 0
 180.263646067 36.7386550995 181.322833964 36.4582345261 181.322833964 35.4136820999 c 0
 181.322833964 28.0837354264 131.379694697 -3.71533184634 90.8132251715 -14.240149437 c 0
 78.7444248362 -17.3713541869 67.9062275032 -18.7386550945 56.8737708714 -18.7386550945 c 0xc0
EndSplineSet
EndChar

StartChar: uni006D
Encoding: 109 109 19
Width: 572
GlyphClass: 2
Flags: HMW
HStem: 275.211 42.9282 302.784 20G
VStem: 19.6967 66.3538 31.0362 66.3505 269.445 66.3538 501.257 66.3538
LayerCount: 2
Back
SplineSet
296.833984375 201.053710938 m 1
 329.453125 251.5546875 373.537109375 299.444335938 420.361328125 299.444335938 c 3
 485.361328125 299.444335938 536.361328125 221 536.361328125 153 c 3
 536.361328125 58 483.361328125 -25 423.361328125 -60 c 1024
60.361328125 194 m 1
 93.361328125 247 139.361328125 299.444335938 188.361328125 299.444335938 c 3
 253.361328125 299.444335938 304.361328125 221 304.361328125 153 c 3
 304.361328125 58 251.361328125 -25 191.361328125 -60 c 1024
42.361328125 300 m 0
 75.361328125 249 57.361328125 233 51.361328125 0 c 1025
EndSplineSet
Fore
SplineSet
29.0384942107 176.586317957 m 0x0c
 29.0384942107 176.948493733 30.3545888621 195.376979122 30.3545888621 212.779975092 c 0
 30.3545888621 243.906949775 25.802466536 259.388827668 11.1844135888 282 c 0
 11.0864645911 282.16965264 11.0384941608 282.365642995 11.0384941608 282.5863179 c 0
 11.0384941608 290.112409604 58.9197261333 318.738655095 71.4875572536 318.738655095 c 0
 73.1152550918 318.738655095 73.4053501502 318.738655095 78.4350214555 310.027008848 c 0
 88.1873774455 293.13543278 92.0857980509 278.792770782 92.8437857528 256.424791961 c 1
 108.078843099 270.062444788 122.737353071 280.563230782 142.453710617 291.946475119 c 0
 153.323403942 298.222095486 187.896689193 318.182991033 217.487557254 318.182991033 c 0
 233.984541651 318.182991033 281.715490148 312.225089219 315.664269341 247.811529494 c 1
 350.545840798 282.221721202 410.748231001 318.182991033 449.487557254 318.182991033 c 0
 518.053316733 318.182991033 567.684162089 237.197043048 567.684162089 170.4136821 c 0
 567.684162089 138.453583181 560.088784974 39.4388145857 471.947172141 -33.7244382516 c 0
 463.83410057 -40.4588136228 448.600408153 -52.3564135822 426.361328125 -65.1961524227 c 0
 412.155726953 -73.3977600831 399.240225874 -78.7386550945 394.235098996 -78.7386550945 c 0
 393.097682056 -78.7386550945 392.038494161 -78.4582345251 392.038494161 -77.4136821005 c 0
 392.038494161 -74.0621787403 403.103382538 -65.0169221123 418.198331999 -56.069211456 c 0
 449.501386902 -33.4178791213 505.038494161 37.6551230665 505.038494161 135.5863179 c 0
 505.038494161 204.721759608 452.718064819 280.705680843 391.235098996 280.705680843 c 0
 386.839698424 280.705680843 382.493172259 280.11077277 379.109574804 279.425375245 c 0
 360.469133217 262.87063534 344.547711212 242.920007136 328.166846096 217.725621217 c 1
 333.031394745 202.139807533 335.684162089 186.02979818 335.684162089 170.4136821 c 0
 335.684162089 138.453583181 328.088784974 39.4388145857 239.947172141 -33.7244382516 c 0
 231.83410057 -40.4588136228 216.600408153 -52.3564135822 194.361328125 -65.1961524227 c 0
 180.155726953 -73.3977600831 167.240225874 -78.7386550945 162.235098996 -78.7386550945 c 0
 161.097682056 -78.7386550945 160.038494161 -78.4582345251 160.038494161 -77.4136821005 c 0
 160.038494161 -74.0621787403 171.103382538 -65.0169221123 186.198331999 -56.069211456 c 0
 217.501386902 -33.4178791213 273.038494161 37.6551230665 273.038494161 135.5863179 c 0
 273.038494161 204.721759608 220.718064819 280.705680843 159.235098996 280.705680843 c 0
 154.840526291 280.705680843 150.494804038 280.110987531 147.111496463 279.425748933 c 0
 126.4837463 260.942812687 109.26531853 238.766358314 91.7103658407 210.739467409 c 1
 91.252866241 202.329473038 90.6960113248 193.090153381 90.079716638 182.865963935 c 0
 87.7650810615 144.466718103 84.6075790399 92.0864878659 82.6836427024 17.3736267575 c 0
 82.4876073708 9.76092138302 34.7686012494 -18.7386550945 22.2350989964 -18.7386550945 c 0
 21.0976820546 -18.7386550945 20.0384941608 -18.4582345249 20.0384941608 -17.4136820999 c 0
 20.0384941608 -16.1994427716 20.9211320367 40.0857952933 27.4399643804 148.231651278 c 0
 28.0610451566 158.535231525 28.6208964141 167.82178371 29.0800387858 176.253411933 c 0
 29.0522397285 176.357138411 29.0384942107 176.468191609 29.0384942107 176.586317957 c 0x0c
EndSplineSet
EndChar

StartChar: uni006E
Encoding: 110 110 20
Width: 374
GlyphClass: 2
Flags: HMW
HStem: 275.211 42.9282 302.784 20G
VStem: 35.8488 66.3538 47.1886 66.3504 285.518 66.3538
LayerCount: 2
Back
SplineSet
77.01171875 194 m 1
 110.01171875 247 156.01171875 299.444335938 205.01171875 299.444335938 c 3
 270.01171875 299.444335938 321.01171875 221 321.01171875 153 c 3
 321.01171875 58 268.01171875 -25 208.01171875 -60 c 1024
59.01171875 300 m 4
 92.01171875 249 74.01171875 233 68.01171875 0 c 1029
EndSplineSet
Fore
SplineSet
45.6888848357 176.586317957 m 0x08
 45.6888848357 176.948493733 47.0049794871 195.376979122 47.0049794871 212.779975092 c 0
 47.0049794871 243.906949775 42.452857161 259.388827668 27.8348042138 282 c 0
 27.7368552161 282.16965264 27.6888847858 282.365642995 27.6888847858 282.5863179 c 0
 27.6888847858 290.112409604 75.5701167583 318.738655095 88.1379478786 318.738655095 c 0
 89.7656457168 318.738655095 90.0557407752 318.738655095 95.0854120805 310.027008848 c 0
 104.83776807 293.13543278 108.736188676 278.792770782 109.494176378 256.424791961 c 1
 124.729233724 270.062444788 139.387743696 280.563230782 159.104101242 291.946475119 c 0
 169.973794567 298.222095486 204.547079818 318.182991033 234.137947879 318.182991033 c 0
 302.703707358 318.182991033 352.334552714 237.197043048 352.334552714 170.4136821 c 0
 352.334552714 138.453583181 344.739175599 39.4388145857 256.597562766 -33.7244382516 c 0
 248.484491195 -40.4588136228 233.250798778 -52.3564135822 211.01171875 -65.1961524227 c 0
 196.806117578 -73.3977600831 183.890616499 -78.7386550945 178.885489621 -78.7386550945 c 0
 177.748072681 -78.7386550945 176.688884786 -78.4582345251 176.688884786 -77.4136821005 c 0
 176.688884786 -74.0621787403 187.753773163 -65.0169221123 202.848722624 -56.069211456 c 0
 234.151777527 -33.4178791213 289.688884786 37.6551230665 289.688884786 135.5863179 c 0
 289.688884786 204.721759608 237.368455444 280.705680843 175.885489621 280.705680843 c 0
 171.490916916 280.705680843 167.145194663 280.110987531 163.761887088 279.425748933 c 0
 143.134136925 260.942812687 125.915709155 238.766358314 108.360756466 210.739467409 c 1
 107.903256866 202.329473038 107.34640195 193.090153381 106.730107263 182.865963935 c 0
 104.415471687 144.466718103 101.257969665 92.0864878659 99.3340333274 17.3736267575 c 0
 99.1379979958 9.76092138302 51.4189918744 -18.7386550945 38.8854896214 -18.7386550945 c 0
 37.7480726796 -18.7386550945 36.6888847858 -18.4582345249 36.6888847858 -17.4136820999 c 0
 36.6888847858 -16.1994427717 37.5715226617 40.0857952932 44.0903550054 148.231651278 c 0
 44.7114357816 158.535231525 45.2712870391 167.82178371 45.7304294108 176.253411933 c 0
 45.7026303535 176.357138412 45.6888848357 176.468191609 45.6888848357 176.586317957 c 0x08
EndSplineSet
EndChar

StartChar: uni006F
Encoding: 111 111 21
Width: 452
GlyphClass: 2
Flags: HMW
HStem: -22.0713 42.9277<178.058 271.719> 279.856 42.9277<198.702 292.363>
VStem: 50.7937 66.3545<151.901 163.798> 353.274 66.3545<136.915 148.812>
LayerCount: 2
Back
SplineSet
83.3076171875 150 m 4
 83.3076171875 233 153.307617188 300 235.307617188 300 c 4
 317.307617188 300 388.307617188 233 388.307617188 150 c 4
 388.307617188 67 317.307617188 0 235.307617188 0 c 4
 153.307617188 0 83.3076171875 67 83.3076171875 150 c 4
EndSplineSet
Fore
SplineSet
356.984783224 132.5863179 m 0
 356.984783224 215.867894462 285.199826404 281.261344905 206.181388059 281.261344905 c 0
 192.056677184 281.261344905 177.184722027 279.216279531 162.637616119 274.011384582 c 1
 150.107341009 263.294196444 114.630451152 227.632415205 114.630451152 167.4136821 c 0
 114.630451152 84.1101248057 185.428336788 18.7386550945 264.433846317 18.7386550945 c 0
 277.067397615 18.7386550945 292.754213696 20.4034935527 308.734234779 26.2180548469 c 1
 316.176714942 32.3348080379 356.984783224 68.7827803196 356.984783224 132.5863179 c 0
206.181388059 -18.7386550945 m 0
 121.161809154 -18.7386550945 51.9847832233 49.9203371517 51.9847832233 132.5863179 c 0
 51.9847832233 150.760961258 55.128384725 194.13502081 93.1906089119 235.998803295 c 0
 105.295045623 249.312200406 121.155734936 264.371226038 156.450976007 284.748942972 c 0
 187.200314082 302.502081587 223.158936332 318.738655095 264.433846317 318.738655095 c 0
 349.440231029 318.738655095 419.630451152 250.102274272 419.630451152 167.4136821 c 0
 419.630451152 149.263619879 416.451316356 106.077725892 378.143410264 64.1758832735 c 0
 365.970729494 50.8611969355 349.900217577 35.7327936264 314.80879102 15.4727490576 c 0
 283.830100349 -2.41280634053 247.588063741 -18.7386550945 206.181388059 -18.7386550945 c 0
EndSplineSet
Substitution2: "Hobbit-1" o.hobbit
EndChar

StartChar: uni0070
Encoding: 112 112 22
Width: 411
GlyphClass: 2
Flags: HMW
HStem: -356.804 21G -22.0715 42.9282 279.856 42.9282
VStem: 43.5127 66.129 55.0331 66.2947 328.795 66.3538
LayerCount: 2
Back
SplineSet
59 300 m 4
 92 249 74 233 68 0 c 13
 68 0 57 -334 57 -335 c 1028
79 240.114257812 m 1
 107.098632812 276.508789062 151.4453125 300 200 300 c 0
 282 300 353 233 353 150 c 0
 353 67 282 0 200 0 c 0
 146.543945312 0 98.1884765625 28.4736328125 71 71.291015625 c 1025
EndSplineSet
Fore
SplineSet
27.8737708714 -353.738655095 m 0xe4
 27.1518428696 -353.738655095 25.6763310411 -353.638841495 25.6763310411 -352.413654682 c 2
 36.6780171934 -17.3623036808 l 2
 38.603216868 57.3996170193 41.7638270947 109.829525725 44.0786362554 148.231651278 c 0
 45.7604296905 176.132198652 46.9932607198 196.57543824 46.9932607198 212.779975104 c 0
 46.9932607198 243.906949803 42.4411383814 259.388827714 27.8230854638 282 c 0
 27.7251364661 282.16965264 27.6771660358 282.365642995 27.6771660358 282.5863179 c 0
 27.6771660358 290.112409604 75.5583980083 318.738655095 88.1262291286 318.738655095 c 0
 89.7539269668 318.738655095 90.0440220252 318.738655095 95.0736933305 310.027008848 c 0
 101.573306557 298.769348511 105.472737109 288.643856838 107.575259758 276.520257387 c 1
 171.029886917 316.957050151 211.508041972 318.738655095 229.126229129 318.738655095 c 0
 314.132613841 318.738655095 384.322833964 250.102274272 384.322833964 167.4136821 c 0
 384.322833964 149.263619879 381.143699168 106.077725892 342.835793076 64.1758832735 c 0
 330.663112306 50.8611969355 314.592600389 35.7327936264 279.501173832 15.4727490576 c 0
 248.522483161 -2.41280634053 212.280446553 -18.7386550945 170.873770871 -18.7386550945 c 0
 144.791210172 -18.7386550945 120.244559305 -12.2978985003 98.7197961536 -0.976634813198 c 1
 96.4203338254 -71.0051995845 88.3219828066 -317.637696319 88.3219828066 -317.637696319 c 2
 88.0712246778 -325.274421152 40.3978425146 -353.738655095 27.8737708714 -353.738655095 c 0xe4
321.677166036 132.5863179 m 0
 321.677166036 215.867894462 249.892209216 281.261344905 170.873770871 281.261344905 c 0
 154.254651689 281.261344905 139.839201121 278.45245105 127.542672266 274.087192374 c 0
 123.701010232 270.744145759 115.823340746 263.498263967 109.512711274 255.471914239 c 1
 109.588801573 252.904852273 109.624857583 250.232291116 109.624857583 247.438727832 c 0
 109.624857583 218.405733998 104.992138918 165.162637751 101.779511904 89.6882185581 c 0
 101.938785012 89.5899343869 102.064346433 89.4699811429 102.154644091 89.327777323 c 0
 129.203109325 46.7308893464 177.516497357 18.7386550945 229.126229129 18.7386550945 c 0
 241.759780427 18.7386550945 257.446596508 20.4034935527 273.426617591 26.2180548469 c 1
 280.869097754 32.3348080379 321.677166036 68.7827803196 321.677166036 132.5863179 c 0
EndSplineSet
EndChar

StartChar: uni0071
Encoding: 113 113 23
Width: 394
GlyphClass: 2
Flags: HMW
HStem: -356.804 21G -21.4641 42.9282 279.856 42.9282
VStem: 16.1777 66.3538 255.073 66.3538
LayerCount: 2
Back
SplineSet
301 65 m 17
 284 46 220.110351562 0 158 0 c 3
 105 0 63 69 63 144 c 3
 63 204.033203125 139 299.444335938 205 299.444335938 c 3
 269.14453125 299.444335938 301.125 283.103515625 323.134765625 260.657226562 c 1
 326 201 304 -220 306 -335 c 1024
EndSplineSet
Fore
SplineSet
286.510318347 42.7557281907 m 1
 253.775516688 20.6937779555 187.117897045 -18.7386550945 128.873770871 -18.7386550945 c 0
 72.0021737378 -18.7386550945 31.6771660358 53.5331548274 31.6771660358 126.5863179 c 0
 31.6771660358 156.99013739 56.2260909721 233.546476203 154.288948623 290.163093465 c 0
 186.773133908 308.917846584 213.287405363 318.182991033 234.126229129 318.182991033 c 0
 299.493095232 318.182991033 331.954264144 301.504642964 354.152063371 278.866590997 c 0
 354.609561407 278.400019324 354.716504834 272.838110618 354.716504834 263.113346399 c 0
 354.716504834 221.241945189 351.013871138 125.432008566 347.016563665 21.7728699272 c 0
 342.312120218 -100.223888843 337.194182057 -233.01452394 337.194182057 -300.870596091 c 0
 337.194182057 -306.978289548 337.23564614 -312.559901601 337.322833964 -317.5863179 c 0
 337.322833964 -325.112409604 289.441601992 -353.738655095 276.873770871 -353.738655095 c 0
 276.081259982 -353.738655095 274.697772115 -353.61164805 274.677391998 -352.439791332 c 0
 274.589945331 -347.411607972 274.548255788 -341.80123498 274.548255788 -335.664085413 c 0
 274.548255788 -280.499268583 275.274920144 -252.900013754 286.510318347 42.7557281907 c 1
94.3228339642 161.4136821 m 0
 94.3228339642 84.6241154717 137.915834372 18.7386550945 187.126229129 18.7386550945 c 0
 220.487843461 18.7386550945 248.469413564 33.3350044924 250.897247358 34.7367149871 c 0
 254.830166889 37.0073871365 267.057288641 45.9555905962 271.825469407 51.284733805 c 0
 274.680763167 54.4759444014 280.202230381 58.8748141646 287.29655214 63.5812873543 c 1
 290.007082216 135.918876825 292.068764302 197.357915883 292.068764302 228.414356772 c 0
 292.068764302 234.339196144 291.993727989 239.158240307 291.833845432 242.736202941 c 1
 270.022732203 264.840488644 238.523885575 280.705680843 175.873770871 280.705680843 c 0
 169.734055487 280.705680798 163.387479294 279.429611751 159.33555193 278.377691209 c 0
 140.916619589 262.660086011 127.783978355 246.484536264 116.516869223 227.798774395 c 0
 102.905247147 205.224791508 94.3228339642 181.303547427 94.3228339642 161.4136821 c 0
EndSplineSet
EndChar

StartChar: uni0072
Encoding: 114 114 24
Width: 317
GlyphClass: 2
Flags: HMW
HStem: 279.856 42.9282 302.784 20G
VStem: 36.3792 66.3538 47.8996 66.3538 223.114 66.3538
LayerCount: 2
Back
SplineSet
57.2314453125 300 m 0
 90.2314453125 249 72.2314453125 233 66.2314453125 0 c 0
 64.59765625 -63.447265625 59.2314453125 -162.1796875 59.2314453125 -162.58984375 c 1024
89.2314453125 269 m 0
 120.959960938 287.130859375 143.232421875 299.578125 185.231445312 300 c 0
 214.231445312 300.291015625 257.231445312 272.012695312 257.231445312 233 c 3
 257.231445312 173.032226562 211.231445312 159 153.231445312 125 c 1
 229.231445312 110 252.231445312 34 318.231445312 0 c 1025
EndSplineSet
Fore
SplineSet
30.1052161839 -181.328498845 m 0x08
 28.9677992421 -181.328498845 27.9086113483 -181.048078275 27.9086113483 -180.00352585 c 0
 27.9086113483 -173.133126378 32.9251528158 -94.420276739 34.9091307054 -17.3736279121 c 0
 36.8343303801 57.388292788 39.9952724072 109.829525725 42.3100815679 148.231651278 c 0
 43.991875003 176.132198652 45.2247060323 196.57543824 45.2247060323 212.779975104 c 0
 45.2247060323 243.906949803 40.6725836939 259.388827714 26.0545307763 282 c 0
 25.9565817786 282.16965264 25.9086113483 282.365642995 25.9086113483 282.5863179 c 0
 25.9086113483 290.112409604 73.7898433208 318.738655095 86.3576744411 318.738655095 c 0
 87.9853722793 318.738655095 88.2754673377 318.738655095 93.305138643 310.027008848 c 0
 98.365502996 301.262200684 101.849735997 293.18366989 104.136931679 284.314127294 c 1
 151.893938746 310.588206767 181.048384522 318.740885917 214.804030766 318.740885917 c 0
 246.77509927 318.740885917 288.554279276 289.158319989 288.554279276 250.4136821 c 0
 288.554279276 207.485387118 266.241950408 181.596526023 194.185650079 141.014816753 c 1
 262.645192779 121.167590052 286.260918523 50.7280567134 348.906838532 18.4559161027 c 0
 349.213167143 18.2981104547 349.554279276 18.0016121351 349.554279276 17.4136820999 c 0
 349.554279276 9.88759039554 301.673047304 -18.7386550945 289.105216183 -18.7386550945 c 0
 288.447006325 -18.7386550945 287.925599463 -18.6462889907 287.556052092 -18.4559161027 c 0
 221.445957872 15.6007991018 198.063262763 91.5596722781 123.170269504 106.341184106 c 0
 122.663270971 106.441249605 121.908611348 106.710405058 121.908611348 107.5863179 c 0
 121.908611348 115.013473997 158.050185941 134.883090637 180.64016638 147.302423671 c 0
 187.339661642 150.985616892 192.610397043 153.90539976 195.926375112 155.819880591 c 0
 198.824226918 157.492956111 225.908611348 170.59782014 225.908611348 215.5863179 c 0
 225.908611348 254.419186444 182.606623747 281.263584213 156.552338748 281.263584213 c 0
 152.012715504 281.263584213 124.200834424 280.882040975 106.529671367 271.742887357 c 1
 107.462041802 264.590913098 107.856302861 256.676380437 107.856302861 247.438727768 c 0
 107.856302861 212.98105413 100.668431592 138.326711172 97.5537599196 17.3736279121 c 0
 96.6096264153 -19.291257785 94.2878424343 -73.9163994313 90.5542792767 -145.17616165 c 0
 90.5542792767 -152.702253354 42.6730473042 -181.328498845 30.1052161839 -181.328498845 c 0x08
EndSplineSet
EndChar

StartChar: uni0073
Encoding: 115 115 25
Width: 383
GlyphClass: 2
Flags: HMW
HStem: -18.2248 42.9282 279.856 42.9282
VStem: 2.17771 66.3538 267.663 66.3538
LayerCount: 2
Back
SplineSet
323 221 m 21
 305 281 251.544921875 300 193 300 c 7
 128 300 55 284 55 219 c 7
 55 180.291992188 113.751953125 154.484375 186 137 c 4
 246 122.479492188 322 110.673828125 322 88 c 7
 322 27.9912109375 243 0 200 0 c 7
 161 0 94 23 76 65 c 1029
EndSplineSet
Fore
SplineSet
44.6771660358 47.5863179001 m 0
 44.6771660358 55.1124096045 92.5583980083 83.7386550945 105.126229129 83.7386550945 c 0
 106.120569508 83.7386550945 106.958784997 83.5272226021 107.231320584 82.8913062324 c 0
 125.059951323 41.2911678408 192.012432852 18.7386550945 229.126229129 18.7386550945 c 0
 236.847566408 18.7386550945 252.627703286 19.7462646671 272.259000372 26.498980245 c 1
 278.860918884 33.3250628827 290.677166036 47.4773355979 290.677166036 70.5863179001 c 0
 290.677166036 87.802236845 240.581271525 99.2748693204 190.084252184 110.521928684 c 0
 131.948142364 123.470421225 23.6771660358 147.585311846 23.6771660358 201.5863179 c 0
 23.6771660358 231.284912152 36.8437436053 255.103220367 87.8029947925 284.524557758 c 0
 120.843779252 303.60066356 157.120544491 318.738655095 222.126229129 318.738655095 c 0
 272.59016184 318.738655095 334.401927867 305.01281958 354.272345122 238.778095395 c 0
 354.306141749 238.665439973 354.322833964 238.543855764 354.322833964 238.4136821 c 0
 354.322833964 230.887590396 306.441601992 202.261344905 293.873770871 202.261344905 c 0
 293.046503756 202.261344905 291.972588421 202.405459459 291.727654878 203.221904605 c 0
 279.927003353 242.557409687 247.157100023 281.261344905 163.873770871 281.261344905 c 0
 141.94944275 281.261344905 118.277399992 279.499413725 97.6426118471 273.798653265 c 0
 94.5856126748 269.606651623 86.3228339642 258.11074958 86.3228339642 236.4136821 c 0
 86.3228339642 184.342879263 194.17317067 160.321676524 250.357844916 147.80782175 c 0
 304.705477977 135.703126002 353.322833964 124.874718781 353.322833964 105.4136821 c 0
 353.322833964 81.5902498408 342.975358622 52.5872196585 280.149958363 16.3149579072 c 0
 256.065563001 2.40982576152 212.574758476 -18.7386550945 170.873770871 -18.7386550945 c 0
 129.980902144 -18.7386550945 62.9379997618 4.71361296047 44.7686794159 47.1086937676 c 0
 44.7073366183 47.251826962 44.6771660358 47.411309865 44.6771660358 47.5863179001 c 0
EndSplineSet
EndChar

StartChar: uni0074
Encoding: 116 116 26
Width: 344
GlyphClass: 2
Flags: HMW
HStem: -21.4639 42.9277<123.111 207.805> 273.438 42.9287<25.8776 125.439> 282.215 40.4932
VStem: 33.5099 66.3535<129.513 142.498>
LayerCount: 2
Back
SplineSet
-14.546875 300 m 5
 21.1962890625 292.739257812 123.645507812 293.708007812 208.453125 299.444335938 c 4
 223.442382812 300.458007812 260.443359375 304.651367188 283.453125 304.651367188 c 7
 299.45703125 304.651367188 319.94921875 303.482421875 339.453125 300 c 1029
208.453125 299.444335938 m 7
 142.453125 299.444335938 66.453125 204.033203125 66.453125 144 c 7
 66.453125 69 108.453125 0 161.453125 0 c 7
 223.563476562 0 287.453125 46 304.453125 65 c 1037
EndSplineSet
Fore
SplineSet
35.1302910358 126.5863179 m 0x90
 35.1302910358 161.462446413 63.404048965 228.317091175 138.682688937 278.366155316 c 1
 107.538170612 276.891126346 75.8804136682 276.069694723 47.3063943137 276.069694723 c 0
 7.3589636909 276.069694723 -26.5613107164 277.675180458 -44.6258638845 281.344751039 c 0
 -45.1270235257 281.446554867 -45.8697089642 281.71743554 -45.8697089642 282.5863179 c 0
 -45.8697089642 290.112409604 2.01152300833 318.738655095 14.5793541286 318.738655095 c 0
 15.4944506942 318.738655095 33.9408040303 313.624353449 105.945984587 313.624353449 c 0
 140.962263682 313.624353449 204.79057716 315.150257518 254.394182118 319.63922753 c 0
 271.983845086 321.2310367 295.628770407 323.390022283 312.579354129 323.390022283 c 0
 342.693582695 323.390022283 369.93191515 319.209186907 370.630039536 318 c 0
 370.727988534 317.83034736 370.775958964 317.634357005 370.775958964 317.4136821 c 0
 370.775958964 309.887590396 322.894726992 281.261344905 310.326895871 281.261344905 c 0
 309.764967476 281.261344905 286.186241026 285.912712093 254.326895871 285.912712093 c 0
 231.15064229 285.912712093 199.787216888 281.980072902 172.49412947 280.239999724 c 0
 168.578319934 279.740922917 164.974395067 278.929161853 162.415234227 278.252776803 c 0
 127.908656165 249.112989805 97.7759589642 198.914896133 97.7759589642 161.4136821 c 0
 97.7759589642 84.6241154717 141.368959372 18.7386550945 190.579354129 18.7386550945 c 0
 223.940968461 18.7386550945 251.922538564 33.3350044924 254.350372358 34.7367149871 c 0
 258.283291889 37.0073871365 270.510413641 45.9555905962 275.278594407 51.284733805 c 0
 285.633920335 62.8583333719 323.188836617 83.7386550945 333.579354129 83.7386550945 c 0
 334.71677107 83.7386550945 335.775958964 83.4582345249 335.775958964 82.4136820999 c 0
 335.775958964 72.9816994492 221.074441086 -18.7386550945 132.326895871 -18.7386550945 c 0
 75.4552987378 -18.7386550945 35.1302910358 53.5331548274 35.1302910358 126.5863179 c 0x90
EndSplineSet
EndChar

StartChar: uni0075
Encoding: 117 117 27
Width: 381
GlyphClass: 2
Flags: HMW
HStem: -21.4639 42.9277<124.099 211.844> 303.677 20G<130.996 138.528>
VStem: 68.6173 66.3535<110.035 125.799> 89.2618 66.3535<239.822 292.377> 299.354 66.1855<34.1211 101.526> 307.967 66.3535<230.399 238.122>
AnchorPoint: "dot-over" 191 300 basechar 0
LayerCount: 2
Back
SplineSet
48 292 m 5
 55 296 65.9892578125 299.444335938 80 299.444335938 c 7
 112.717773438 299.444335938 74 174 73.611328125 93 c 28
 74 49 87.580078125 0 138 0 c 7
 236 0 270 46 296 83 c 1029
265 288 m 5
 283 298 287.977539062 300.444335938 295 300.444335938 c 7
 342 300.444335938 258.991210938 0 316 0 c 7
 337 0 365 18 365 18 c 1029
EndSplineSet
Fore
SplineSet
266.077068772 281.700526212 m 0xc0
 259.491801691 278.053617217 242.888896948 269.261344905 235.873770871 269.261344905 c 0
 234.73635393 269.261344905 233.677166036 269.541765475 233.677166036 270.5863179 c 0
 233.677166036 278.691263105 300.269964796 319.182991033 324.126229129 319.182991033 c 0
 332.745589263 319.182991033 341.488379533 313.50808144 341.488379533 273.770757152 c 0
 341.488379533 229.223234512 330.426274855 156.858282844 327.309051025 100.611007433 c 0
 327.318259076 100.547618572 327.322833525 100.481827107 327.322833525 100.413681719 c 0
 327.322833525 100.151202223 326.492272968 88.2654237314 326.492272968 74.1788759903 c 0
 326.492272968 46.2217778795 330.270276372 18.7386550945 345.126229129 18.7386550945 c 0
 354.27938725 18.7386550945 357.823158536 20.7846521609 362 23.1961524227 c 0
 376.205601172 31.3977600831 389.121102251 36.7386550945 394.126229129 36.7386550945 c 0
 395.26364607 36.7386550945 396.322833964 36.4582345249 396.322833964 35.4136820999 c 0
 396.322833964 26.6909660152 321.581604807 -18.7386550945 286.873770871 -18.7386550945 c 0
 275.952440464 -18.7386550945 264.724391942 -11.5060073587 263.803103512 33.2153999171 c 1
 196.492146005 -14.1249307202 144.345580589 -18.7386550945 108.873770871 -18.7386550945 c 0
 82.4789388719 -18.7386550945 66.5604083802 -6.55595278248 56.6508381582 10.6079263231 c 0
 46.1685155278 28.7638417003 42.4893067706 52.8464263761 42.2885530003 75.5729637452 c 0
 42.562394944 132.642175234 61.7481132455 211.366180051 61.7481132455 253.524452761 c 0
 61.7481132455 265.243080305 60.0160076455 280.705680843 50.8737708714 280.705680843 c 0
 44.8226970711 280.705680843 39.4035207895 279.847936765 36.4706819293 279.175132981 c 0
 28.5216465626 275.449391023 22.077356347 273.261344902 18.8737708957 273.261344902 c 0
 17.7363539318 273.261344902 16.6771660358 273.541765474 16.6771660358 274.5863179 c 0
 16.6771660358 280.970479122 58.3409419711 309.060372477 89.3292328102 315.993555546 c 0
 96.0794691233 317.503823549 102.359699673 318.182991033 109.126229129 318.182991033 c 0
 117.022836851 318.182991033 124.498990067 313.881830039 124.498990067 288.030936453 c 0
 124.498990067 246.506515408 105.207124443 167.325201645 104.93410325 110.427036255 c 0
 105.198951227 80.4446481441 112.392665447 18.7386550945 167.126229129 18.7386550945 c 0
 193.724891848 18.7386550945 214.566009239 22.0175040107 232.54015964 28.2193689864 c 1
 245.404209288 39.591393453 255.421893273 53.3154256619 264.596240471 66.331952728 c 1
 265.974357343 90.4698785257 268.81042045 117.406238494 271.559505299 143.840143725 c 0
 275.229055529 179.124810586 278.726841674 213.508499307 278.726841674 239.146301944 c 0
 278.726841674 258.507322958 276.492283972 281.179605219 266.077068772 281.700526212 c 0xc0
360.030868574 21.8840857292 m 1
 359.568790827 21.6338838523 l 1
 359.875773555 21.7898028774 360.030868574 21.8840857292 360.030868574 21.8840857292 c 1
EndSplineSet
Substitution2: "Hobbit-1" u.hobbit
EndChar

StartChar: uni0076
Encoding: 118 118 28
Width: 402
GlyphClass: 2
Flags: HMW
HStem: -21.4639 42.9277<126.1 210.922> 303.677 20G<132.996 140.529>
VStem: 70.6173 66.3535<110.035 125.799> 91.2628 66.3535<239.822 292.377> 330.14 66.3535<232.445 235.97>
LayerCount: 2
Back
SplineSet
50 292 m 5
 57 296 67.9892578125 299.444335938 82 299.444335938 c 7
 114.717773438 299.444335938 76 174 75.611328125 93 c 28
 76 49 89.580078125 0 140 0 c 7
 238 0 339 95.5361328125 339 216 c 7
 339 248.873046875 340 300 312 300 c 5
 304.977539062 300 303 299 285 289 c 1029
EndSplineSet
Fore
SplineSet
307.677166036 198.5863179 m 0xc8
 307.677166036 198.648634863 307.681088505 204.644501408 307.681088505 204.818012975 c 0
 307.681088505 231.164573219 307.681088505 280.337088748 283.452166904 281.25046195 c 1
 271.097671005 274.511200873 260.338500016 270.261345084 255.873770563 270.261345084 c 0
 254.736353629 270.261345084 253.677166036 270.541765641 253.677166036 271.5863179 c 0
 253.677166036 280.146110527 319.740444721 318.77223213 338.743470542 318.77223213 c 0
 339.560046893 318.77223213 340.312957367 318.738655095 341.126229129 318.738655095 c 0
 368.029925632 318.738655095 370.328003517 280.667716129 370.328003517 240.855166457 c 0
 370.328003517 240.711141075 370.322833964 233.488096961 370.322833964 233.4136821 c 0
 370.322833964 192.237776602 357.91427482 113.999530539 275.295646015 49.3770384308 c 0
 257.07523061 35.1254263219 183.414545152 -18.7386550945 110.873770871 -18.7386550945 c 0
 84.4789388719 -18.7386550945 68.5604083802 -6.55595278248 58.6508381582 10.6079263231 c 0
 48.1685155278 28.7638417003 44.4893067706 52.8464263761 44.2885530003 75.5729637452 c 0
 44.562394944 132.642175234 63.7481132455 211.366180051 63.7481132455 253.524452761 c 0
 63.7481132455 265.243080305 62.0160076455 280.705680843 52.8737708714 280.705680843 c 0
 46.8226972918 280.705680843 41.4035211021 279.847936575 38.4706820994 279.175133041 c 0
 30.5216469025 275.449390946 24.0773567422 273.261344765 20.8737711588 273.261344765 c 0
 19.736354215 273.261344765 18.6771660358 273.541765341 18.6771660358 274.5863179 c 0
 18.6771660358 280.970479122 60.3409419711 309.060372477 91.3292328102 315.993555546 c 0
 98.0794691233 317.503823549 104.359699673 318.182991033 111.126229129 318.182991033 c 0
 119.022836851 318.182991033 126.498990067 313.881830039 126.498990067 288.030936453 c 0
 126.498990067 246.506515408 107.207124443 167.325201645 106.93410325 110.427036255 c 0
 107.198951227 80.4446481441 114.392665447 18.7386550945 169.126229129 18.7386550945 c 0
 200.446985048 18.7386550945 225.067623867 30.148695121 225.067623867 30.148695121 c 1
 233.634513048 36.1653265593 265.361719774 60.7305261947 287.392075791 107.800439445 c 0
 300.129178751 135.014449553 307.677166036 165.835223839 307.677166036 198.5863179 c 0xc8
EndSplineSet
EndChar

StartChar: uni0077
Encoding: 119 119 29
Width: 636
GlyphClass: 2
Flags: HMW
HStem: -21.4639 42.9277<136.099 222.02> 303.677 20G<142.996 150.529 374.657 382.189>
VStem: 80.6164 66.3535<110.036 125.8> 101.262 66.3545<239.823 292.378> 312.277 66.3535<110.036 125.8> 332.922 66.3545<239.823 292.378> 571.8 66.3535<232.446 235.97>
LayerCount: 2
Back
SplineSet
50 292.555664062 m 1
 57 296.555664062 67.9892578125 300 82 300 c 3
 114.717773438 300 76 174.555664062 75.611328125 93.5556640625 c 24
 76 49.5556640625 89.580078125 0.5556640625 140 0.5556640625 c 3
 238 0.5556640625 279.611328125 56 305.611328125 93 c 1025
280 292 m 1
 287 296 297.989257812 299.444335938 312 299.444335938 c 3
 344.717773438 299.444335938 306 174 305.611328125 93 c 24
 306 49 319.580078125 0 370 0 c 3
 468 0 569 95.5361328125 569 216 c 3
 569 248.873046875 570 300 542 300 c 1
 534.977539062 300 533 299 515 289 c 1025
EndSplineSet
Fore
SplineSet
106.93410325 110.982700317 m 0xc2
 107.198951227 81.0003122066 114.392665447 19.294319157 169.126229129 19.294319157 c 0
 181.333664846 19.294319157 209.871346191 20.3859337922 233.058228312 29.5722852282 c 1
 248.20121165 42.0286466766 258.672131883 54.3103877794 274.294275384 76.4557905312 c 1
 274.758923138 133.446023039 293.748113246 211.585091435 293.748113246 253.524452761 c 0
 293.748113246 265.243080305 292.016007646 280.705680843 282.873770871 280.705680843 c 0
 276.822697292 280.705680843 271.403521102 279.847936575 268.470682099 279.175133041 c 0
 260.521646902 275.449390946 254.077356742 273.261344765 250.873771159 273.261344765 c 0
 249.736354215 273.261344765 248.677166036 273.541765341 248.677166036 274.5863179 c 0
 248.677166036 280.970479122 290.340941971 309.060372477 321.32923281 315.993555546 c 0
 328.079469123 317.503823549 334.359699673 318.182991033 341.126229129 318.182991033 c 0
 349.022836851 318.182991033 356.498990067 313.881830039 356.498990067 288.030936453 c 0
 356.498990067 246.506515407 337.207124443 167.325201646 336.93410325 110.427036255 c 0
 337.198951227 80.4446481441 344.392665447 18.7386550945 399.126229129 18.7386550945 c 0
 430.446985048 18.7386550945 455.067623867 30.148695121 455.067623867 30.148695121 c 1
 463.634513048 36.1653265593 495.361719774 60.7305261947 517.392075791 107.800439445 c 0
 530.129178751 135.014449553 537.677166036 165.835223839 537.677166036 198.5863179 c 0
 537.677166036 198.648634863 537.681088505 204.644501408 537.681088505 204.818012975 c 0
 537.681088505 231.164573219 537.681088505 280.337088748 513.452166904 281.25046195 c 1
 501.097671005 274.511200873 490.338500016 270.261345084 485.873770563 270.261345084 c 0
 484.736353629 270.261345084 483.677166036 270.541765641 483.677166036 271.5863179 c 0
 483.677166036 280.146110527 549.740444721 318.77223213 568.743470542 318.77223213 c 0
 569.560046893 318.77223213 570.312957367 318.738655095 571.126229129 318.738655095 c 0
 598.029925632 318.738655095 600.328003517 280.667716129 600.328003517 240.855166457 c 0
 600.328003517 240.711141075 600.322833964 233.488096961 600.322833964 233.4136821 c 0
 600.322833964 192.237776602 587.91427482 113.999530539 505.295646015 49.3770384308 c 0
 487.07523061 35.1254263219 413.414545152 -18.7386550945 340.873770871 -18.7386550945 c 0
 326.663143302 -18.7386550945 288.097844805 -16.2791892906 277.080716835 44.1493301218 c 1
 263.512045564 33.643543634 216.951696441 -0.0681781502522 163.10652244 -12.4686381664 c 0
 146.517222415 -16.289128219 129.62366864 -18.182991032 110.873770871 -18.182991032 c 0
 84.4789388719 -18.182991032 68.5604083802 -6.00028871998 58.6508381582 11.1635903856 c 0
 48.1685155278 29.3195057628 44.4893067706 53.4020904386 44.2885530003 76.1286278077 c 0
 44.562394944 133.197839297 63.7481132455 211.921844112 63.7481132455 254.080116823 c 0
 63.7481132455 265.798744367 62.0160076455 281.261344905 52.8737708714 281.261344905 c 0
 46.8226970711 281.261344905 41.4035207895 280.403600827 38.4706819293 279.730797043 c 0
 30.5216465626 276.005055085 24.077356347 273.817008964 20.8737708957 273.817008964 c 0
 19.7363539318 273.817008964 18.6771660358 274.097429536 18.6771660358 275.141981962 c 0
 18.6771660358 281.526143184 60.3409419711 309.616036539 91.3292328102 316.549219608 c 0
 98.0794691233 318.059487611 104.359699673 318.738655095 111.126229129 318.738655095 c 0
 119.022836851 318.738655095 126.498990067 314.437494101 126.498990067 288.586600515 c 0
 126.498990067 247.062179469 107.207124443 167.880865708 106.93410325 110.982700317 c 0xc2
EndSplineSet
EndChar

StartChar: uni0078
Encoding: 120 120 30
Width: 536
GlyphClass: 2
Flags: HMW
HStem: -181.317 42.9287<217.469 292.382> -21.4639 42.9277<692.054 767.842> 279.856 42.9277
VStem: 305.62 66.3535<237.509 269.749>
LayerCount: 2
Back
SplineSet
41 246 m 1
 28 269 69.0048828125 299.5 96 300 c 0
 150 301 214.41015625 223.974609375 270 161 c 0
 323 100.959960938 397.900390625 0 443 0 c 3
 459.037109375 0 482 15 499 25 c 1025
-101 -142 m 0
 -85.2900390625 -156.064453125 -72.0048828125 -162.454101562 -51 -162.454101562 c 3
 72 -162.454101562 180 26 270 161 c 0
 318.8046875 234.20703125 367 301 420 300 c 0
 438.997070312 299.641601562 459.142578125 290.063476562 474 270 c 1025
EndSplineSet
Fore
SplineSet
413.873770871 -18.7386550945 m 0
 376.04221452 -18.7386550945 327.209126141 38.9618298207 261.361849301 116.766038609 c 1
 171.416262458 -20.7797524623 115.301325859 -94.2602343742 26.0723259965 -145.776621465 c 0
 10.589018002 -154.715913503 -35.2702195638 -181.192756657 -80.1262291286 -181.192756657 c 0
 -102.575896663 -181.192756657 -116.175803389 -174.394776164 -131.963745422 -160.260509914 c 0
 -132.259713086 -159.995542779 -132.322833964 -159.667526671 -132.322833964 -159.4136821 c 0
 -132.322833964 -151.887590396 -84.4416019917 -123.261344905 -71.8737708714 -123.261344905 c 0
 -66.69210023 -123.261344905 -56.0046153497 -143.715446467 -21.8737708714 -143.715446467 c 0
 1.19638992021 -143.715446467 19.8743677148 -136.077228712 20.0723259965 -135.384316619 c 0
 84.0543886273 -90.2428411169 145.461149679 1.91127431418 209.346954117 99.7448077924 c 0
 219.145338545 114.749871585 228.764120488 129.480182872 238.205931591 143.668553098 c 1
 176.815494567 213.252380404 119.920455626 277.740837501 71.6828180602 281.138359573 c 0
 71.2878724586 280.26019481 69.8452674119 276.938550598 69.8452674119 272.775478362 c 0
 69.8452674119 267.17693074 72.3228339642 264.247852219 72.3228339642 263.4136821 c 0
 72.3228339642 255.891159799 24.458001749 227.265898718 11.8775759566 227.265898718 c 0
 10.8159648338 227.265898718 10.108660855 227.505439313 9.81845920277 228.00809823 c 0
 8.0313425692 231.169919966 7.18348339094 234.49793352 7.18348339094 237.946782802 c 0
 7.18348339094 268.663237208 74.7329007011 304.449339598 101.033229108 313.684142317 c 0
 112.842989312 317.830889231 119.908817346 318.748008027 126.140732403 318.748008027 c 0
 175.709264052 318.748008027 230.027003997 259.802624536 279.765811543 203.36065358 c 1
 315.576050356 251.054813689 341.991714473 273.368020611 377.577586543 293.91353343 c 0
 387.424873448 299.598867175 420.597534751 318.751112108 447.817895444 318.751112108 c 0
 485.68386454 318.751112108 505.322833964 287.829967859 505.322833964 287.4136821 c 0
 505.322833964 279.887590396 457.441601992 251.261344905 444.873770871 251.261344905 c 0
 443.88740056 251.261344905 443.20824837 251.468771216 442.886984277 251.902606552 c 0
 437.784557704 258.792928225 418.917453876 281.270313674 389.913545206 281.270313674 c 0
 386.90860825 281.270313674 383.957360309 280.971853705 381.441440803 280.577851321 c 0
 358.818881956 260.154593146 333.970440496 226.520852481 301.794974857 178.329631981 c 1
 311.435731039 167.381575155 321.778976405 155.122170926 332.521660324 142.389518984 c 0
 377.93597518 88.5626850274 436.847307072 18.7386550945 472.126229129 18.7386550945 c 0
 476.155032621 18.7386551642 476.155032621 18.7386551642 496 30.1961524227 c 0
 510.205601172 38.3977600831 523.121102251 43.7386550945 528.126229129 43.7386550945 c 0
 529.26364607 43.7386550945 530.322833964 43.4582345249 530.322833964 42.4136820999 c 0
 530.322833964 33.9474918763 468.075505122 -1.62505712155 440.668452175 -12.2645860173 c 0
 428.593460042 -16.9521468424 420.194347733 -18.7386550945 413.873770871 -18.7386550945 c 0
EndSplineSet
EndChar

StartChar: uni0079
Encoding: 121 121 31
Width: 387
GlyphClass: 2
Flags: HMW
HStem: -356.804 21G -21.4641 42.9282 303.677 20G
VStem: 67.6202 66.3538 88.2654 66.3538 286.333 66.3538 307.081 66.3538
AnchorPoint: "dot-over" 191 300 basechar 0
LayerCount: 2
Back
SplineSet
49 292 m 1
 56 296 66.9892578125 299.444335938 81 299.444335938 c 3
 113.717773438 299.444335938 75 174 74.611328125 93 c 24
 75 49 88.580078125 0 139 0 c 3
 237 0 271 46 297 83 c 1025
266 288 m 1
 284 298 288.977539062 300.444335938 296 300.444335938 c 3
 327.086914062 300.444335938 305.184570312 168.754882812 297.21484375 80 c 0
 292.249023438 24.7080078125 283 -207 294 -335 c 1033
EndSplineSet
Fore
SplineSet
267.077143027 281.700567334 m 0xe0
 260.491701939 278.05356274 243.888883244 269.261344905 236.873770871 269.261344905 c 0
 235.73635393 269.261344905 234.677166036 269.541765475 234.677166036 270.5863179 c 0
 234.677166036 278.691263105 301.269964796 319.182991033 325.126229129 319.182991033 c 0
 333.634403593 319.182991033 343.546814402 313.790395919 343.546814402 268.262962542 c 0
 343.546814402 236.294955013 338.745312153 193.381938383 334.219364057 152.177854367 c 0
 332.123760682 133.099549515 330.067176116 114.375055024 328.530887584 97.2661733622 c 0
 325.275270705 61.0164640045 320.16529153 -51.551011795 320.16529153 -160.742801927 c 0
 320.16529153 -269.993223732 325.322833964 -315.103470667 325.322833964 -317.5863179 c 0
 325.322833964 -325.112409604 277.441601992 -353.738655095 264.873770871 -353.738655095 c 0
 264.076183667 -353.738655095 262.774464861 -353.608376948 262.682294734 -352.535851824 c 0
 258.904401286 -308.574909894 257.510440868 -252.446262545 257.510440868 -195.429837735 c 0
 257.510440868 -107.973796841 260.790110551 -18.4290188598 263.776781809 32.4968660176 c 1
 198.420709594 -13.0515930439 147.906043609 -18.7386550945 109.873770871 -18.7386550945 c 0
 83.4789388719 -18.7386550945 67.5604083802 -6.55595278248 57.6508381582 10.6079263231 c 0
 47.1685155278 28.7638417003 43.4893067706 52.8464263761 43.2885530003 75.5729637452 c 0
 43.562394944 132.642175234 62.7481132455 211.366180051 62.7481132455 253.524452761 c 0
 62.7481132455 265.243080305 61.0160076455 280.705680843 51.8737708714 280.705680843 c 0
 45.8226970711 280.705680843 40.4035207895 279.847936765 37.4706819293 279.175132981 c 0
 29.5216465626 275.449391023 23.077356347 273.261344902 19.8737708957 273.261344902 c 0
 18.7363539318 273.261344902 17.6771660358 273.541765474 17.6771660358 274.5863179 c 0
 17.6771660358 280.970479122 59.3409419711 309.060372477 90.3292328102 315.993555546 c 0
 97.0794691233 317.503823549 103.359699673 318.182991033 110.126229129 318.182991033 c 0
 118.022836851 318.182991033 125.498990067 313.881830039 125.498990067 288.030936453 c 0
 125.498990067 246.506515408 106.207124443 167.325201645 105.93410325 110.427036255 c 0
 106.198951227 80.4446481441 113.392665447 18.7386550945 168.126229129 18.7386550945 c 0
 194.724891848 18.7386550945 215.566009239 22.0175040107 233.54015964 28.2193689864 c 1
 245.680766766 38.9518587588 255.057883917 51.3458673411 266.323352601 67.364764426 c 1
 267.807492906 83.2421980005 269.685853008 100.341552949 271.594483342 117.717660769 c 0
 276.147416749 159.167418183 280.778382451 202.133175152 280.778382451 233.726846103 c 0
 280.778382451 254.096944324 278.599164911 281.129076669 267.077143027 281.700567334 c 0xe0
EndSplineSet
Substitution2: "Hobbit-1" y.hobbit
EndChar

StartChar: uni007A
Encoding: 122 122 32
Width: 395
GlyphClass: 2
Flags: HMW
HStem: -19.6572 42.9287<243.862 314.131> 273.721 42.9287<124.885 257.957>
VStem: 337.735 66.3535<77.916 127.548>
LayerCount: 2
Back
SplineSet
279 177 m 1
 318 184 341 157.016601562 341 127 c 3
 341 67.0751953125 331.05078125 33 300 15 c 0
 287.546875 7.78125 270.412109375 0 260 0 c 3
 228 0 208 14 192 40 c 1025
39 300 m 0
 45 287 276 292 314 300 c 1
 247.21484375 171.40234375 156 48 72 0 c 1033
EndSplineSet
Fore
SplineSet
113.315947403 273.27752712 m 0
 82.5072447314 273.27752712 7.67716603581 273.497444243 7.67716603581 282.5863179 c 0
 7.67716603581 290.112409604 55.5583980083 318.738655095 68.1262291286 318.738655095 c 0
 69.1837286128 318.738655095 69.8881041463 318.500234269 70.2415754778 317.875470706 c 0
 72.6567791124 313.6922153 117.580173296 310.755118379 172.454110919 310.755118379 c 0
 174.135686517 310.755118379 309.201145572 311.826397283 340.437688424 318.402511567 c 0
 341.489792433 318.624007148 342.392913045 318.738655095 343.126229129 318.738655095 c 0
 344.26364607 318.738655095 345.322833964 318.458234525 345.322833964 317.4136821 c 0
 345.322833964 316.85124648 308.796891892 243.354698224 254.243719002 167.453880982 c 1
 267.861908077 178.896893873 294.903118752 193.521641747 306.059193819 195.524014195 c 0
 311.22765514 196.45168674 316.054533542 196.885677296 320.55455639 196.885677296 c 0
 356.08732648 196.885677296 372.322833964 169.328863349 372.322833964 144.4136821 c 0
 372.322833964 65.1553117464 356.007039149 40.4071830792 302.747547736 9.65780137517 c 0
 273.573796476 -7.18567176801 244.103698585 -18.7386550945 230.873770871 -18.7386550945 c 0
 197.046536207 -18.7386550945 176.910846737 -4.14337765924 160.823085464 22 c 0
 160.725136466 22.1696526404 160.677166036 22.365642995 160.677166036 22.5863179001 c 0
 160.677166036 30.1124096045 208.558398008 58.7386550945 221.126229129 58.7386550945 c 0
 222.166264686 58.7386550945 222.864743219 58.5080439806 223.162266258 58.0245690429 c 0
 239.089153263 32.1433776592 258.953463793 18.7386550945 289.126229129 18.7386550945 c 0
 289.66164225 18.7386550945 290.191224381 18.7652985531 290.70959244 18.8126269187 c 0
 302.558386204 34.5731613772 309.677166036 59.9758756654 309.677166036 109.5863179 c 0
 309.677166036 137.967612775 289.405877109 159.356029 261.67501417 159.356029 c 0
 255.202348764 159.356029 251.813867739 158.261344906 249.873770875 158.261344906 c 0
 248.958762382 158.261344906 248.308126886 158.439843216 247.962313223 158.811993364 c 1
 173.037383488 56.8905922167 114.040833504 17.110385778 74.1522817941 -5.68307234199 c 0
 60.282756027 -13.6085156375 47.7791508725 -18.7386550945 42.8737708714 -18.7386550945 c 0
 41.7363539296 -18.7386550945 40.6771660358 -18.4582345249 40.6771660358 -17.4136820999 c 0
 40.6771660358 -13.9094035464 52.8928074805 -4.01081047043 69.8812007512 5.70230669989 c 0
 70.9197028397 6.30188616027 105.187871298 27.2426137059 156.317653735 88.8200591222 c 0
 201.174589373 142.842888364 244.86115947 210.841149869 281.295198148 280.487335087 c 1
 249.909409249 275.716704103 175.198315826 273.27752712 113.315947403 273.27752712 c 0
EndSplineSet
EndChar

StartChar: uni00FE
Encoding: 254 254 33
Width: 370
GlyphClass: 2
Flags: HMW
HStem: -356.804 21G 279.052 42.9282 648.654 20G
VStem: 88.774 62.6707 317.116 66.3538
LayerCount: 2
Back
SplineSet
77 234.422158475 m 5
 163.656369077 283.74873007 200.202549574 300 253 300 c 7
 285 300 306 264.036132812 306 209 c 7
 306 98.1198635776 147.146411892 23.8335917169 64.6563805746 -22.3744777017 c 1029
38 -335 m 5
 47 -259 68.5 28.9939033456 69 70 c 4
 69.7098927286 128.219859684 82 423 92 649 c 5
 61 630 l 5
 89 570 77 282 69 70 c 1028
  Spiro
    38 -335 {
    49.8014 -205.5 o
    62.5293 -36.1787 o
    69 70 v
    72.7339 195.586 o
    81.6028 411.622 o
    92 649 v
    61 630 v
    77.2901 505.437 o
    76.6979 295.845 o
    69 70 v
    0 0 z
  EndSpiro
EndSplineSet
Fore
SplineSet
8.87377087137 -353.738655095 m 0
 7.73635392963 -353.738655095 6.67716603581 -353.458234525 6.67716603581 -352.4136821 c 0
 6.67716603581 -352.349295875 6.68124973406 -352.282808267 6.68936725207 -352.214260337 c 0
 15.6722823791 -276.358532598 37.1795987389 11.7890784169 37.6772807571 52.6050723059 c 0
 38.6383160491 131.421684369 47.1595068624 256.83146679 47.1595068624 406.206945701 c 0
 47.1595068624 504.551583027 42.8985522592 583.972021525 29.7820544643 612.078802515 c 0
 29.7117196304 612.229520016 29.6771660358 612.39902869 29.6771660358 612.5863179 c 0
 29.6771660358 615.735886872 39.4488624129 623.91376039 53.1539358147 632.313644088 c 0
 86.5343812385 652.772626767 86.5343812385 652.772626767 89 654.196152423 c 0
 103.205601172 662.397760083 116.121102251 667.738655095 121.126229129 667.738655095 c 0
 123.29071071 667.738655095 123.323400994 666.73961206 123.321268575 666.343781059 c 0
 116.225171688 505.971999739 109.047029662 339.860368678 106.467253502 257.817369722 c 1
 198.379492818 308.282499443 236.92494037 318.738655095 282.126229129 318.738655095 c 0
 300.208183543 318.738655095 313.494825519 309.043632765 322.828276286 292.877621826 c 0
 332.107004465 276.806393192 337.322833964 253.969862783 337.322833964 226.4136821 c 0
 337.322833964 128.91419743 214.765643284 52.543117764 94.4876657578 -12.9209548965 c 1
 87.3412522252 -116.358096726 75.4419070908 -266.010534101 69.3106327479 -317.785739663 c 0
 68.3703794753 -325.725656188 21.2738743028 -353.738655095 8.87377087137 -353.738655095 c 0
274.677166036 191.5863179 m 0
 274.677166036 218.765364851 269.507497302 241.231920126 260.474447214 256.877621826 c 0
 251.294782874 272.777266858 237.966773621 281.261344905 223.873770871 281.261344905 c 0
 177.039759997 281.261344905 148.206376192 267.177208407 106.019800504 243.85173781 c 1
 102.044929014 121.977968789 99.7365674993 64.5814207502 95.4685053692 1.42804413982 c 1
 152.203580887 32.3102452056 214.355426789 66.1409184575 250.081758829 118.182481367 c 0
 265.048555343 139.984201215 274.677166036 164.578221633 274.677166036 191.5863179 c 0
EndSplineSet
EndChar

StartChar: uni0131
Encoding: 305 305 34
Width: 161
GlyphClass: 2
Flags: HMW
HStem: -20.6535 42.9282 302.784 20G
VStem: -11.4386 66.3538 0.684872 66.3538
AnchorPoint: "dot-over" 72.1768 300 basechar 0
LayerCount: 2
Back
SplineSet
25.7255859375 283 m 5
 43.7255859375 293 57.509765625 299.444335938 72.7255859375 299.444335938 c 7
 119.725585938 299.444335938 36.716796875 -1 93.7255859375 -1 c 7
 114.725585938 -1 142.725585938 17 142.725585938 17 c 1029
EndSplineSet
Fore
SplineSet
41.939453125 41.2900390625 m 0xc0
 41.939453125 99.2861328125 56.9306640625 188.069335938 56.9306640625 240.919921875 c 0
 56.9306640625 255.3671875 55.810546875 267.12890625 52.9580078125 274.84375 c 0
 51.01171875 276.890625 48.6533203125 277.98046875 45.8232421875 277.98046875 c 0
 30.607421875 277.98046875 16.8232421875 271.536132812 -1.1767578125 261.536132812 c 1
 -5.1767578125 268.463867188 l 1
 57.1767578125 304.463867188 l 2
 75.1767578125 314.463867188 88.9609375 320.908203125 104.176757812 320.908203125 c 0
 109.962890625 320.908203125 111.362304688 318.484375 117.48828125 307.874023438 c 0
 121.697265625 300.584960938 123.284179688 287.19140625 123.284179688 269.9921875 c 0
 123.284179688 217.141601562 108.29296875 128.358398438 108.29296875 70.361328125 c 0
 108.29296875 51.5498046875 109.870117188 35.9775390625 114.047851562 25.9208984375 c 0
 116.954101562 22.3857421875 120.618164062 20.4638671875 125.176757812 20.4638671875 c 0
 131.315429688 20.4638671875 143 20.4638671875 174.176757812 38.4638671875 c 1
 178.176757812 31.5361328125 l 1
 176.666015625 30.564453125 176.666015625 30.564453125 111.729492188 -6.9267578125 c 0
 103.193359375 -11.85546875 82.9453125 -22.4638671875 66.8232421875 -22.4638671875 c 0
 58.5068359375 -22.4638671875 56.0048828125 -18.1298828125 49.5595703125 -6.966796875 c 0
 43.978515625 2.7001953125 41.939453125 19.9013671875 41.939453125 41.2900390625 c 0xc0
EndSplineSet
Validated: 1
EndChar

StartChar: uni017F
Encoding: 383 383 35
Width: 215
GlyphClass: 2
Flags: HMW
HStem: 521.611 42.9282
VStem: 118.306 66.1949
LayerCount: 2
Back
SplineSet
27 296 m 1
 81 300.547368421 l 1025
275 479 m 1
 262 500 214 542.875 165 542.875 c 3
 128 542.875 82 538.173828125 82 466 c 3
 82 222.331054688 86 -100 39 -162 c 1025
EndSplineSet
Fore
SplineSet
50.7616790639 338.396700102 m 0
 50.7616790639 341.795649872 50.6771660358 447.484421398 50.6771660358 448.5863179 c 0
 50.6771660358 497.870709298 70.8423278938 516.090864126 108.51746352 537.842613821 c 0
 140.53182132 556.326111915 159.203041147 561.613655095 194.126229129 561.613655095 c 0
 245.369155395 561.613655095 293.042017941 518.21882314 306.176914536 497 c 0
 306.274863534 496.83034736 306.322833964 496.634357005 306.322833964 496.4136821 c 0
 306.322833964 488.887590396 258.441601992 460.261344905 245.873770871 460.261344905 c 0
 244.835387419 460.261344905 244.13747672 460.491223946 243.83915463 460.97312886 c 0
 230.957982059 481.78117686 182.630844605 524.136344905 135.873770871 524.136344905 c 0
 130.761424723 524.136344905 125.501899388 524.033167755 120.416062066 523.696320696 c 0
 118.640256586 519.799891555 113.322833964 507.657704636 113.322833964 483.4136821 c 0
 113.322833964 482.310021336 113.407577426 376.424647239 113.407577426 373.047638237 c 0
 113.407577426 114.708481759 108.418517464 -95.3033980592 69.1037481653 -147.165434156 c 0
 60.8638464945 -158.035091679 20.7891263815 -180.738655095 9.87377087137 -180.738655095 c 0
 8.73635392963 -180.738655095 7.67716603581 -180.458234525 7.67716603581 -179.4136821 c 0
 7.67716603581 -177.494861718 19.1670029157 -167.288291599 28.7697752428 -120.751647675 c 0
 44.7597337417 -43.261629203 50.0431680097 90.1843146438 50.677807888 281.679320682 c 1
 25.4784958524 279.557273353 -1.59634377922 277.261344905 -2.12622912863 277.261344905 c 0
 -3.26364607037 277.261344905 -4.32283396419 277.541765475 -4.32283396419 278.5863179 c 0
 -4.32283396419 284.924984012 31.8438683548 308.02031701 50.7479378245 313.70319604 c 1
 50.7576783864 321.95654531 50.7616790639 330.191296743 50.7616790639 338.396700102 c 0
EndSplineSet
EndChar

StartChar: uni01BF
Encoding: 447 447 36
Width: 373
GlyphClass: 2
Flags: HMW
HStem: -356.804 21G 279.052 42.9282
VStem: 41.5098 66.0305 53.0306 66.3538 284.02 66.3538
LayerCount: 2
Back
SplineSet
57 300 m 0
 90 249 72 233 66 0 c 9
 66 0 55 -334 55 -335 c 1024
78.34375 234.422851562 m 1
 165 283.749023438 201.545898438 300 254.34375 300 c 3
 286.34375 300 307.34375 264.036132812 307.34375 209 c 3
 307.34375 98.1201171875 148.490234375 23.833984375 66 -22.3740234375 c 1025
EndSplineSet
Fore
SplineSet
25.8737708714 -353.738655095 m 0xc8
 25.1518428696 -353.738655095 23.6763310411 -353.638841495 23.6763310411 -352.413654682 c 2
 34.6780171934 -17.3623036808 l 2
 36.603216868 57.3996170193 39.7638270947 109.829525725 42.0786362554 148.231651278 c 0
 43.7604296905 176.132198652 44.9932607198 196.57543824 44.9932607198 212.779975104 c 0
 44.9932607198 243.906949803 40.4411383814 259.388827714 25.8230854638 282 c 0
 25.7251364661 282.16965264 25.6771660358 282.365642995 25.6771660358 282.5863179 c 0
 25.6771660358 290.112409604 73.5583980083 318.738655095 86.1262291286 318.738655095 c 0
 87.7539269668 318.738655095 88.0440220252 318.738655095 93.0736933305 310.027008848 c 0
 102.652175047 293.436591856 106.58359963 279.305010235 107.438905111 257.613591601 c 1
 199.565366072 308.224382182 238.170317385 318.738655095 283.469979129 318.738655095 c 0
 301.551933543 318.738655095 314.838575519 309.043632765 324.172026286 292.877621826 c 0
 333.450754465 276.806393192 338.666583964 253.969862783 338.666583964 226.4136821 c 0
 338.666583964 129.249908849 216.996701444 53.0355773634 96.3366375163 -12.6454904415 c 1
 93.6370887732 -94.8586584351 86.3219828066 -317.637696319 86.3219828066 -317.637696319 c 2
 86.0712246778 -325.274421152 38.3978425146 -353.738655095 25.8737708714 -353.738655095 c 0xc8
276.020916036 191.5863179 m 0
 276.020916036 218.765364851 270.851247302 241.231920126 261.818197214 256.877621826 c 0
 252.638532874 272.777266858 239.310523621 281.261344905 225.217520871 281.261344905 c 0
 178.436361854 281.261344905 149.616848105 267.204104758 107.607410616 243.987121646 c 1
 107.09508915 192.014391942 101.02534807 161.176321414 97.3219828066 17.3623036808 c 1
 97.3219828066 17.3623036808 97.1307163611 11.5376501934 96.7985265144 1.42104287448 c 1
 153.549912563 32.3119222995 215.699217745 66.1409937352 251.425736989 118.182969428 c 0
 266.392402759 139.984557511 276.020916036 164.578414493 276.020916036 191.5863179 c 0
EndSplineSet
EndChar

StartChar: uni0237
Encoding: 567 567 37
Width: 161
GlyphClass: 2
Flags: HMW
HStem: 302.784 20G
VStem: 58.3039 66.3538
AnchorPoint: "dot-over" 73.1768 300 basechar 0
LayerCount: 2
Back
SplineSet
29 283 m 1
 47 293 60.7841796875 299.444335938 76 299.444335938 c 3
 94.9638671875 299.444335938 89 210 88.9609375 148 c 0
 88.8330078125 -57.2421875 41.65234375 -132.384765625 -18 -164 c 1024
EndSplineSet
Fore
SplineSet
58.5295453436 207.073089235 m 0
 58.5295453436 225.158063302 58.5295453436 279.010396236 46.8737708714 280.705680843 c 1
 37.2844946887 280.705680843 33.5425841282 278.626841643 28.8819100604 276.037578272 c 0
 15.9330890132 268.843788802 4.50991201107 264.261344905 -0.126229128628 264.261344905 c 0
 -1.26364607037 264.261344905 -2.32283396419 264.541765475 -2.32283396419 265.5863179 c 0
 -2.32283396419 274.138093944 50.8677573877 303.706911826 77.8861754115 312.960824425 c 0
 89.5256164711 316.947377974 97.4652522356 318.182991033 105.126229129 318.182991033 c 0
 115.379830088 318.182991033 121.231831031 304.421006241 121.231831031 244.08857789 c 0
 121.231831031 231.191571796 120.291090208 177.029512507 120.283771168 165.412732479 c 0
 120.133672546 -75.3958727079 57.0846926297 -131.151827438 -21.7174648563 -172.916300073 c 0
 -33.1502912367 -178.975600729 -42.9249811455 -182.738655095 -47.1262291286 -182.738655095 c 0
 -48.2636460704 -182.738655095 -49.3228339642 -182.458234525 -49.3228339642 -181.4136821 c 0
 -49.3228339642 -177.672626759 -35.6249063186 -166.953282959 -18.3587903761 -157.303308674 c 0
 -6.62518882432 -147.812025716 16.9012801375 -123.204130436 33.9846216616 -69.0432078605 c 0
 48.7116612314 -22.3526907396 57.582851666 41.9442355069 57.6381038318 130.587267521 c 0
 57.6432871383 138.814211608 58.5295453436 196.16567959 58.5295453436 207.073089235 c 0
EndSplineSet
EndChar

StartChar: uni25CC
Encoding: 775 775 38
Width: 300
GlyphClass: 4
Flags: HMW
HStem: 351.346 89.9077
VStem: 54.6844 100.374
AnchorPoint: "dot-over" 106 300 mark 0
LayerCount: 2
Back
SplineSet
90 421 m 29
 123 373 l 1053
EndSplineSet
Fore
SplineSet
91.8659670323 354.932054162 m 0
 76.7138953876 376.971431228 58.6771660358 402.997358318 58.6771660358 403.5863179 c 0
 58.6771660358 411.112409604 106.558398008 439.738655095 119.126229129 439.738655095 c 0
 120.134659221 439.738655095 120.821975905 439.52184702 121.134032968 439.067945838 c 0
 137.766021193 414.875962964 154.322833964 391.002641682 154.322833964 390.4136821 c 0
 154.322833964 382.887590396 106.441601992 354.261344905 93.8737708714 354.261344905 c 0
 92.8653407793 354.261344905 92.1780240953 354.47815298 91.8659670323 354.932054162 c 0
EndSplineSet
EndChar

StartChar: uni0323
Encoding: 803 803 39
Width: 213
GlyphClass: 4
Flags: HMW
HStem: -124.654 89.9077
VStem: 57.1141 100.374
AnchorPoint: "dot-under" 106 0 mark 0
LayerCount: 2
Back
SplineSet
90 -56 m 25
 123 -104 l 1049
EndSplineSet
Fore
SplineSet
91.8659670323 -122.067945838 m 0
 76.7138953876 -100.028568772 58.6771660358 -74.0026416819 58.6771660358 -73.4136820999 c 0
 58.6771660358 -65.8875903955 106.558398008 -37.2613449055 119.126229129 -37.2613449055 c 0
 120.134659221 -37.2613449055 120.821975905 -37.4781529799 121.134032968 -37.9320541623 c 0
 137.766021193 -62.1240370357 154.322833964 -85.9973583181 154.322833964 -86.5863179001 c 0
 154.322833964 -94.1124096045 106.441601992 -122.738655095 93.8737708714 -122.738655095 c 0
 92.8653407793 -122.738655095 92.1780240953 -122.52184702 91.8659670323 -122.067945838 c 0
EndSplineSet
EndChar

StartChar: runeFeoh
Encoding: 5792 5792 40
Width: 454
GlyphClass: 2
Flags: HMW
VStem: 59.9735 65.2696 195.501 66.3538 331.455 66.3538
LayerCount: 2
Back
SplineSet
361 478 m 5
 400 428 294 358 94 243 c 1037
225 523 m 1
 255 484 162 430 91 389 c 1033
89 542.875 m 8
 89 542 93 0 89 0 c 1024
EndSplineSet
Fore
SplineSet
59.4545988114 123.093037826 m 0
 59.4545988114 287.177481808 57.6771660358 521.437595841 57.6771660358 525.4613179 c 0
 57.6771660358 532.987409604 105.558398008 561.613655095 118.126229129 561.613655095 c 0
 120.31324373 561.613655095 120.31505626 561.357989106 120.339369632 557.928471366 c 0
 120.426022113 545.705723486 120.838279669 487.579121587 121.242185849 413.669854957 c 1
 153.618391833 433.08307186 199.439862612 461.489737131 199.439862612 489.425340704 c 0
 199.439862612 499.25492155 193.677166036 504.443938467 193.677166036 505.5863179 c 0
 193.677166036 513.112409604 241.558398008 541.738655095 254.126229129 541.738655095 c 0
 257.563332536 541.738655095 262.128393438 532.298780672 262.128393438 524.181208987 c 0
 262.128393438 490.922655283 199.935726224 445.873201382 121.317587372 399.662843453 c 1
 121.540092637 357.684069471 121.753638495 311.436506555 121.901412763 266.04434498 c 1
 256.521437252 344.174797538 337.648819998 396.133734076 337.648819998 438.742773078 c 0
 337.648819998 451.972492764 329.677166036 459.331773818 329.677166036 460.5863179 c 0
 329.677166036 468.112409604 377.558398008 496.738655095 390.126229129 496.738655095 c 0
 393.401594865 496.738655095 400.343091661 485.286016721 400.343091661 473.500650933 c 0
 400.343091661 425.901879852 303.079003931 357.222279063 121.944473748 252.201511931 c 1
 122.041558357 219.425716054 122.100956834 187.375359046 122.100956834 158.008784734 c 0
 122.100956834 63.414692559 121.511242312 21.5875606218 120.422465782 17.2542906649 c 0
 120.46327063 17.0156231205 120.665016057 17.0452223527 120.665016057 16.8993272493 c 0
 120.665016057 16.5376475123 116.796162692 9.11259076064 92.025295486 -5.18887608903 c 0
 90.3825059056 -6.13734109551 68.3963233244 -18.7386550945 59.8737708714 -18.7386550945 c 0
 58.7363539402 -18.7386550945 57.6771660131 -18.4582345209 57.6771660131 -17.413682062 c 0
 57.6771660131 -12.2290805191 59.4545988114 -36.9230348745 59.4545988114 123.093037826 c 0
EndSplineSet
EndChar

StartChar: runeUr
Encoding: 5794 5794 41
Width: 503
GlyphClass: 2
Flags: HMW
VStem: 59.9735 66.3538 379.935 66.3538
LayerCount: 2
Back
SplineSet
90 0 m 4
 91 18 89.259663873 543.341398348 90 542.875 c 4
 366 369 346 352 416 0 c 1037
EndSplineSet
Fore
SplineSet
121.145815722 484.735881061 m 1
 121.148753842 480.895117847 121.644321342 156.342203549 121.644321342 100.659770819 c 0
 121.644321342 53.8555937228 121.559545955 21.6308761963 121.320334769 17.3250748436 c 0
 120.891699517 9.60964030804 73.3657996676 -18.7386550945 60.8737708714 -18.7386550945 c 0
 58.6767140341 -18.7386550945 58.6765551151 -17.7099600981 58.6796652309 -17.3250748436 c 0
 58.9106982966 -13.1664796603 58.9931843933 19.1703162887 58.9931843933 66.1644696693 c 0
 58.9931843933 95.4433788334 58.487924149 473.96979057 58.487924149 478.089039365 c 0
 58.487924149 524.187751453 58.6149757409 525.242297844 58.6902408287 525.712552197 c 1
 58.6902408287 525.712552197 57.8123223759 524.900623838 57.5792139091 524.941823845 c 0
 57.5792139091 525.133851363 58.2005221113 526.044085588 60.3723794551 528.639305214 c 0
 61.9020593647 530.467167129 57.5895485426 531.092157475 86.998121141 548.071204781 c 0
 97.4833020281 554.124826789 112.077889223 561.68480373 119.565335581 561.68480373 c 0
 120.668453272 561.68480373 120.641377192 561.359299154 120.790891521 561.265107835 c 0
 373.044018886 402.350207398 378.49183937 374.058648666 430.723373254 102.752968933 c 0
 447.322833964 16.530573448 447.322833964 18.041586793 447.322833964 17.4136820999 c 0
 447.322833964 9.88759039554 399.441601992 -18.7386550945 386.873770871 -18.7386550945 c 0
 386.062043107 -18.7386550945 384.886204044 -18.60136903 384.701640238 -17.6732767489 c 0
 378.571712588 13.1515022942 373.132090313 41.4064974955 368.123870792 67.420636858 c 0
 320.630449799 314.115189116 311.938598819 359.145828087 121.145815722 484.735881061 c 1
EndSplineSet
EndChar

StartChar: runeYr
Encoding: 5795 5795 42
Width: 503
GlyphClass: 2
Flags: HMW
VStem: 59.9735 65.4942 211.443 66.3538 379.935 66.3538
LayerCount: 2
Back
SplineSet
241 206 m 5
 247 0 l 1029
94 242 m 5
 379 174 l 1029
90 0 m 0
 91 18 89.259663873 543.341398348 90 542.875 c 0
 366 369 346 352 416 0 c 1033
EndSplineSet
Fore
SplineSet
217.873770871 -18.7386550945 m 0
 217.0806102 -18.7386550945 215.711408041 -18.6111522879 215.67779183 -17.4569956818 c 2
 215.67779183 -17.4569956818 209.67779183 188.543004318 209.677303005 188.565968884 c 2
 121.55214887 209.59232145 l 1
 121.606744939 169.44348445 121.644321342 131.820479588 121.644321342 100.659770819 c 0
 121.644321342 53.8555937228 121.559545955 21.6308761963 121.320334769 17.3250748436 c 0
 120.891699517 9.60964030804 73.3657996676 -18.7386550945 60.8737708714 -18.7386550945 c 0
 58.6767140341 -18.7386550945 58.6765551151 -17.7099600981 58.6796652309 -17.3250748436 c 0
 58.9106982966 -13.1664796603 58.9931843933 19.1703162887 58.9931843933 66.1644696693 c 0
 58.9931843933 95.4433788334 58.487924149 473.96979057 58.487924149 478.089039365 c 0
 58.487924149 524.187751453 58.6149757409 525.242297844 58.6902408287 525.712552197 c 1
 58.6902408287 525.712552197 57.8123223759 524.900623838 57.5792139091 524.941823845 c 0
 57.5792139091 525.133851363 58.2005221113 526.044085588 60.3723794551 528.639305214 c 0
 61.9020593647 530.467167129 57.5895485426 531.092157475 86.998121141 548.071204781 c 0
 97.4833020281 554.124826789 112.077889223 561.68480373 119.565335581 561.68480373 c 0
 120.668453272 561.68480373 120.641377192 561.359299154 120.790891521 561.265107835 c 0
 373.044018886 402.350207398 378.49183937 374.058648666 430.723373254 102.752968933 c 0
 447.322833964 16.530573448 447.322833964 18.041586793 447.322833964 17.4136820999 c 0
 447.322833964 9.88759039554 399.441601992 -18.7386550945 386.873770871 -18.7386550945 c 0
 386.062043107 -18.7386550945 384.886204044 -18.60136903 384.701640238 -17.6732767489 c 0
 384.357825808 -15.9443813276 355.495701818 132.72848312 350.814854196 155.313899469 c 0
 350.475820807 155.279020492 350.161706225 155.261344905 349.873770871 155.261344905 c 0
 349.262859386 155.261344905 349.262859386 155.261344905 273.783955231 173.270346598 c 1
 273.783955231 173.270346598 278.32220817 17.4569956818 278.322833964 17.4136820999 c 0
 278.322833964 9.88759039554 230.441601992 -18.7386550945 217.873770871 -18.7386550945 c 0
123.126229129 260.738655095 m 0
 123.737140614 260.738655095 123.737140614 260.738655095 338.729473497 209.442238828 c 1
 306.948619415 339.088050284 268.043321477 388.04005625 121.145815722 484.735881061 c 1
 121.165272027 459.302253944 121.165272027 459.302253944 121.476863917 260.593953028 c 1
 122.095292534 260.68969547 122.647017765 260.738655095 123.126229129 260.738655095 c 0
EndSplineSet
EndChar

StartChar: runeThorn
Encoding: 5798 5798 43
Width: 391
GlyphClass: 2
Flags: HMW
VStem: 57.5428 66.5622
LayerCount: 2
Back
SplineSet
92 416 m 5
 301 273 l 5
 93 123 l 1029
89 542.875 m 12
 89 542 93 0 89 0 c 1028
EndSplineSet
Fore
SplineSet
59.4545988114 123.093037826 m 0
 59.4545988114 287.177481808 57.6771660358 521.437595841 57.6771660358 525.4613179 c 0
 57.6771660358 532.987409604 105.558398008 561.613655095 118.126229129 561.613655095 c 0
 120.31324373 561.613655095 120.31505626 561.357989106 120.339369632 557.928471366 c 0
 120.417602827 546.893304271 120.761242356 498.441110812 121.124523212 434.738654888 c 0
 121.884791829 434.738654888 122.462692759 434.615887857 122.835048631 434.36111805 c 0
 332.055512638 291.210274256 332.055512638 291.210274256 332.176914536 291 c 0
 332.274863534 290.83034736 332.322833964 290.634357005 332.322833964 290.4136821 c 0
 332.322833964 288.188624014 327.445860156 283.453980221 319.750448867 277.904404772 c 2
 122.088151816 135.359479014 l 1
 121.994030842 55.6850449974 121.412841631 21.1959313924 120.422465782 17.2542906649 c 0
 120.46327063 17.0156231205 120.665016057 17.0452223527 120.665016057 16.8993272493 c 0
 120.665016057 16.5376475123 116.796162692 9.11259076064 92.025295486 -5.18887608903 c 0
 90.3825059056 -6.13734109551 68.3963233244 -18.7386550945 59.8737708714 -18.7386550945 c 0
 58.7363539402 -18.7386550945 57.6771660131 -18.4582345209 57.6771660131 -17.413682062 c 0
 57.6771660131 -12.2290805191 59.4545988114 -36.9230348745 59.4545988114 123.093037826 c 0
122.100956834 158.008784734 m 0
 122.100956834 156.196592278 122.100730642 154.394619787 122.100273155 152.603327456 c 1
 266.790838739 256.947485328 l 1
 121.535563622 356.332673566 l 1
 121.849423421 290.236768378 122.100956834 218.440298984 122.100956834 158.008784734 c 0
EndSplineSet
EndChar

StartChar: runeOs
Encoding: 5801 5801 44
Width: 531
GlyphClass: 2
Flags: HMW
VStem: 57.5428 66.3538
LayerCount: 2
Back
SplineSet
92 339 m 28
 353 158 l 5
 353 158 441 341.75 441 340.875 c 1028
89 0 m 4
 93 0 89 542 89 542.875 c 28
 353 360 l 29
 353 360 441 543.75 441 542.875 c 1028
EndSplineSet
Fore
SplineSet
122.100956834 158.008784734 m 0
 122.100956834 63.414692559 121.511242312 21.5875606218 120.422465782 17.2542906649 c 0
 120.46327063 17.0156231205 120.665016057 17.0452223527 120.665016057 16.8993272493 c 0
 120.665016057 16.5376475123 116.796162692 9.11259076065 92.025295486 -5.18887608903 c 0
 90.3825059056 -6.1373410955 68.3963233244 -18.7386550945 59.8737708714 -18.7386550945 c 0
 58.7363539296 -18.7386550945 57.6771660358 -18.4582345249 57.6771660358 -17.4136820999 c 0
 57.6771660358 -13.9040342896 69.8109090562 -4.15062359163 86 5.19615242271 c 1
 58.7144075166 0.469116450343 l 1
 59.2530987623 24.0455457539 59.4545988114 69.0056631686 59.4545988114 123.093037826 c 0
 59.4545988114 287.177481808 57.6771660358 521.437595841 57.6771660358 525.4613179 c 0
 57.6771660358 532.987409604 105.558398008 561.613655095 118.126229129 561.613655095 c 0
 118.890040276 561.613655095 119.469630552 561.489273579 119.84147176 561.231696076 c 2
 349.865774874 401.891944439 l 1
 386.035060576 477.30788703 408.64313839 524.268544448 410.113896412 526.873119942 c 1
 410.113896412 526.873119942 408.961216544 525.856425331 408.796008696 525.871733692 c 0
 408.796008696 526.238563361 415.194743928 534.908832095 437.997165846 548.073816528 c 0
 440.84438612 549.71765992 461.745423826 561.617232198 470.165836702 561.617232198 c 0
 470.973354014 561.617232198 472.322833964 561.567585909 472.322833964 560.2886821 c 0
 472.322832087 559.720903542 465.354644146 546.120906489 384.005965954 376.259927218 c 0
 379.479130909 366.807586996 335.591752868 341.261344905 323.873770871 341.261344905 c 0
 323.109959724 341.261344905 322.530369448 341.385726421 322.15852824 341.643303924 c 2
 120.848548195 481.092404685 l 1
 121.062534389 446.582692887 121.310434013 403.557049733 121.528934258 357.725971052 c 0
 122.096627025 357.6883579 122.538603411 357.566731441 122.84205372 357.356292721 c 2
 349.8752913 199.911786966 l 1
 386.039335341 275.316764849 408.643258516 322.268757179 410.113896412 324.873119942 c 1
 410.113896412 324.873119942 408.961216544 323.856425331 408.796008696 323.871733692 c 0
 408.796008696 324.238563361 415.194743927 332.908832095 437.997165846 346.073816528 c 0
 440.84438612 347.717659919 461.745423826 359.617232198 470.165836702 359.617232198 c 0
 470.973354014 359.617232198 472.322833964 359.567585909 472.322833964 358.2886821 c 0
 472.322832087 357.720903541 465.354644169 344.120906536 384.005965954 174.259927218 c 0
 379.479130909 164.807586996 335.591752868 139.261344905 323.873770871 139.261344905 c 0
 323.109561133 139.261344905 322.529764585 139.38585627 322.15794628 139.643707279 c 2
 121.85914844 278.548237582 l 1
 122.005642421 236.715685697 122.100956834 195.208954634 122.100956834 158.008784734 c 0
EndSplineSet
EndChar

StartChar: runeAs
Encoding: 5802 5802 45
Width: 531
GlyphClass: 2
Flags: HMW
VStem: 57.5428 66.3538
LayerCount: 2
Back
SplineSet
92 339 m 24
 353 158 l 1025
89 0 m 0
 93 0 89 542 89 542.875 c 24
 353 360 l 25
 353 360 441 543.75 441 542.875 c 1024
EndSplineSet
Fore
SplineSet
122.100956834 158.008784734 m 0
 122.100956834 63.414692559 121.511242312 21.5875606218 120.422465782 17.2542906649 c 0
 120.46327063 17.0156231205 120.665016057 17.0452223527 120.665016057 16.8993272493 c 0
 120.665016057 16.5376475123 116.796162692 9.11259076065 92.025295486 -5.18887608903 c 0
 90.3825059056 -6.1373410955 68.3963233244 -18.7386550945 59.8737708714 -18.7386550945 c 0
 58.7363539296 -18.7386550945 57.6771660358 -18.4582345249 57.6771660358 -17.4136820999 c 0
 57.6771660358 -13.9040342896 69.8109090562 -4.15062359163 86 5.19615242271 c 1
 58.7144075166 0.469116450343 l 1
 59.2530987623 24.0455457539 59.4545988114 69.0056631686 59.4545988114 123.093037826 c 0
 59.4545988114 287.177481808 57.6771660358 521.437595841 57.6771660358 525.4613179 c 0
 57.6771660358 532.987409604 105.558398008 561.613655095 118.126229129 561.613655095 c 0
 118.890040276 561.613655095 119.469630552 561.489273579 119.84147176 561.231696076 c 2
 349.865774874 401.891944439 l 1
 386.035060576 477.30788703 408.64313839 524.268544448 410.113896412 526.873119942 c 1
 410.113896412 526.873119942 408.961216544 525.856425331 408.796008696 525.871733692 c 0
 408.796008696 526.238563361 415.194743928 534.908832095 437.997165846 548.073816528 c 0
 440.84438612 549.71765992 461.745423826 561.617232198 470.165836702 561.617232198 c 0
 470.973354014 561.617232198 472.322833964 561.567585909 472.322833964 560.2886821 c 0
 472.322832087 559.720903542 465.354644146 546.120906489 384.005965954 376.259927218 c 0
 379.479130909 366.807586996 335.591752868 341.261344905 323.873770871 341.261344905 c 0
 323.109959724 341.261344905 322.530369448 341.385726421 322.15852824 341.643303924 c 2
 120.848548195 481.092404685 l 1
 121.062534389 446.582692887 121.310434013 403.557049733 121.528934258 357.725971052 c 0
 122.096627025 357.6883579 122.538603411 357.566731441 122.84205372 357.356292721 c 0
 384.057450344 176.206918051 384.057450344 176.206918051 384.176914536 176 c 0
 384.274863534 175.83034736 384.322833964 175.634357005 384.322833964 175.4136821 c 0
 384.322833964 167.887590396 336.441601992 139.261344905 323.873770871 139.261344905 c 0
 323.109561133 139.261344905 322.529764585 139.38585627 322.15794628 139.643707279 c 2
 121.85914844 278.548237582 l 1
 122.005642421 236.715685697 122.100956834 195.208954634 122.100956834 158.008784734 c 0
EndSplineSet
EndChar

StartChar: uni0105
Encoding: 5803 5803 46
Width: 449
GlyphClass: 2
Flags: HMW
VStem: 57.5428 66.3538
LayerCount: 2
Back
SplineSet
92 339 m 24
 353 158 l 1025
89 0 m 4
 93 0 89 542 89 542.875 c 28
 353 360 l 1053
EndSplineSet
Fore
SplineSet
122.100956834 158.008784734 m 0
 122.100956834 63.414692559 121.511242312 21.5875606218 120.422465782 17.2542906649 c 0
 120.46327063 17.0156231205 120.665016057 17.0452223527 120.665016057 16.8993272493 c 0
 120.665016057 16.5376475123 116.796162692 9.11259076065 92.025295486 -5.18887608903 c 0
 90.3825059056 -6.1373410955 68.3963233244 -18.7386550945 59.8737708714 -18.7386550945 c 0
 58.7363539296 -18.7386550945 57.6771660358 -18.4582345249 57.6771660358 -17.4136820999 c 0
 57.6771660358 -13.9040342896 69.8109090562 -4.15062359163 86 5.19615242271 c 1
 58.7144075166 0.469116450343 l 1
 59.2530987623 24.0455457539 59.4545988114 69.0056631686 59.4545988114 123.093037826 c 0
 59.4545988114 287.177481808 57.6771660358 521.437595841 57.6771660358 525.4613179 c 0
 57.6771660358 532.987409604 105.558398008 561.613655095 118.126229129 561.613655095 c 0
 118.890040276 561.613655095 119.469630552 561.489273579 119.84147176 561.231696076 c 0
 384.057288838 378.207197788 384.057288838 378.207197788 384.176914536 378 c 0
 384.274863534 377.83034736 384.322833964 377.634357005 384.322833964 377.4136821 c 0
 384.322833964 369.887590396 336.441601992 341.261344905 323.873770871 341.261344905 c 0
 323.109959724 341.261344905 322.530369448 341.385726421 322.15852824 341.643303924 c 2
 120.848548195 481.092404685 l 1
 121.062534389 446.582692887 121.310434013 403.557049733 121.528934258 357.725971052 c 0
 122.096627025 357.6883579 122.538603411 357.566731441 122.84205372 357.356292721 c 0
 384.057450344 176.206918051 384.057450344 176.206918051 384.176914536 176 c 0
 384.274863534 175.83034736 384.322833964 175.634357005 384.322833964 175.4136821 c 0
 384.322833964 167.887590396 336.441601992 139.261344905 323.873770871 139.261344905 c 0
 323.109561133 139.261344905 322.529764585 139.38585627 322.15794628 139.643707279 c 2
 121.85914844 278.548237582 l 1
 122.005642421 236.715685697 122.100956834 195.208954634 122.100956834 158.008784734 c 0
EndSplineSet
EndChar

StartChar: runeRad
Encoding: 5809 5809 47
Width: 427
GlyphClass: 2
Flags: HMW
VStem: 57.9031 66.3538
LayerCount: 2
Back
SplineSet
89 0 m 4
 93 0 89 542 89 542.875 c 28
 335 386 l 29
 149 258 l 29
 333 65 l 1053
EndSplineSet
Fore
SplineSet
300.255191307 370.131292283 m 1
 120.827025212 484.553217308 l 1
 121.213317938 422.621215877 121.719716095 331.673934672 121.961166545 246.441279071 c 1
 124.613690224 248.913507061 128.379549574 251.851280768 132.921167525 254.976695272 c 2
 300.255191307 370.131292283 l 1
122.100956834 158.008784734 m 0
 122.100956834 63.414692559 121.511242312 21.5875606218 120.422465782 17.2542906649 c 0
 120.46327063 17.0156231205 120.665016057 17.0452223527 120.665016057 16.8993272493 c 0
 120.665016057 16.5376475123 116.796162692 9.11259076065 92.025295486 -5.18887608903 c 0
 90.3825059056 -6.1373410955 68.3963233244 -18.7386550945 59.8737708714 -18.7386550945 c 0
 58.7363539296 -18.7386550945 57.6771660358 -18.4582345249 57.6771660358 -17.4136820999 c 0
 57.6771660358 -13.9040342896 69.8109090562 -4.15062359163 86 5.19615242271 c 1
 58.7144075166 0.469116450343 l 1
 59.2530987623 24.0455457539 59.4545988114 69.0056631686 59.4545988114 123.093037826 c 0
 59.4545988114 287.177481808 57.6771660358 521.437595841 57.6771660358 525.4613179 c 0
 57.6771660358 532.987409604 105.558398008 561.613655095 118.126229129 561.613655095 c 0
 118.86058849 561.613655095 119.424659823 561.4986807 119.797533004 561.26089826 c 0
 366.045360879 404.227857619 366.045360879 404.227857619 366.176914536 404 c 0
 366.274863534 403.83034736 366.322833964 403.634357005 366.322833964 403.4136821 c 0
 366.322833964 400.940955833 360.29973773 395.368873936 351.078832475 389.023304728 c 2
 182.841559968 273.247117196 l 1
 364.115289271 83.1067380896 364.115289271 83.1067380896 364.176914536 83 c 0
 364.274863534 82.8303473596 364.322833964 82.634357005 364.322833964 82.4136820999 c 0
 364.322833964 74.8875903955 316.441601992 46.2613449055 303.873770871 46.2613449055 c 0
 302.967162892 46.2613449055 302.320095881 46.4365807446 301.971914817 46.8017924049 c 2
 121.99054011 235.586603918 l 1
 122.060008645 208.624467574 122.100956834 182.391551571 122.100956834 158.008784734 c 0
EndSplineSet
EndChar

StartChar: runeKauna
Encoding: 5810 5810 48
Width: 549
GlyphClass: 2
Flags: W
HStem: -18.8311 37.5698<425.24 484.126> 506.261 55.4938<460.051 506.51>
LayerCount: 2
Back
SplineSet
455 0 m 12
 455 -1 85 274 85 274 c 29
 85 274 471 542.75 471 542.875 c 12
 471 543 491 525 491 525 c 1053
EndSplineSet
Fore
SplineSet
486.389435948 17.0780594485 m 0
 486.389435948 10.8799261808 439.941415225 -18.8311231437 425.240160132 -18.8311231437 c 0
 423.136346767 -18.8311231437 53.9913827019 255.708500633 53.8230854638 256 c 0
 53.7251364661 256.16965264 53.6771660358 256.365642995 53.6771660358 256.5863179 c 0
 53.6771660358 258.993001998 59.382826112 264.335695913 68.1892421482 270.469957861 c 2
 454.189242148 539.344957861 l 2
 454.610559392 539.63879647 487.985683081 561.755167028 500.409108111 561.755167028 c 0
 501.596361036 561.755167028 522.322833964 543.561899213 522.322833964 542.4136821 c 0
 522.322833964 534.887590396 474.441601992 506.261344905 461.873770871 506.261344905 c 0
 461.018530187 506.261344905 460.394253109 506.417285995 460.033968661 506.741541982 c 0
 460.033968661 506.741541982 453.011911993 513.061291301 447.293416671 518.181984859 c 1
 119.351949331 289.748663536 l 1
 152.427771051 265.167992825 411.825865158 72.4142492171 472.981400431 27.6159184688 c 1
 452.001961125 5.19728466545 l 1
 466.206789842 13.3982516248 479.121332577 18.7386550945 484.126229129 18.7386550945 c 0
 485.26364607 18.7386550945 486.322833964 18.4582345249 486.322833964 17.4136820999 c 0
 486.322833964 17.3227807741 486.389435948 17.2464382945 486.389435948 17.0780594485 c 0
EndSplineSet
EndChar

StartChar: runeCen
Encoding: 5811 5811 49
Width: 449
GlyphClass: 2
Flags: HMW
VStem: 59.9735 66.3538
LayerCount: 2
Back
SplineSet
357 0 m 0
 357 -1 93 165 93 165 c 1049
89 0 m 0
 93 0 89 542 89 542.875 c 1048
EndSplineSet
Fore
SplineSet
122.033818547 109.022114478 m 1
 121.843597938 46.8825086115 121.287327949 20.696393929 120.422465782 17.2542906649 c 0
 120.46327063 17.0156231205 120.665016057 17.0452223527 120.665016057 16.8993272493 c 0
 120.665016057 16.5376475123 116.796162692 9.11259076065 92.025295486 -5.18887608903 c 0
 90.3825059056 -6.1373410955 68.3963233244 -18.7386550945 59.8737708714 -18.7386550945 c 0
 58.7363539296 -18.7386550945 57.6771660358 -18.4582345249 57.6771660358 -17.4136820999 c 0
 57.6771660358 -13.9040342896 69.8109090562 -4.15062359163 86 5.19615242271 c 1
 58.7144075166 0.469116450343 l 1
 59.2530987623 24.0455457539 59.4545988114 69.0056631686 59.4545988114 123.093037826 c 0
 59.4545988114 287.177481808 57.6771660358 521.437595841 57.6771660358 525.4613179 c 0
 57.6771660358 532.987409604 105.558398008 561.613655095 118.126229129 561.613655095 c 0
 119.26364607 561.613655095 120.322833964 561.333234525 120.322833964 560.2886821 c 0
 120.322833964 556.523138645 121.912480331 347.336873184 122.126229129 183.738655095 c 0
 122.855564573 183.738655095 123.416933977 183.62524845 123.789853438 183.390761189 c 2
 123.789853438 183.390761189 331.732490838 52.6391033191 378.50389256 23.9285950741 c 1
 354.010609152 5.20227722612 l 1
 368.212031272 13.4004189684 381.122348271 18.7386550945 386.126229129 18.7386550945 c 0
 387.26364607 18.7386550945 388.322833964 18.4582345249 388.322833964 17.4136820999 c 0
 388.322833964 9.97382739278 340.581462801 -18.8456173921 327.569792208 -18.8456173921 c 0
 325.750120953 -18.8456173921 246.72959088 30.7201454146 122.033818547 109.022114478 c 1
EndSplineSet
EndChar

StartChar: runeKaun
Encoding: 5812 5812 50
Width: 454
GlyphClass: 2
Flags: HMW
VStem: 57.5428 67.4 331.455 66.3538
LayerCount: 2
Back
SplineSet
361 542.875 m 1
 400 492.875 294 422.875 94 307.875 c 1033
89 0 m 0
 93 0 89 542 89 542.875 c 1048
EndSplineSet
Fore
SplineSet
122.100956834 158.008784734 m 0
 122.100956834 63.414692559 121.511242312 21.5875606218 120.422465782 17.2542906649 c 0
 120.46327063 17.0156231205 120.665016057 17.0452223527 120.665016057 16.8993272493 c 0
 120.665016057 16.5376475123 116.796162692 9.11259076065 92.025295486 -5.18887608903 c 0
 90.3825059056 -6.1373410955 68.3963233244 -18.7386550945 59.8737708714 -18.7386550945 c 0
 58.7363539296 -18.7386550945 57.6771660358 -18.4582345249 57.6771660358 -17.4136820999 c 0
 57.6771660358 -13.9040342896 69.8109090562 -4.15062359163 86 5.19615242271 c 1
 58.7144075166 0.469116450343 l 1
 59.2530987623 24.0455457539 59.4545988114 69.0056631686 59.4545988114 123.093037826 c 0
 59.4545988114 287.177481808 57.6771660358 521.437595841 57.6771660358 525.4613179 c 0
 57.6771660358 532.987409604 105.558398008 561.613655095 118.126229129 561.613655095 c 0
 119.26364607 561.613655095 120.322833964 561.333234525 120.322833964 560.2886821 c 0
 120.322833964 557.993504668 121.098497225 457.132811967 121.652330517 330.774789548 c 1
 256.477579278 409.017466736 337.648819998 460.99363895 337.648819998 503.617773078 c 0
 337.648819998 516.847492764 329.677166036 524.206773818 329.677166036 525.4613179 c 0
 329.677166036 532.987409604 377.558398008 561.613655095 390.126229129 561.613655095 c 0
 393.401594865 561.613655095 400.343091661 550.161016721 400.343091661 538.375650933 c 0
 400.343091661 491.364255033 306.138755526 423.861103842 121.711498703 316.94144078 c 1
 121.938358339 262.530274239 122.100956834 206.596211134 122.100956834 158.008784734 c 0
EndSplineSet
EndChar

StartChar: runeGyfu
Encoding: 5815 5815 51
Width: 640
GlyphClass: 2
Flags: W
HStem: -18.7387 52.4773<58.4898 103.959>
LayerCount: 2
Back
SplineSet
91 542.875 m 12
 91 543 550 1 550 0 c 1028
570 528 m 29
 570 528 553 543 553 542.875 c 4
 553 542.75 93 0 93 0 c 5
 93 -8.32667268469e-17 74 15 74 15 c 1053
EndSplineSet
Fore
SplineSet
583.934706617 561.167859151 m 1
 584.117276944 561.02856147 600.924598263 546.437024604 601.176914536 546 c 0
 601.274863534 545.83034736 601.322833964 545.634357005 601.322833964 545.4136821 c 0
 601.322833964 538.254062346 557.097465678 511.296992737 542.159911926 509.35420452 c 1
 353.754644582 287.005270805 l 1
 581.322833964 17.8525893004 581.322833964 17.8525893004 581.322833964 17.4136820999 c 0
 581.322833964 9.88759039554 533.441601992 -18.7386550945 520.873770871 -18.7386550945 c 0
 519.928393279 -18.7386550945 519.265228973 -18.5481114503 518.928889429 -18.1503111678 c 2
 307.286964736 232.165832334 l 1
 122.550131503 14.1462489827 l 2
 112.945813556 2.81158788407 74.4584126948 -18.7386550945 63.8737708714 -18.7386550945 c 0
 63.0638528157 -18.7386550945 62.461067623 -18.5988039514 62.0934666545 -18.3085926605 c 0
 42.6771660358 -2.97993427734 42.6771660358 -2.97993427734 42.6771660358 -2.41368209992 c 0
 42.6771660358 5.11240960446 90.5583980083 33.7386550945 103.126229129 33.7386550945 c 0
 103.439330281 33.7386550945 103.72147605 33.7177547623 103.971045804 33.6753469528 c 2
 289.742635069 252.916111132 l 1
 59.6771660358 525.0224107 59.6771660358 525.0224107 59.6771660358 525.4613179 c 0
 59.6771660358 532.987409604 107.558398008 561.613655095 120.126229129 561.613655095 c 0
 121.071606721 561.613655095 121.734771027 561.42311145 122.071110571 561.025311168 c 2
 336.210314915 307.755549602 l 1
 520.981284627 525.815419563 l 1
 520.233836961 526.776772616 519.893199037 527.660894045 519.893199037 528.473923813 c 0
 519.893199037 531.395204381 524.29090961 533.398675956 530.016789164 534.769155717 c 0
 544.013147151 545.791399756 572.467322426 561.677192966 582.402456333 561.677192966 c 0
 582.850722305 561.677192966 584.005422939 561.296623496 584.005422939 561.215131904 c 0
 584.005422939 561.180963012 583.934706617 561.167859151 583.934706617 561.167859151 c 1
EndSplineSet
EndChar

StartChar: runeGar
Encoding: 5816 5816 52
Width: 636
GlyphClass: 2
Flags: W
HStem: -18.7387 52.4773<58.4898 103.959>
LayerCount: 2
Back
SplineSet
321.098632812 501.299804688 m 5
 551.46875 270.931640625 l 5
 321.098632812 40.5634765625 l 5
 90.732421875 270.931640625 l 5
 321.098632812 501.299804688 l 5
91 542.875 m 8
 91 543 550 1 550 0 c 1024
570 528 m 25
 570 528 553 543 553 542.875 c 0
 553 542.75 93 0 93 0 c 1
 93 -8.32667268469e-17 74 15 74 15 c 1049
EndSplineSet
Fore
SplineSet
583.934706617 561.167859151 m 1
 584.117276944 561.02856147 600.924598263 546.437024604 601.176914536 546 c 0
 601.274863534 545.83034736 601.322833964 545.634357005 601.322833964 545.4136821 c 0
 601.322833964 538.254062346 557.097465678 511.296992737 542.159911926 509.35420452 c 1
 459.648638425 411.977448864 l 1
 582.577603216 289.049526289 582.577603216 289.049526289 582.645664536 288.931640625 c 0
 582.743613534 288.761987985 582.791583964 288.56599763 582.791583964 288.345322725 c 0
 582.791583964 287.258894922 581.628879179 285.574164272 579.543097347 283.488400125 c 2
 458.808342521 162.754668913 l 1
 581.322833964 17.8525893004 581.322833964 17.8525893004 581.322833964 17.4136820999 c 0
 581.322833964 9.88759039554 533.441601992 -18.7386550945 520.873770871 -18.7386550945 c 0
 519.928393279 -18.7386550945 519.265228973 -18.5481114503 518.928889429 -18.1503111678 c 2
 408.505021538 112.451774412 l 1
 349.172980159 53.1202360621 l 2
 337.120747527 41.068105611 301.88380346 21.824821468 291.972403683 21.824821468 c 0
 291.081599986 21.824821468 290.441367325 21.9940010239 290.089028715 22.346342621 c 2
 203.158656815 109.277451546 l 1
 122.550131503 14.1462489827 l 2
 112.945813556 2.81158788407 74.4584126948 -18.7386550945 63.8737708714 -18.7386550945 c 0
 63.0638528157 -18.7386550945 62.461067623 -18.5988039514 62.0934666545 -18.3085926605 c 0
 42.6771660358 -2.97993427734 42.6771660358 -2.97993427734 42.6771660358 -2.41368209992 c 0
 42.6771660358 5.11240960446 90.5583980083 33.7386550945 103.126229129 33.7386550945 c 0
 103.439330281 33.7386550945 103.72147605 33.7177547623 103.971045804 33.6753469528 c 2
 184.143892207 128.292377368 l 1
 59.6235663596 252.813758943 59.6235663596 252.813758943 59.5555073388 252.931640625 c 0
 59.4575583411 253.101293265 59.4095879108 253.29728362 59.4095879108 253.517958525 c 0
 59.4095879108 254.604349527 60.5722139273 256.289002842 62.6578625715 258.374669169 c 2
 183.204536174 378.922364809 l 1
 59.6771660358 525.0224107 59.6771660358 525.0224107 59.6771660358 525.4613179 c 0
 59.6771660358 532.987409604 107.558398008 561.613655095 120.126229129 561.613655095 c 0
 121.071606721 561.613655095 121.734771027 561.42311145 122.071110571 561.025311168 c 2
 233.507466377 429.225721498 l 1
 293.024073508 488.742833232 l 2
 305.078276319 500.797138242 340.315239144 520.038459783 350.224861941 520.038459783 c 0
 351.115659989 520.038459783 351.755890179 519.869282372 352.108230206 519.516945333 c 2
 440.633725926 430.992200151 l 1
 520.981284627 525.815419563 l 1
 520.233836961 526.776772616 519.893199037 527.660894045 519.893199037 528.473923813 c 0
 519.893199037 531.395204381 524.29090961 533.398675956 530.016789164 534.769155717 c 0
 544.013147151 545.791399756 572.467322426 561.677192966 582.402456333 561.677192966 c 0
 582.850722305 561.677192966 584.005422939 561.296623496 584.005422939 561.215131904 c 0
 584.005422939 561.180963012 583.934706617 561.167859151 583.934706617 561.167859151 c 1
307.286964736 232.165832334 m 1
 248.317489922 162.572237465 l 1
 337.953458372 72.9355090509 l 1
 394.286698422 129.268271497 l 1
 307.286964736 232.165832334 l 1
289.742635069 252.916111132 m 1
 197.423185027 362.105482465 l 1
 123.104560824 287.786228163 l 1
 229.302725314 181.587163288 l 1
 289.742635069 252.916111132 l 1
353.754644582 287.005270805 m 1
 444.590019405 179.571165997 l 1
 519.096563062 254.077077972 l 1
 414.489936453 358.682817705 l 1
 353.754644582 287.005270805 l 1
336.210314915 307.755549602 m 1
 395.475023953 377.697568992 l 1
 304.244308183 468.927511289 l 1
 247.72611523 412.408839154 l 1
 336.210314915 307.755549602 l 1
EndSplineSet
EndChar

StartChar: runeWynn
Encoding: 5817 5817 53
Width: 391
GlyphClass: 2
Flags: HMW
VStem: 57.9031 66.3538
LayerCount: 2
Back
SplineSet
92 251 m 5
 298 399.875 l 5
 89 542.875 l 13
 89 542 93 0 89 0 c 1024
EndSplineSet
Fore
SplineSet
57.6771660131 -17.413682062 m 0
 57.6771660131 -12.2290805191 59.4545988114 -36.9230348745 59.4545988114 123.093037826 c 0
 59.4545988114 287.177481808 57.6771660358 521.437595841 57.6771660358 525.4613179 c 0
 57.6771660358 532.987409604 105.558398008 561.613655095 118.126229129 561.613655095 c 0
 118.885656345 561.613655095 119.462971311 561.490697269 119.835048631 561.23611805 c 0
 329.055512638 418.085274256 329.055512638 418.085274256 329.176914536 417.875 c 0
 329.274863534 417.70534736 329.322833964 417.509357005 329.322833964 417.2886821 c 0
 329.322833964 415.074420598 324.493074123 410.374868679 316.862270209 404.860131142 c 2
 121.908128295 263.967908436 l 1
 122.026529331 227.116562345 122.100956834 190.881256308 122.100956834 158.008784734 c 0
 122.100956834 63.414692559 121.511242312 21.5875606218 120.422465782 17.2542906649 c 0
 120.46327063 17.0156231205 120.665016057 17.0452223527 120.665016057 16.8993272493 c 0
 120.665016057 16.5376475123 116.796162692 9.11259076064 92.025295486 -5.18887608903 c 0
 90.3825059056 -6.13734109551 68.3963233244 -18.7386550945 59.8737708714 -18.7386550945 c 0
 58.7363539402 -18.7386550945 57.6771660131 -18.4582345209 57.6771660131 -17.413682062 c 0
263.807702165 383.810947194 m 1
 120.845229457 481.62737589 l 1
 121.176395577 428.268655876 121.589842657 354.375199002 121.849728885 281.218746844 c 1
 263.807702165 383.810947194 l 1
EndSplineSet
EndChar

StartChar: runeHaegl
Encoding: 5819 5819 54
Width: 544
GlyphClass: 2
Flags: HMW
VStem: 55.1136 66.3538 423.314 66.3538
LayerCount: 2
Back
SplineSet
92 291 m 5
 453 83 l 1029
92 462 m 5
 453 254 l 1029
455 542.875 m 13
 455 542 459 0 455 0 c 1028
89 542.875 m 13
 89 542 93 0 89 0 c 1028
EndSplineSet
Fore
SplineSet
59.4545988114 123.093037826 m 0
 59.4545988114 287.177481808 57.6771660358 521.437595841 57.6771660358 525.4613179 c 0
 57.6771660358 532.987409604 105.558398008 561.613655095 118.126229129 561.613655095 c 0
 120.31324373 561.613655095 120.31505626 561.357989106 120.339369632 557.928471366 c 0
 120.397363358 549.748178341 120.601201961 521.006651866 120.850772576 480.733567303 c 1
 120.945085141 480.736954467 121.036916531 480.738655095 121.126229129 480.738655095 c 0
 121.824355043 480.738655095 122.368582465 480.634746522 122.740946199 480.420198997 c 2
 424.959704131 306.288615479 l 1
 424.405301559 428.582321872 423.677166036 523.269553351 423.677166036 525.4613179 c 0
 423.677166036 532.987409604 471.558398008 561.613655095 484.126229129 561.613655095 c 0
 486.31324373 561.613655095 486.31505626 561.357989106 486.339369632 557.928471366 c 0
 486.519176148 532.565900271 488.100956834 309.552792692 488.100956834 158.008784734 c 0
 488.100956834 63.4146925591 487.511242312 21.5875606218 486.422465782 17.2542906649 c 0
 486.46327063 17.0156231205 486.665016057 17.0452223527 486.665016057 16.8993272493 c 0
 486.665016057 16.5376475123 482.796162692 9.11259076064 458.025295486 -5.18887608903 c 0
 456.382505906 -6.13734109551 434.396323324 -18.7386550945 425.873770871 -18.7386550945 c 0
 424.73635394 -18.7386550945 423.677166013 -18.4582345209 423.677166013 -17.413682062 c 0
 423.677166013 -16.5955665736 424.992997722 -26.2710072381 425.353330934 64.3806942417 c 1
 424.803313903 64.3016704067 424.308679433 64.2613449055 423.873770871 64.2613449055 c 0
 423.175644957 64.2613449055 422.631417535 64.3652534777 422.259053801 64.5798010028 c 2
 121.985327654 237.590701387 l 1
 122.05795576 209.924672586 122.100956834 182.995276655 122.100956834 158.008784734 c 0
 122.100956834 63.414692559 121.511242312 21.5875606218 120.422465782 17.2542906649 c 0
 120.46327063 17.0156231205 120.665016057 17.0452223527 120.665016057 16.8993272493 c 0
 120.665016057 16.5376475123 116.796162692 9.11259076064 92.025295486 -5.18887608903 c 0
 90.3825059056 -6.13734109551 68.3963233244 -18.7386550945 59.8737708714 -18.7386550945 c 0
 58.7363539402 -18.7386550945 57.6771660131 -18.4582345209 57.6771660131 -17.413682062 c 0
 57.6771660131 -12.2290805191 59.4545988114 -36.9230348745 59.4545988114 123.093037826 c 0
423.873770871 235.261344905 m 0
 423.175644957 235.261344905 422.631417535 235.365253478 422.259053801 235.579801003 c 2
 121.267556657 409.004264731 l 1
 121.436280129 377.821148376 121.602318879 343.987591503 121.741239868 309.707330836 c 0
 122.361855012 309.638622728 122.361855012 309.638622728 425.451468492 135.005272025 c 1
 425.435216114 166.539895722 425.356747619 200.748784661 425.241160207 235.365010547 c 1
 424.735875516 235.296338575 424.278908715 235.261344905 423.873770871 235.261344905 c 0
EndSplineSet
EndChar

StartChar: runeNyd
Encoding: 5822 5822 55
Width: 449
GlyphClass: 2
Flags: HMW
VStem: 191.193 66.3538
LayerCount: 2
Back
SplineSet
94 345 m 5
 357 176 l 1029
224 542.875 m 13
 224 542 228 0 224 0 c 1028
EndSplineSet
Fore
SplineSet
193.901023301 318.981003966 m 1
 193.349251208 436.083768984 192.677166036 523.396478491 192.677166036 525.4613179 c 0
 192.677166036 532.987409604 240.558398008 561.613655095 253.126229129 561.613655095 c 0
 255.31324373 561.613655095 255.31505626 561.357989106 255.339369632 557.928471366 c 0
 255.47504644 538.790607146 256.408975947 407.114953358 256.859229916 278.524970057 c 1
 388.046462202 194.225950071 388.046462202 194.225950071 388.176914536 194 c 0
 388.274863534 193.83034736 388.322833964 193.634357005 388.322833964 193.4136821 c 0
 388.322833964 185.887590396 340.441601992 157.261344905 327.873770871 157.261344905 c 0
 327.136691041 157.261344905 326.571163256 157.377172734 326.19833089 157.616749425 c 2
 257.062123946 202.042677081 l 1
 257.087206425 186.8888472 257.100956834 172.138175761 257.100956834 158.008784734 c 0
 257.100956834 63.4146925591 256.511242312 21.5875606218 255.422465782 17.2542906649 c 0
 255.46327063 17.0156231205 255.665016057 17.0452223527 255.665016057 16.8993272493 c 0
 255.665016057 16.5376475123 251.796162692 9.11259076064 227.025295486 -5.18887608903 c 0
 225.382505906 -6.13734109551 203.396323324 -18.7386550945 194.873770871 -18.7386550945 c 0
 193.73635394 -18.7386550945 192.677166013 -18.4582345209 192.677166013 -17.413682062 c 0
 192.677166013 -12.2290805191 194.454598811 -36.9230348746 194.454598811 123.093037826 c 0
 194.454598811 159.927928429 194.361143902 200.996004106 194.217093076 242.425985891 c 1
 62.9535377982 326.774049929 62.9535377982 326.774049929 62.8230854638 327 c 0
 62.7251364661 327.16965264 62.6771660358 327.365642995 62.6771660358 327.5863179 c 0
 62.6771660358 335.112409604 110.558398008 363.738655095 123.126229129 363.738655095 c 0
 123.863308959 363.738655095 124.428836744 363.622827266 124.80166911 363.383250575 c 2
 193.901023301 318.981003966 l 1
EndSplineSet
EndChar

StartChar: runeIs
Encoding: 5825 5825 56
Width: 181
GlyphClass: 2
Flags: HMW
VStem: 57.5433 66.3538
LayerCount: 2
Back
SplineSet
90 542.875 m 12
 90 542 94 0 90 0 c 1028
EndSplineSet
Fore
SplineSet
60.4545988114 123.093037826 m 0
 60.4545988114 287.177481808 58.6771660358 521.437595841 58.6771660358 525.4613179 c 0
 58.6771660358 532.987409604 106.558398008 561.613655095 119.126229129 561.613655095 c 0
 121.31324373 561.613655095 121.31505626 561.357989106 121.339369632 557.928471366 c 0
 121.519176148 532.565900271 123.100956834 309.552792692 123.100956834 158.008784734 c 0
 123.100956834 63.414692559 122.511242312 21.5875606218 121.422465782 17.2542906649 c 0
 121.46327063 17.0156231205 121.665016057 17.0452223527 121.665016057 16.8993272493 c 0
 121.665016057 16.5376475123 117.796162692 9.11259076064 93.025295486 -5.18887608903 c 0
 91.3825059056 -6.13734109551 69.3963233244 -18.7386550945 60.8737708714 -18.7386550945 c 0
 59.7363539402 -18.7386550945 58.6771660131 -18.4582345209 58.6771660131 -17.413682062 c 0
 58.6771660131 -12.2290805191 60.4545988114 -36.9230348745 60.4545988114 123.093037826 c 0
EndSplineSet
EndChar

StartChar: runeGer
Encoding: 5828 5828 57
Width: 602
GlyphClass: 2
Flags: HMW
VStem: 268.503 66.3538
LayerCount: 2
Back
SplineSet
301 542.875 m 5
 509 396 l 5
 302 244 l 5
 91 396 l 5
 301 542.875 l 5
301 542.875 m 12
 301 542 305 0 301 0 c 1028
EndSplineSet
Fore
SplineSet
332.853785028 480.247247583 m 1
 333.190990745 425.787333282 333.61070723 350.403248948 333.867076448 276.270149098 c 1
 474.97888231 379.888479972 l 1
 332.853785028 480.247247583 l 1
270.956759775 306.937432658 m 1
 270.540199044 398.636382208 269.980562519 481.955655023 269.766007588 512.801974737 c 1
 125.373084298 411.812876603 l 1
 270.956759775 306.937432658 l 1
269.677166013 -17.413682062 m 0
 269.677166013 -12.2290771892 271.454598849 -36.923042712 271.454598849 123.093053032 c 0
 271.454598849 124.118702162 271.448824496 225.433899191 271.138461754 225.657478847 c 0
 59.9370855436 377.80254607 59.9370855436 377.80254607 59.8230854638 378 c 0
 59.7251364661 378.16965264 59.6771660358 378.365642995 59.6771660358 378.5863179 c 0
 59.6771660358 380.971144454 65.2796589395 386.238893221 73.9500713439 392.303020944 c 2
 283.950071344 539.178020944 l 2
 284.370766635 539.472257234 317.570638189 561.613655095 330.126229129 561.613655095 c 0
 330.896847103 561.613655095 331.479946147 561.487046809 331.851363415 561.224778005 c 0
 540.0600472 414.202420164 540.0600472 414.202420164 540.176914536 414 c 0
 540.274863534 413.83034736 540.322833964 413.634357005 540.322833964 413.4136821 c 0
 540.322833964 411.278591983 535.832277743 406.832758328 528.669957603 401.573470109 c 2
 333.925160417 258.572459615 l 1
 334.033622796 223.584649793 334.100956834 189.275550916 334.100956834 158.008784734 c 0
 334.100956834 63.4146925591 333.511242312 21.5875606218 332.422465782 17.2542906649 c 0
 332.46327063 17.0156231205 332.665016057 17.0452223527 332.665016057 16.8993272493 c 0
 332.665016057 16.5376475123 328.796162692 9.11259076064 304.025295486 -5.18887608903 c 0
 302.382505906 -6.13734109551 280.396323324 -18.7386550945 271.873770871 -18.7386550945 c 0
 270.73635394 -18.7386550945 269.677166013 -18.4582345209 269.677166013 -17.413682062 c 0
EndSplineSet
EndChar

StartChar: runeEoh
Encoding: 5831 5831 58
Width: 718
GlyphClass: 2
Flags: HMW
VStem: 325.765 66.2415
LayerCount: 2
Back
SplineSet
626 373.875 m 1
 626 373.875 463 476.875 358 542.875 c 25
 358 542 358 0 358 0 c 1
 358 0 195 103 90 169 c 1049
EndSplineSet
Fore
SplineSet
326.677166036 525.4613179 m 2
 326.677166036 532.987409604 374.558398008 561.613655095 387.126229129 561.613655095 c 0
 387.856589945 561.613655095 388.418512102 561.49992935 388.791425182 561.264771475 c 0
 657.043742324 392.105661038 657.043742324 392.105661038 657.176914536 391.875 c 0
 657.274863534 391.70534736 657.322833964 391.509357005 657.322833964 391.2886821 c 0
 657.322833964 383.762590396 609.441601992 355.136344905 596.873770871 355.136344905 c 0
 596.143410055 355.136344905 595.581487898 355.25007065 595.208574818 355.485228525 c 2
 389.322833964 485.316162124 l 1
 389.322833964 17.4136820999 l 2
 389.322833964 9.88759039554 341.441601992 -18.7386550945 328.873770871 -18.7386550945 c 0
 328.143410055 -18.7386550945 327.581487898 -18.6249293498 327.208574818 -18.3897714747 c 0
 58.9562576761 150.769338962 58.9562576761 150.769338962 58.8230854638 151 c 0
 58.7251364661 151.16965264 58.6771660358 151.365642995 58.6771660358 151.5863179 c 0
 58.6771660358 159.112409604 106.558398008 187.738655095 119.126229129 187.738655095 c 0
 119.856589945 187.738655095 120.418512102 187.62492935 120.791425182 187.389771475 c 2
 326.677166036 57.5588378763 l 1
 326.677166036 525.4613179 l 2
EndSplineSet
EndChar

StartChar: runePeorth
Encoding: 5832 5832 59
Width: 550
GlyphClass: 2
Flags: HMW
VStem: 59.9735 66.3538
LayerCount: 2
Back
SplineSet
456 542.875 m 5
 360 371.875 l 29
 93 542.875 l 12
 93 542.875 97 10 93 0 c 4
 360 171 l 29
 456 0 l 1029
EndSplineSet
Fore
SplineSet
485.126229129 561.613655095 m 0
 486.26364607 561.613655095 487.322833964 561.333234525 487.322833964 560.2886821 c 0
 487.322833964 559.675559353 487.322833964 559.675559353 390.832045445 387.801342304 c 0
 385.300058403 377.947490385 342.385798897 353.136344905 330.873770871 353.136344905 c 0
 330.13787865 353.136344905 329.572986098 353.251799783 329.200134553 353.490592345 c 2
 124.89704393 484.336391957 l 1
 125.465767396 403.218039751 126.252300848 272.47462398 126.252300848 169.770178228 c 0
 126.252300848 104.53930397 125.935019085 50.6191423351 125.04313522 27.9078025403 c 1
 352.748060437 173.741293971 352.748060437 173.741293971 357 176.196152423 c 0
 371.19762479 184.393154917 384.106597853 189.732656415 389.12120305 189.732656415 c 0
 390.184117645 189.732656415 390.892349048 189.492759889 391.182989419 188.989330141 c 0
 487.322833964 17.7402320449 487.322833964 17.7402320449 487.322833964 17.4136820999 c 0
 487.322833964 9.89202460891 439.462750755 -18.7326564154 426.87879695 -18.7326564154 c 0
 425.815882355 -18.7326564154 425.107650952 -18.4927598886 424.817010581 -17.9893301409 c 2
 332.685200149 146.120457191 l 1
 100.251939563 -2.74129397121 100.251939563 -2.74129397121 96 -5.19615242271 c 0
 81.7943988284 -13.3977600831 68.8788977486 -18.7386550945 63.8737708714 -18.7386550945 c 0
 62.7363539296 -18.7386550945 61.6771660358 -18.4582345249 61.6771660358 -17.4136820999 c 0
 61.6771660358 -17.1525683288 61.7443286005 -16.8568941482 61.8753269519 -16.5293982696 c 0
 62.9692248391 -13.7946535516 63.340657991 42.9961593706 63.340657991 118.868265598 c 0
 63.340657991 279.431684284 61.6772085864 525.449957571 61.6771660358 525.4613179 c 0
 61.6771660358 532.987409604 109.558398008 561.613655095 122.126229129 561.613655095 c 0
 122.86212135 561.613655095 123.427013902 561.498200217 123.799865447 561.259407655 c 2
 359.63534927 410.218704532 l 1
 425.167954555 526.948657696 l 2
 430.699941597 536.802509615 473.614201103 561.613655095 485.126229129 561.613655095 c 0
EndSplineSet
EndChar

StartChar: runeEolhx
Encoding: 5833 5833 60
Width: 615
GlyphClass: 2
Flags: HMW
VStem: 275.02 66.3538
LayerCount: 2
Back
SplineSet
84.33984375 542.875 m 5
 308 371.8515625 l 5
 527.419921875 542.875 l 5
 511 560 l 1053
301 542.875 m 12
 301 542 305 0 301 0 c 1028
EndSplineSet
Fore
SplineSet
270.22464098 442.678475002 m 1
 269.88246926 498.238754986 269.677166036 524.633471368 269.677166036 525.4613179 c 0
 269.677166036 532.987409604 317.558398008 561.613655095 330.126229129 561.613655095 c 0
 332.31324373 561.613655095 332.31505626 561.357989106 332.339369632 557.928471366 c 0
 332.430764652 545.036765748 332.884381164 481.079017634 333.308374047 401.39768043 c 1
 494.288121774 526.870835232 l 1
 479.677166036 542.109191353 479.677166036 542.109191353 479.677166036 542.5863179 c 0
 479.677166036 550.112409604 527.558398008 578.738655095 540.126229129 578.738655095 c 0
 541.03095792 578.738655095 541.677220564 578.564144949 542.025916236 578.200476143 c 0
 558.742755839 560.765808647 558.742755839 560.765808647 558.742755839 560.2886821 c 0
 558.742755839 558.426636818 555.32730378 554.80707345 549.702838171 550.423171413 c 2
 333.410141474 381.837200827 l 1
 333.779615795 309.136651956 334.100956834 226.313192754 334.100956834 158.008784734 c 0
 334.100956834 63.4146925591 333.511242312 21.5875606218 332.422465782 17.2542906649 c 0
 332.46327063 17.0156231205 332.665016057 17.0452223527 332.665016057 16.8993272493 c 0
 332.665016057 16.5376475123 328.796162692 9.11259076064 304.025295486 -5.18887608903 c 0
 302.382505906 -6.13734109551 280.396323324 -18.7386550945 271.873770871 -18.7386550945 c 0
 270.73635394 -18.7386550945 269.677166013 -18.4582345209 269.677166013 -17.413682062 c 0
 269.677166013 -12.2290805191 271.454598811 -36.9230348745 271.454598811 123.093037826 c 0
 271.454598811 195.005547803 271.098400179 283.052627271 270.704919535 358.427831819 c 1
 53.2684010459 524.692317428 53.2684010459 524.692317428 53.1629292138 524.875 c 0
 53.0649802161 525.04465264 53.0170097858 525.240642995 53.0170097858 525.4613179 c 0
 53.0170097858 532.987409604 100.898241758 561.613655095 113.466072879 561.613655095 c 0
 114.264795513 561.613655095 114.862072063 561.477643528 115.230998416 561.19554119 c 2
 270.22464098 442.678475002 l 1
EndSplineSet
EndChar

StartChar: runeSowilo
Encoding: 5834 5834 61
Width: 486
GlyphClass: 2
Flags: HMW
HStem: -17.3627 42.9282 519.404 42.9282
LayerCount: 2
Back
SplineSet
411 522 m 25
 396 542.875 l 16
 396 542 92 364 92 364 c 1
 383 186 l 1
 87 -2 l 9
 76 14 l 1049
EndSplineSet
Fore
SplineSet
44.6771660358 -3.41368209992 m 0
 44.6771660358 4.11240960446 92.5583980083 32.7386550945 105.126229129 32.7386550945 c 0
 106.134659221 32.7386550945 106.821975905 32.5218470201 107.134032968 32.0679458377 c 2
 113.810762719 22.3563389264 l 1
 347.267124183 170.632676613 l 1
 60.9606576374 345.761718006 60.9606576374 345.761718006 60.8230854638 346 c 0
 60.7251364661 346.16965264 60.6771660358 346.365642995 60.6771660358 346.5863179 c 0
 60.6771660358 350.011750868 72.2355911599 359.384900521 87.8417330862 368.522707506 c 2
 87.8417330862 368.522707506 325.630378618 506.02820113 378.693018891 538.99783941 c 0
 395.86041603 549.664532039 417.82335279 561.613655095 425.126229129 561.613655095 c 0
 426.121619222 561.613655095 426.804146841 561.402417853 427.121739223 560.960435123 c 0
 442.322833964 539.805578274 442.322833964 539.805578274 442.322833964 539.4136821 c 0
 442.322833964 531.887590396 394.441601992 503.261344905 381.873770871 503.261344905 c 0
 380.878380778 503.261344905 380.195853159 503.472582147 379.878260777 503.914564877 c 2
 368.685921715 519.490570073 l 1
 331.179541312 497.318746744 248.248634814 448.581261724 128.898035621 378.654613953 c 1
 414.039342363 204.238281994 414.039342363 204.238281994 414.176914536 204 c 0
 414.274863534 203.83034736 414.322833964 203.634357005 414.322833964 203.4136821 c 0
 414.322833964 200.478428709 405.835741878 193.17590048 393.587313463 185.396493244 c 0
 93.9166603888 -4.93486749292 93.9166603888 -4.93486749292 90 -7.19615242271 c 0
 75.7943988284 -15.3977600831 62.8788977486 -20.7386550945 57.8737708714 -20.7386550945 c 0
 56.8653407793 -20.7386550945 56.1780240953 -20.5218470201 55.8659670323 -20.0679458377 c 0
 55.6713201379 -20.0192841141 44.6771660358 -3.80150128667 44.6771660358 -3.41368209992 c 0
EndSplineSet
EndChar

StartChar: runeSigel
Encoding: 5835 5835 62
Width: 468
GlyphClass: 2
Flags: HMW
VStem: 57.5433 66.3538 345.318 66.3517
LayerCount: 2
Back
SplineSet
90 542.875 m 4
 90 544 89 194 89 194 c 29
 378 346 l 5
 378 0 l 1053
EndSplineSet
Fore
SplineSet
58.6771723108 525.465692873 m 2
 58.6771723108 532.99068497 106.562881385 561.613655095 119.126229129 561.613655095 c 0
 120.084447124 561.613655095 121.322859338 561.419358356 121.322827689 560.284307127 c 2
 120.340129882 217.445609764 l 1
 382.274202579 355.210243154 l 2
 393.466904212 361.097062006 402.993339773 364.738655095 407.126229129 364.738655095 c 0
 408.26364607 364.738655095 409.322833964 364.458234525 409.322833964 363.4136821 c 2
 409.322833964 17.4136820999 l 2
 409.322833964 9.88759039554 361.441601992 -18.7386550945 348.873770871 -18.7386550945 c 0
 347.73635393 -18.7386550945 346.677166036 -18.4582345249 346.677166036 -17.4136820999 c 2
 346.677166036 322.563487051 l 1
 84.7257974211 184.789756846 l 2
 73.5330957878 178.902937994 64.0066602271 175.261344905 59.8737708714 175.261344905 c 0
 58.9155528758 175.261344905 57.6771406624 175.455641644 57.6771723108 176.590692873 c 2
 58.6771723108 525.465692873 l 2
EndSplineSet
EndChar

StartChar: runeTir
Encoding: 5839 5839 63
Width: 596
GlyphClass: 2
Flags: HMW
VStem: 263.283 66.3538
LayerCount: 2
Back
SplineSet
510 379 m 1
 301 542.875 l 5
 86 376 l 5
 102.419921875 358.875 l 1053
301 542.875 m 12
 301 542 305 0 301 0 c 1028
EndSplineSet
Fore
SplineSet
133.742755839 376.2886821 m 0
 133.742755839 368.762590396 85.8615238667 340.136344905 73.2936927464 340.136344905 c 0
 72.388963955 340.136344905 71.7427013105 340.310855051 71.394005639 340.674523857 c 0
 54.6771660358 358.109191353 54.6771660358 358.109191353 54.6771660358 358.5863179 c 0
 54.6771660358 360.46638741 58.1590599114 364.138164534 63.8810346803 368.579348439 c 2
 278.88103468 535.454348439 l 2
 294.825712449 547.830014033 321.890756626 561.613655095 330.126229129 561.613655095 c 0
 330.933753235 561.613655095 331.535367152 561.474629471 331.903267526 561.186162133 c 0
 541.075013602 397.176497596 541.075013602 397.176497596 541.176914536 397 c 0
 541.274863534 396.83034736 541.322833964 396.634357005 541.322833964 396.4136821 c 0
 541.322833964 388.887590396 493.441601992 360.261344905 480.873770871 360.261344905 c 0
 480.066246765 360.261344905 479.464632848 360.400370529 479.096732474 360.688837867 c 2
 332.884086382 475.332844462 l 1
 333.405180286 390.461790067 334.100956834 258.516760855 334.100956834 158.008784734 c 0
 334.100956834 63.4146925591 333.511242312 21.5875606218 332.422465782 17.2542906649 c 0
 332.46327063 17.0156231205 332.665016057 17.0452223527 332.665016057 16.8993272493 c 0
 332.665016057 16.5376475123 328.796162692 9.11259076064 304.025295486 -5.18887608903 c 0
 302.382505906 -6.13734109551 280.396323324 -18.7386550945 271.873770871 -18.7386550945 c 0
 270.73635394 -18.7386550945 269.677166013 -18.4582345209 269.677166013 -17.413682062 c 0
 269.677166013 -12.2290805191 271.454598811 -36.9230348745 271.454598811 123.093037826 c 0
 271.454598811 258.72642221 270.187482301 451.755814205 269.793002093 508.906023126 c 1
 119.151458486 391.983662245 l 1
 133.742755839 376.765808647 133.742755839 376.765808647 133.742755839 376.2886821 c 0
EndSplineSet
EndChar

StartChar: runeBeorc
Encoding: 5842 5842 64
Width: 388
GlyphClass: 2
Flags: HMW
VStem: 55.9227 66.381
LayerCount: 2
Back
SplineSet
87 542.875 m 1
 298 396 l 1
 94 271 l 1
 296 150 l 1
 87 0 l 1
 91 0 87 542 87 542.875 c 1024
89.0029296875 270.861328125 m 1032
EndSplineSet
Fore
SplineSet
119.803077862 293.93199254 m 1
 262.131139729 381.142814763 l 1
 118.849868237 480.879481826 l 1
 119.16102595 430.680618238 119.543522628 362.523750857 119.803077862 293.93199254 c 1
120.100956834 158.008784734 m 0
 120.100956834 94.5649780436 119.824083825 52.2149047853 119.272307646 31.7152359709 c 1
 261.529414626 133.81363811 l 1
 120.030704658 218.572766358 l 1
 120.075510019 197.601104509 120.100956834 177.230066891 120.100956834 158.008784734 c 0
57.4545988114 123.093037826 m 0
 57.4545988114 222.552832645 56.8740650247 348.600717046 55.6771660358 525.4613179 c 0
 55.6771660358 528.97096571 67.8109090562 538.724376408 84 548.071152423 c 0
 99.9233649852 555.889050363 112.838866065 561.229945375 117.843992942 561.229945375 c 1
 329.057989215 414.205984699 329.057989215 414.205984699 329.176914536 414 c 0
 329.274863534 413.83034736 329.322833964 413.634357005 329.322833964 413.4136821 c 0
 329.322833964 410.26255367 319.541458597 402.078140094 305.825703758 393.67387855 c 2
 130.27454966 286.105769422 l 1
 327.036316494 168.243522952 327.036316494 168.243522952 327.176914536 168 c 0
 327.274863534 167.83034736 327.322833964 167.634357005 327.322833964 167.4136821 c 0
 327.322833964 165.164191066 322.338165819 160.349697137 314.495926435 154.721295666 c 2
 109.720771841 7.75348136395 l 2
 97.1229945754 -2.38076299075 67.1624149967 -18.7386550945 57.8737708714 -18.7386550945 c 0
 56.7363539296 -18.7386550945 55.6771660358 -18.4582345249 55.6771660358 -17.4136820999 c 0
 55.6771660358 -13.9272101606 62.5514863151 -8.99348747212 81.7934619256 4.81654287037 c 1
 56.7144075166 0.469116450343 l 1
 57.2530987623 24.0455457539 57.4545988114 69.0056631686 57.4545988114 123.093037826 c 0
EndSplineSet
EndChar

StartChar: runeOpenP
Encoding: 5845 5845 65
Width: 462
GlyphClass: 2
Flags: HMW
HStem: 185.442 56.5835
VStem: 58.4783 66.3538
LayerCount: 2
Back
SplineSet
94 322.875 m 0
 254 334.875 345 448.875 370 542.875 c 1024
94 220 m 0
 254 208 345 94 370 0 c 1024
90 542.875 m 12
 90 542 94 0 90 0 c 1028
EndSplineSet
Fore
SplineSet
60.4545988114 123.093037826 m 0
 60.4545988114 287.177481808 58.6771660358 521.437595841 58.6771660358 525.4613179 c 0
 58.6771660358 532.987409604 106.558398008 561.613655095 119.126229129 561.613655095 c 0
 121.31324373 561.613655095 121.31505626 561.357989106 121.339369632 557.928471366 c 0
 121.452771601 541.932579991 122.123834669 447.317540236 122.60402956 341.596894121 c 1
 129.205724675 342.094253806 189.331285879 347.161687855 227.371113653 369.12399266 c 0
 255.576459089 385.408356441 316.573093156 442.586743715 338.750715017 525.974601911 c 0
 341.014304376 534.485697904 386.969574679 561.613655095 399.126229129 561.613655095 c 0
 400.26364607 561.613655095 401.322833964 561.333234525 401.322833964 560.2886821 c 0
 401.322833964 558.707298269 385.50143194 488.807686582 320.725272782 424.230674874 c 0
 301.125675503 404.691334485 275.634174833 383.132277564 233.371113653 358.731687815 c 0
 199.267209434 339.041789534 163.206556815 322.895360889 122.727388345 313.102122175 c 1
 122.829240332 288.307361464 122.917301965 263.240323457 122.982302009 238.737227922 c 1
 123.030979622 238.738178674 123.078957187 238.738655095 123.126229129 238.738655095 c 0
 123.283300241 238.738655095 123.432580958 238.733395207 123.573866673 238.722798778 c 0
 286.019695201 226.539361638 376.473421316 111.024179973 401.281840609 17.7445234316 c 0
 401.309270156 17.6413883369 401.322833964 17.5310250403 401.322833964 17.4136820999 c 0
 401.322833964 9.88759039554 353.441601992 -18.7386550945 340.873770871 -18.7386550945 c 0
 340.052574197 -18.7386550945 338.944911672 -18.5971120106 338.718159391 -17.7445234316 c 0
 316.851791827 64.4730186066 244.936298296 160.207721929 123.077564576 191.682294589 c 1
 123.092790466 180.155367477 123.100956834 168.897586887 123.100956834 158.008784734 c 0
 123.100956834 63.414692559 122.511242312 21.5875606218 121.422465782 17.2542906649 c 0
 121.46327063 17.0156231205 121.665016057 17.0452223527 121.665016057 16.8993272493 c 0
 121.665016057 16.5376475123 117.796162692 9.11259076064 93.025295486 -5.18887608903 c 0
 91.3825059056 -6.13734109551 69.3963233244 -18.7386550945 60.8737708714 -18.7386550945 c 0
 59.7363539402 -18.7386550945 58.6771660131 -18.4582345209 58.6771660131 -17.413682062 c 0
 58.6771660131 -12.2290805191 60.4545988114 -36.9230348745 60.4545988114 123.093037826 c 0
EndSplineSet
EndChar

StartChar: runeEh
Encoding: 5846 5846 66
Width: 596
GlyphClass: 2
Flags: HMW
VStem: 57.5428 66.3538 473.073 66.3538
LayerCount: 2
Back
SplineSet
90 0 m 4
 94 0 90 542 90 542.875 c 4
 296 377 l 25
 380 442 507 542.875 507 542.875 c 5
 507 542.875 511 0 507 0 c 1028
EndSplineSet
Fore
SplineSet
123.100956834 158.008784734 m 0
 123.100956834 63.414692559 122.511242312 21.5875606218 121.422465782 17.2542906649 c 0
 121.46327063 17.0156231205 121.665016057 17.0452223527 121.665016057 16.8993272493 c 0
 121.665016057 16.5376475123 117.796162692 9.11259076065 93.025295486 -5.18887608903 c 0
 91.3825059056 -6.1373410955 69.3963233244 -18.7386550945 60.8737708714 -18.7386550945 c 0
 59.7363539296 -18.7386550945 58.6771660358 -18.4582345249 58.6771660358 -17.4136820999 c 0
 58.6771660358 -13.9040342896 70.8109090562 -4.15062359163 87 5.19615242271 c 1
 59.7144075166 0.469116450343 l 1
 60.2530987623 24.0455457539 60.4545988114 69.0056631686 60.4545988114 123.093037826 c 0
 60.4545988114 287.177481808 58.6771660358 521.437595841 58.6771660358 525.4613179 c 0
 58.6771660358 532.987409604 106.558398008 561.613655095 119.126229129 561.613655095 c 0
 119.943043287 561.613655095 120.549182271 561.471412268 120.915872067 561.17614688 c 2
 317.100488858 403.204674501 l 1
 394.941163783 464.027677435 484.016537615 534.775682014 484.016537615 534.775682014 c 2
 499.689843372 547.224852566 527.696746425 561.613655095 536.126229129 561.613655095 c 0
 536.917753416 561.613655095 538.314043849 561.487252882 538.322792961 560.299834425 c 0
 538.322864983 560.290059658 540.100913895 319.072622371 540.100913895 158.201785743 c 0
 540.100913895 64.1809395151 539.518104123 21.7736494001 538.432878117 17.2970077929 c 0
 538.471658224 17.0622965239 538.661117715 17.0853520773 538.661117715 16.9414163446 c 0
 538.661117715 16.5795098682 535.168032798 9.32730178616 510.025255188 -5.18888763536 c 0
 508.382686486 -6.13722511774 486.396311135 -18.7386550945 477.873770871 -18.7386550945 c 0
 476.736353838 -18.7386550945 475.677166233 -18.4582345595 475.677166233 -17.4136824302 c 0
 475.677166233 -16.0064494377 477.454743599 -33.1495288369 477.454743599 123.298389441 c 0
 477.454743599 258.261449993 476.203021982 449.904234934 475.800367355 508.060569311 c 1
 431.186479275 472.798360292 367.459472903 422.600665193 317.998774944 384.327506058 c 0
 302.023322494 371.965548805 275.084131573 358.261344905 266.873770871 358.261344905 c 0
 266.056956713 358.261344905 265.450817729 358.403587732 265.084127933 358.69885312 c 2
 121.892262967 473.999584193 l 1
 122.412427087 389.084787909 123.100956834 257.991974734 123.100956834 158.008784734 c 0
EndSplineSet
EndChar

StartChar: runeMan
Encoding: 5847 5847 67
Width: 596
GlyphClass: 2
Flags: HMW
VStem: 57.5428 66.3538 473.073 66.3538
LayerCount: 2
Back
SplineSet
90 0 m 4
 94 0 90 542 90 542.875 c 4
 506 295 l 1049
507 0 m 4
 511 0 507 542.875 507 542.875 c 5
 93 296 l 1049
EndSplineSet
Fore
SplineSet
540.100913895 158.201785742 m 0
 540.100913895 64.1809395144 539.518104123 21.7736494001 538.432878117 17.2970077929 c 0
 538.471658224 17.0622965239 538.661117715 17.0853520773 538.661117715 16.9414163446 c 0
 538.661117715 16.5795098682 535.168032798 9.32730178617 510.025255188 -5.18888763536 c 0
 508.382686486 -6.13722511774 486.396311135 -18.7386550945 477.873770871 -18.7386550945 c 0
 476.73635393 -18.7386550945 475.677166036 -18.4582345249 475.677166036 -17.4136820999 c 0
 475.677166036 -13.9040342896 487.810909056 -4.15062359163 504 5.19615242271 c 1
 476.744315191 1.84568357278 l 1
 477.260681586 25.8034036025 477.454743599 70.1571953567 477.454743599 123.298389442 c 0
 477.454743599 170.112999061 477.304138135 223.747237005 477.090603427 276.264535389 c 1
 477.016759762 276.262410731 476.944476022 276.261344905 476.873770871 276.261344905 c 0
 476.163649021 276.261344905 475.612759995 276.368855091 475.240011086 276.590958783 c 2
 273.64573645 396.711585767 l 1
 122.753224843 306.731902667 l 1
 122.95803266 255.572796645 123.100956834 203.561941677 123.100956834 158.008784734 c 0
 123.100956834 63.414692559 122.511242312 21.5875606218 121.422465782 17.2542906649 c 0
 121.46327063 17.0156231205 121.665016057 17.0452223527 121.665016057 16.8993272493 c 0
 121.665016057 16.5376475123 117.796162692 9.11259076065 93.025295486 -5.18887608903 c 0
 91.3825059056 -6.1373410955 69.3963233244 -18.7386550945 60.8737708714 -18.7386550945 c 0
 59.7363539296 -18.7386550945 58.6771660358 -18.4582345249 58.6771660358 -17.4136820999 c 0
 58.6771660358 -13.9040342896 70.8109090562 -4.15062359163 87 5.19615242271 c 1
 59.7144075166 0.469116450343 l 1
 60.2530987623 24.0455457539 60.4545988114 69.0056631686 60.4545988114 123.093037826 c 0
 60.4545988114 287.177481808 58.6771660358 521.437595841 58.6771660358 525.4613179 c 0
 58.6771660358 532.987409604 106.558398008 561.613655095 119.126229129 561.613655095 c 0
 119.836350979 561.613655095 120.387240005 561.506144909 120.759988914 561.284041217 c 2
 323.516233692 440.471050414 l 1
 492.201346323 541.060753749 502.180271205 547.020531513 504 548.071152423 c 0
 518.205601172 556.272760083 531.121102251 561.613655095 536.126229129 561.613655095 c 0
 536.917753416 561.613655095 538.31404385 561.487252882 538.322792961 560.299834425 c 0
 538.322864983 560.290059658 540.100913895 319.07262237 540.100913895 158.201785742 c 0
122.695638273 320.718430863 m 1
 261.884938513 403.719296797 l 1
 121.810585271 487.183071581 l 1
 122.088521983 442.821046211 122.432670376 382.901489025 122.695638273 320.718430863 c 1
476.754810519 349.163328705 m 1
 476.352545741 428.02774157 475.896171821 494.625534492 475.736271509 517.221491184 c 1
 335.277031629 433.463339383 l 1
 476.754810519 349.163328705 l 1
EndSplineSet
EndChar

StartChar: runeLagu
Encoding: 5850 5850 68
Width: 449
GlyphClass: 2
Flags: HMW
VStem: 57.5428 66.3538
LayerCount: 2
Back
SplineSet
89 0 m 4
 93 0 89 542 89 542.875 c 28
 353 360 l 1053
EndSplineSet
Fore
SplineSet
122.100956834 158.008784734 m 0
 122.100956834 63.414692559 121.511242312 21.5875606218 120.422465782 17.2542906649 c 0
 120.46327063 17.0156231205 120.665016057 17.0452223527 120.665016057 16.8993272493 c 0
 120.665016057 16.5376475123 116.796162692 9.11259076065 92.025295486 -5.18887608903 c 0
 90.3825059056 -6.1373410955 68.3963233244 -18.7386550945 59.8737708714 -18.7386550945 c 0
 58.7363539296 -18.7386550945 57.6771660358 -18.4582345249 57.6771660358 -17.4136820999 c 0
 57.6771660358 -13.9040342896 69.8109090562 -4.15062359163 86 5.19615242271 c 1
 58.7144075166 0.469116450343 l 1
 59.2530987623 24.0455457539 59.4545988114 69.0056631686 59.4545988114 123.093037826 c 0
 59.4545988114 287.177481808 57.6771660358 521.437595841 57.6771660358 525.4613179 c 0
 57.6771660358 532.987409604 105.558398008 561.613655095 118.126229129 561.613655095 c 0
 118.890040276 561.613655095 119.469630552 561.489273579 119.84147176 561.231696076 c 0
 384.057288838 378.207197788 384.057288838 378.207197788 384.176914536 378 c 0
 384.274863534 377.83034736 384.322833964 377.634357005 384.322833964 377.4136821 c 0
 384.322833964 369.887590396 336.441601992 341.261344905 323.873770871 341.261344905 c 0
 323.109959724 341.261344905 322.530369448 341.385726421 322.15852824 341.643303924 c 2
 120.848548195 481.092404685 l 1
 121.372926352 396.525551714 122.100956834 260.819981983 122.100956834 158.008784734 c 0
EndSplineSet
EndChar

StartChar: runeIng
Encoding: 5853 5853 69
Width: 470
GlyphClass: 2
Flags: W
HStem: -35.8637 21G<64.4284 71.1577> -18.7987 37.5374<351.22 410.126> 524.136 37.5374<63.8738 122.78>
LayerCount: 2
Back
SplineSet
93 542.875 m 12
 93 543.875 389 268.875 389 268.875 c 5
 389 268.875 77 0.125 77 0 c 4
 77 -0.125 94 -17.125 94 -17.125 c 1053
381 0 m 12
 381 -1 85 274 85 274 c 5
 85 274 397 542.75 397 542.875 c 4
 397 543 380 560 380 560 c 1053
EndSplineSet
Fore
SplineSet
348.990399294 541.782862667 m 2xa0
 348.804143601 541.969118342 348.677166036 542.227646713 348.677166036 542.5863179 c 0
 348.677166036 550.112409604 396.558398008 578.738655095 409.126229129 578.738655095 c 0
 410.017029968 578.738655095 410.657261379 578.569476624 411.009600706 578.217137333 c 0
 428.322833964 560.903905819 428.322833964 560.903905819 428.322833964 560.2886821 c 0
 428.322833964 558.803541162 426.150117492 556.200367111 422.41680584 552.983078104 c 2
 272.62605344 423.896576336 l 1
 274.102492948 422.527363687 419.97090887 287.23181228 420.176914536 286.875 c 0
 420.274863534 286.70534736 420.322833964 286.509357005 420.322833964 286.2886821 c 0
 420.322833964 284.803541162 418.150117492 282.200367111 414.41680584 278.983078104 c 2
 267.071395917 152.003920754 l 1
 323.437093912 99.7350429016 379.20361324 48.0963856355 401.647218192 27.5453251707 c 1
 378.003452837 5.19814587761 l 1
 392.207693977 13.3986254991 405.121507773 18.7386550945 410.126229129 18.7386550945 c 0
 411.26364607 18.7386550945 412.322833964 18.4582345249 412.322833964 17.4136820999 c 0
 412.322833964 17.3296075655 412.381674458 17.2612192682 412.381674458 17.1075265494 c 0
 412.381674458 10.9625584166 366.283047903 -18.798705587 351.220219836 -18.798705587 c 0x60
 350.447120558 -18.798705587 350.433464468 -18.7862010393 339.700349056 -8.95814960677 c 0
 318.505253441 10.4496813756 267.614633549 57.5611218828 214.560375248 106.751033951 c 1
 109.743886548 16.4224012613 l 1
 114.058354113 12.0435694003 125.009600706 1.09213733294 125.009600706 1.09213733294 c 2
 125.195856399 0.905881658177 125.322833964 0.647353287102 125.322833964 0.288682099922 c 0
 125.322833964 -7.23740960446 77.4416019917 -35.8636550945 64.8737708714 -35.8636550945 c 0
 63.9829700322 -35.8636550945 63.3427386209 -35.6944766243 62.990399294 -35.3421373329 c 0
 45.6771660358 -18.0289058194 45.6771660358 -18.0289058194 45.6771660358 -17.4136820999 c 0
 45.6771660358 -15.9285411618 47.8498825076 -13.3253671115 51.5831941597 -10.1080781036 c 2
 201.37394656 118.978423664 l 1
 199.897507052 120.347636313 54.0290911298 255.64318772 53.8230854638 256 c 0
 53.7251364661 256.16965264 53.6771660358 256.365642995 53.6771660358 256.5863179 c 0
 53.6771660358 258.071458838 55.8498825076 260.674632889 59.5831941597 263.891921896 c 2
 206.928604083 390.871079246 l 1
 150.562906088 443.139957098 94.7963867603 494.778614365 72.352781808 515.329674829 c 1
 95.9965471626 537.676854122 l 1
 81.7923060226 529.476374501 68.8784922274 524.136344905 63.8737708714 524.136344905 c 0
 62.7363539296 524.136344905 61.6771660358 524.416765475 61.6771660358 525.4613179 c 0
 61.6771660358 525.545392435 61.6183255415 525.613780732 61.6183255415 525.767473451 c 0
 61.6183255415 531.912441583 107.716952097 561.673705587 122.779780164 561.673705587 c 0
 123.552879442 561.673705587 123.566535532 561.661201039 134.299650944 551.833149607 c 0
 155.494746559 532.425318624 206.385366451 485.313878117 259.439624752 436.123966049 c 1
 364.256113452 526.452598739 l 1
 359.941645887 530.8314306 348.990399294 541.782862667 348.990399294 541.782862667 c 2xa0
220.11395963 378.642764723 m 1
 117.846985716 290.511249944 l 1
 129.171204996 279.991375703 190.28025726 223.227353114 253.88604037 164.232235277 c 1
 356.153014284 252.363750056 l 1
 344.828795004 262.883624297 283.71974274 319.647646886 220.11395963 378.642764723 c 1
EndSplineSet
EndChar

StartChar: runeDaeg
Encoding: 5854 5854 70
Width: 596
GlyphClass: 2
Flags: HMW
VStem: 57.5428 66.3538 473.073 66.3538
LayerCount: 2
Back
SplineSet
90 0 m 5
 90 0 90 542 90 542.875 c 4
 507 0 l 5
 507 542.875 l 5
 90 0 l 5
EndSplineSet
Fore
SplineSet
60.8737708714 -18.7386550945 m 0
 59.7363539296 -18.7386550945 58.6771660358 -18.4582345249 58.6771660358 -17.4136820999 c 2
 58.6771660358 525.4613179 l 2
 58.6771660358 532.987409604 106.558398008 561.613655095 119.126229129 561.613655095 c 0
 120.101482589 561.613655095 120.776403885 561.410878017 121.102017029 560.986975774 c 2
 311.652614633 312.91705809 l 1
 476.950004018 528.110871669 l 2
 485.339466537 539.032764871 525.245402185 561.613655095 536.126229129 561.613655095 c 0
 537.26364607 561.613655095 538.322833964 561.333234525 538.322833964 560.2886821 c 2
 538.322833964 17.4136820999 l 2
 538.322833964 9.88759039554 490.441601992 -18.7386550945 477.873770871 -18.7386550945 c 0
 476.898517411 -18.7386550945 476.223596115 -18.5358780173 475.897982971 -18.1119757738 c 2
 285.347385367 229.95794191 l 1
 120.049995982 14.7641283311 l 2
 111.660533463 3.84223512903 71.7545978146 -18.7386550945 60.8737708714 -18.7386550945 c 0
121.322833964 443.494700526 m 1
 121.322833964 65.134612813 l 1
 266.638198068 254.314656669 l 1
 121.322833964 443.494700526 l 1
475.677166036 477.740387187 m 1
 330.361801932 288.560343331 l 1
 475.677166036 99.3802994743 l 1
 475.677166036 477.740387187 l 1
EndSplineSet
EndChar

StartChar: runeEthel
Encoding: 5855 5855 71
Width: 567
GlyphClass: 2
Flags: W
HStem: -35.7387 21G<64.43 71.1577 452.515 459.423>
LayerCount: 2
Back
SplineSet
94 -17 m 25
 94 -17 77 -0.1669921875 77 0 c 0
 77 0.1669921875 493.129882812 358.612304688 493.129882812 358.612304688 c 1
 493.129882812 358.612304688 393.47265625 450.754882812 294 543 c 1
 190.212890625 453.579101562 87.669921875 365.447265625 87.669921875 365.447265625 c 1
 87.669921875 365.447265625 482.459960938 -1.333984375 482.459960938 0 c 1040
EndSplineSet
Fore
SplineSet
460.279731811 342.098320281 m 1
 274.314336831 514.296134612 l 1
 120.522107398 381.953670975 l 1
 134.063133976 369.37429008 218.941940479 290.528843394 306.35869743 209.452290376 c 1
 460.279731811 342.098320281 l 1
109.741713297 16.4205349904 m 1
 125.322833964 0.730425262234 125.322833964 0.730425262234 125.322833964 0.413682099922 c 0
 125.322833964 -7.11240960446 77.4416019917 -35.7386550945 64.8737708714 -35.7386550945 c 0
 63.9862629989 -35.7386550945 63.3474754502 -35.5707250949 62.9943185053 -35.2210372354 c 0
 45.6771660358 -18.0739923642 45.6771660358 -18.0739923642 45.6771660358 -17.4136820999 c 0
 45.6771660358 -15.9285445752 47.8498725202 -13.3253790776 51.5831684181 -10.1081002871 c 2
 253.846758267 164.198564786 l 1
 155.228495044 255.653909103 56.6903480192 347.201190719 56.6903480192 347.201190719 c 2
 56.4863624104 347.390704357 56.3470879108 347.657950837 56.3470879108 348.033583525 c 0
 56.3470879108 349.523483987 58.5337527769 352.138595104 62.2890572276 355.370138366 c 2
 268.619135353 532.922872741 l 2
 283.140669148 545.41905389 314.095494544 561.738655095 323.126229129 561.738655095 c 0
 323.991156359 561.738655095 324.619858519 561.579161591 324.978171555 561.247375553 c 0
 524.228212326 376.748417939 524.228212326 376.748417939 524.306797348 376.612304688 c 0
 524.404746346 376.442652048 524.452716776 376.246661693 524.452716776 376.025986788 c 0
 524.452716776 374.540849263 522.280010292 371.937683766 518.546714394 368.720404975 c 2
 319.544200903 197.224069457 l 1
 446.481766872 79.5118112569 508.87575081 21.9376919003 513.138821699 18.4541246079 c 0
 513.444647 18.2956622476 513.782794902 17.9990639649 513.782794902 17.4136820999 c 0
 513.782794902 17.3295282803 513.841614151 17.261063526 513.841614151 17.107333628 c 0
 513.841614151 10.2735513083 465.766710367 -18.8919219273 453.079545352 -18.8919219273 c 0
 451.949840126 -18.8919219273 451.746475821 -18.7057066962 437.713893843 -5.85644830967 c 0
 408.943494038 20.4878339872 339.144888429 85.1082438876 267.033065841 151.971036824 c 1
 109.741713297 16.4205349904 l 1
EndSplineSet
EndChar

StartChar: uni0148
Encoding: 5856 5856 72
Width: 713
GlyphClass: 2
Flags: HMW
VStem: 354 8.77312e-60
LayerCount: 2
Back
SplineSet
70.43359375 542.875 m 5
 145.426757812 409.293945312 l 29
 354 542.875 l 1036
637.56640625 542.875 m 5
 562.573242188 409.293945312 l 29
 354 542.875 l 4
 354 542.875 357.125 5.8125 354 -2 c 1028
EndSplineSet
Fore
SplineSet
666.692635379 561.613655095 m 0
 667.83005232 561.613655095 668.889240214 561.333234525 668.889240214 560.2886821 c 0
 668.889240214 559.675555958 668.889240214 559.675555958 593.405282231 425.220277993 c 0
 587.873261779 415.366404832 544.959023198 390.555290217 533.447013059 390.555290217 c 0
 532.711119666 390.555290217 532.146226487 390.670745462 531.773374959 390.909538798 c 2
 385.780829278 484.410689877 l 1
 386.235386909 403.206401598 386.86475407 272.164431364 386.86475407 169.050891719 c 0
 386.86475407 83.907831743 386.43564154 17.8068194982 385.124673048 14.5293982696 c 0
 381.489874299 5.44240139754 336.768655039 -20.7386550945 324.873770871 -20.7386550945 c 0
 323.73635393 -20.7386550945 322.677166036 -20.4582345249 322.677166036 -19.4136820999 c 0
 322.677166036 -19.1525683288 322.7443286 -18.8568941482 322.875326952 -18.5293982696 c 0
 323.677635275 -16.5236274629 323.951700192 38.8095902645 323.951700192 113.479710967 c 0
 323.951700192 255.434442631 322.961188775 467.27562064 322.726582534 515.460073374 c 1
 152.67882922 406.552727461 152.67882922 406.552727461 148.426757812 404.097792889 c 0
 134.229131921 395.900789759 121.320157958 390.561288069 116.30555406 390.561288069 c 0
 115.242640212 390.561288069 114.53440934 390.801184391 114.24376922 391.304613697 c 0
 39.1107597858 525.134766988 39.1107597858 525.134766988 39.1107597858 525.4613179 c 0
 39.1107597858 532.982974927 86.9708441102 561.607657243 99.5547975018 561.607657243 c 0
 100.61771135 561.607657243 101.325942222 561.367760921 101.616582342 560.864331615 c 2
 172.741513141 434.173540666 l 1
 346.747928592 545.616217851 346.747928592 545.616217851 351 548.071152423 c 0
 365.205601172 556.272760083 378.121102251 561.613655095 383.126229129 561.613655095 c 0
 383.161489962 561.613655095 383.196358194 561.612859002 383.23083151 561.612859002 c 0
 383.320697503 561.612859002 383.407879823 561.603269153 383.492337463 561.603269153 c 0
 383.505857358 561.603269153 384.295441872 561.582466511 384.79986723 561.259406513 c 0
 562.208705572 447.637642339 562.208705572 447.637642339 562.208705572 447.637642339 c 1
 606.734366207 526.948667319 l 2
 612.266386659 536.80254048 655.18062524 561.613655095 666.692635379 561.613655095 c 0
EndSplineSet
EndChar

StartChar: runeIor
Encoding: 5857 5857 73
Width: 453
GlyphClass: 2
Flags: HMW
VStem: 194.433 66.3538
LayerCount: 2
Back
SplineSet
115 149 m 25
 104 162 l 1
 355 358 l 1
 344 372 l 1053
99 360 m 25
 350 164 l 1049
227 542.875 m 0
 227 542.875 230.125 5.8125 227 -2 c 1024
EndSplineSet
Fore
SplineSet
195.677166036 525.4613179 m 0
 195.677166036 532.987409604 243.558398008 561.613655095 256.126229129 561.613655095 c 0
 256.917768315 561.613655095 258.315885392 561.487279783 258.32280835 560.297500304 c 0
 258.32280835 560.148196361 259.211754613 427.743556496 259.639573882 293.387370292 c 1
 322.107311993 342.166958618 l 1
 312.677166036 354.168962563 312.677166036 354.168962563 312.677166036 354.5863179 c 0
 312.677166036 362.112409604 360.558398008 390.738655095 373.126229129 390.738655095 c 0
 374.094531418 390.738655095 374.766767552 390.538758325 375.095001335 390.121006238 c 0
 386.322833964 375.831037437 386.322833964 375.831037437 386.322833964 375.4136821 c 0
 386.322833964 373.559498679 382.936162218 369.962606901 377.354040319 365.603659124 c 2
 261.765347923 275.343166257 l 1
 381.074429878 182.177508635 381.074429878 182.177508635 381.176914536 182 c 0
 381.274863534 181.83034736 381.322833964 181.634357005 381.322833964 181.4136821 c 0
 381.322833964 173.887590396 333.441601992 145.261344905 320.873770871 145.261344905 c 0
 320.067685337 145.261344905 319.466777003 145.399875633 319.098700898 145.687297611 c 2
 259.855086895 191.949243208 l 1
 259.861428728 184.18880713 259.86475407 176.546067698 259.86475407 169.050891719 c 0
 259.86475407 83.907831743 259.43564154 17.8068194982 258.124673048 14.5293982696 c 0
 254.489874299 5.44240139754 209.768655039 -20.7386550945 197.873770871 -20.7386550945 c 0
 196.73635393 -20.7386550945 195.677166036 -20.4582345249 195.677166036 -19.4136820999 c 0
 195.677166036 -19.1525683288 195.7443286 -18.8568941482 195.875326952 -18.5293982696 c 0
 196.677635275 -16.5236274629 196.951700192 38.8095902645 196.951700192 113.479710967 c 0
 196.951700192 147.572722223 196.894566741 185.696836852 196.804493093 224.616761688 c 1
 136.976499602 177.898487887 l 1
 146.322833964 166.852820005 146.322833964 166.852820005 146.322833964 166.4136821 c 0
 146.322833964 158.887590396 98.4416019917 130.261344905 85.8737708714 130.261344905 c 0
 84.9286386611 130.261344905 84.2655732529 130.451789648 83.9291513957 130.849379115 c 0
 72.6771660358 144.147179995 72.6771660358 144.147179995 72.6771660358 144.5863179 c 0
 72.6771660358 146.440501321 76.063837782 150.037393099 81.6459596807 154.396340876 c 2
 194.795876566 242.752451273 l 1
 67.9255701221 341.822491365 67.9255701221 341.822491365 67.8230854638 342 c 0
 67.7251364661 342.16965264 67.6771660358 342.365642995 67.6771660358 342.5863179 c 0
 67.6771660358 350.112409604 115.558398008 378.738655095 128.126229129 378.738655095 c 0
 128.932314663 378.738655095 129.533222997 378.600124367 129.901299102 378.312702389 c 2
 196.509081947 326.300250446 l 1
 196.141042651 434.12106567 195.67719165 525.452499696 195.677166036 525.4613179 c 0
EndSplineSet
EndChar

StartChar: runeCalc
Encoding: 5859 5859 74
Width: 629
GlyphClass: 2
Flags: HMW
VStem: 283.845 66.3538
LayerCount: 2
Back
SplineSet
517.66015625 -0.0234375 m 1
 294 171 l 1
 74.580078125 -0.0234375 l 1
 91 -17.1484375 l 1049
301 542.875 m 8
 301 542 305 0 301 0 c 1024
EndSplineSet
Fore
SplineSet
271.421996112 163.221827164 m 1
 271.173910995 325.15088536 269.677166036 521.838880971 269.677166036 525.4613179 c 0
 269.677166036 532.987409604 317.558398008 561.613655095 330.126229129 561.613655095 c 0
 332.31324373 561.613655095 332.31505626 561.357989106 332.339369632 557.928471366 c 0
 332.50978978 533.889892524 333.939631229 332.297902714 334.088449709 182.287759669 c 1
 548.731598954 18.159245072 548.731598954 18.159245072 548.837070786 17.9765625 c 0
 548.935019784 17.8069098596 548.982990214 17.610919505 548.982990214 17.3902445999 c 0
 548.982990214 9.86415289554 501.101758242 -18.7620925945 488.533927121 -18.7620925945 c 0
 487.735204487 -18.7620925945 487.137927937 -18.6260810282 486.769001584 -18.3439786896 c 2
 333.996443964 98.4747180234 l 1
 333.77311475 43.4105600563 333.232557306 20.4784098205 332.422465782 17.2542906649 c 0
 332.46327063 17.0156231205 332.665016057 17.0452223527 332.665016057 16.8993272493 c 0
 332.665016057 16.5376475123 328.796162692 9.11259076064 304.025295486 -5.18887608903 c 0
 302.382505906 -6.13734109551 280.396323324 -18.7386550945 271.873770871 -18.7386550945 c 0
 270.73635394 -18.7386550945 269.677166013 -18.4582345209 269.677166013 -17.413682062 c 0
 269.677166013 -12.2290805191 271.454598811 -36.9230348746 271.454598811 123.093037826 c 0
 271.454598811 129.796407647 271.451503747 136.639973218 271.445571929 143.600402329 c 1
 107.711878226 15.9807272681 l 1
 122.322833964 0.742371147092 122.322833964 0.742371147092 122.322833964 0.265244599922 c 0
 122.322833964 -7.26084710446 74.4416019917 -35.8870925945 61.8737708714 -35.8870925945 c 0
 60.96904208 -35.8870925945 60.3227794355 -35.7125824488 59.974083764 -35.3489136433 c 0
 43.2572441608 -17.9142461471 43.2572441608 -17.9142461471 43.2572441608 -17.4371195999 c 0
 43.2572441608 -15.5750743181 46.6726962198 -11.9555109501 52.2971618291 -7.57160891254 c 2
 271.421996112 163.221827164 l 1
EndSplineSet
EndChar

StartChar: runeEar
Encoding: 5861 5861 75
Width: 596
GlyphClass: 2
Flags: HMW
VStem: 57.5428 66.3538 473.073 66.3538
LayerCount: 2
Back
SplineSet
507 0 m 1
 507 542.875 l 1
 297 414 l 25
 90 542.875 l 0
 90 542 90 0 90 0 c 0
 297 128.875 l 25
 507 0 l 1
EndSplineSet
Fore
SplineSet
326.126229129 147.613655095 m 0
 326.846887302 147.613655095 327.403552411 147.50293091 327.776463015 147.274079224 c 2
 475.677166036 56.508826358 l 1
 475.677166036 516.523736304 l 1
 302.518283766 410.257779388 302.518283766 410.257779388 300 408.803847577 c 0
 285.794398828 400.602239917 272.878897749 395.261344905 267.873770871 395.261344905 c 0
 267.147974702 395.261344905 266.588518339 395.373653554 266.215588917 395.605833647 c 2
 121.322833964 485.813822993 l 1
 121.322833964 26.7055551893 l 1
 290.893131487 132.27740105 290.893131487 132.27740105 294 134.071152423 c 0
 308.205601172 142.272760083 321.121102251 147.613655095 326.126229129 147.613655095 c 0
58.6771660358 525.4613179 m 2
 58.6771660358 532.987409604 106.558398008 561.613655095 119.126229129 561.613655095 c 0
 119.852025298 561.613655095 120.411481661 561.501346446 120.784411083 561.269166353 c 2
 321.615336854 436.2349366 l 1
 501.481716234 546.617220612 501.481716234 546.617220612 504 548.071152423 c 0
 518.205601172 556.272760083 531.121102251 561.613655095 536.126229129 561.613655095 c 0
 537.26364607 561.613655095 538.322833964 561.333234525 538.322833964 560.2886821 c 2
 538.322833964 17.4136820999 l 2
 538.322833964 9.88759039554 490.441601992 -18.7386550945 477.873770871 -18.7386550945 c 0
 477.153112698 -18.7386550945 476.596447589 -18.6279309097 476.223536985 -18.399079224 c 2
 272.667340951 106.521419652 l 1
 96.1068685133 -3.40240105019 96.1068685133 -3.40240105019 93 -5.19615242271 c 0
 78.7943988284 -13.3977600831 65.8788977486 -18.7386550945 60.8737708714 -18.7386550945 c 0
 59.7363539296 -18.7386550945 58.6771660358 -18.4582345249 58.6771660358 -17.4136820999 c 2
 58.6771660358 525.4613179 l 2
EndSplineSet
EndChar

StartChar: uni16ED
Encoding: 5869 5869 78
Width: 365
GlyphClass: 2
Flags: HMW
HStem: 269.47 43.1818
VStem: 147.835 66.3538
LayerCount: 2
Back
SplineSet
91 271 m 1
 274 271 l 1025
181 355 m 1
 181 183 l 1049
EndSplineSet
Fore
SplineSet
59.6771660358 253.5863179 m 0
 59.6771660358 261.112409604 107.558398008 289.738655095 120.126229129 289.738655095 c 2
 149.677166036 289.738655095 l 1
 149.677166036 337.5863179 l 2
 149.677166036 345.112409604 197.558398008 373.738655095 210.126229129 373.738655095 c 0
 211.26364607 373.738655095 212.322833964 373.458234525 212.322833964 372.4136821 c 2
 212.322833964 289.738655095 l 1
 303.126229129 289.738655095 l 2
 304.26364607 289.738655095 305.322833964 289.458234525 305.322833964 288.4136821 c 0
 305.322833964 280.887590396 257.441601992 252.261344905 244.873770871 252.261344905 c 2
 212.322833964 252.261344905 l 1
 212.322833964 200.4136821 l 2
 212.322833964 192.887590396 164.441601992 164.261344905 151.873770871 164.261344905 c 0
 150.73635393 164.261344905 149.677166036 164.541765475 149.677166036 165.5863179 c 2
 149.677166036 252.261344905 l 1
 61.8737708714 252.261344905 l 2
 60.7363539296 252.261344905 59.6771660358 252.541765475 59.6771660358 253.5863179 c 0
EndSplineSet
EndChar

StartChar: runeTolK
Encoding: 5873 5873 79
Width: 461
GlyphClass: 2
Flags: HMW
VStem: 58.4783 66.3538
LayerCount: 2
Back
SplineSet
94 176 m 25
 295 262 l 1
 295 262 371 -1 371 0 c 1024
90 542.875 m 8
 90 542 94 0 90 0 c 1024
EndSplineSet
Fore
SplineSet
60.4545988114 123.093037826 m 0
 60.4545988114 287.177481808 58.6771660358 521.437595841 58.6771660358 525.4613179 c 0
 58.6771660358 532.987409604 106.558398008 561.613655095 119.126229129 561.613655095 c 0
 121.31324373 561.613655095 121.31505626 561.357989106 121.339369632 557.928471366 c 0
 121.504492405 534.637112699 122.85195714 344.659000179 123.070935015 196.419236488 c 1
 310.739036881 276.715041267 l 2
 316.732429096 279.279378234 321.509993121 280.738655095 324.126229129 280.738655095 c 0
 324.952191276 280.738655095 326.036306952 280.595115205 326.275494451 279.767400569 c 0
 326.27549463 279.767400569 401.269872164 20.5232469027 402.166744668 18.0172220532 c 0
 402.274863534 17.8303473596 402.322833964 17.634357005 402.322833964 17.4136820999 c 0
 402.322833964 17.3237100422 402.270345268 16.8234743649 402.270345268 16.8234743649 c 1
 402.318592874 16.8234743649 402.389493216 16.8050707394 402.389493216 16.6968934905 c 0
 402.389493216 11.1935650402 356.037464415 -18.7518272567 341.563372828 -18.7518272567 c 0
 340.520032949 -18.7518272567 340.208562577 -18.673346428 339.819815656 -18.0000170102 c 0
 339.035757859 -16.6419890697 273.248685063 211.235623572 264.648071803 241.032676876 c 1
 123.090196558 180.465625777 l 1
 123.097257591 172.833161396 123.100956834 165.337402203 123.100956834 158.008784734 c 0
 123.100956834 63.414692559 122.511242312 21.5875606218 121.422465782 17.2542906649 c 0
 121.46327063 17.0156231205 121.665016057 17.0452223527 121.665016057 16.8993272493 c 0
 121.665016057 16.5376475123 117.796162692 9.11259076064 93.025295486 -5.18887608903 c 0
 91.3825059056 -6.13734109551 69.3963233244 -18.7386550945 60.8737708714 -18.7386550945 c 0
 59.7363539402 -18.7386550945 58.6771660131 -18.4582345209 58.6771660131 -17.413682062 c 0
 58.6771660131 -12.2290805191 60.4545988114 -36.9230348745 60.4545988114 123.093037826 c 0
EndSplineSet
EndChar

StartChar: runeTolSH
Encoding: 5874 5874 80
Width: 468
GlyphClass: 2
Flags: HMW
VStem: 57.5428 66.3538 345.287 66.3865
LayerCount: 2
Back
SplineSet
377 542.875 m 0
 377 544 378 194 378 194 c 25
 89 346 l 1
 89 0 l 1049
EndSplineSet
Fore
SplineSet
409.322833964 211.4136821 m 2
 409.322833964 203.887590396 361.441601992 175.261344905 348.873770871 175.261344905 c 0
 348.208179875 175.261344905 347.682477285 175.355794204 347.312231826 175.55052538 c 2
 120.322833964 294.935952629 l 1
 120.322833964 17.4136820999 l 2
 120.322833964 9.88759039554 72.4416019917 -18.7386550945 59.8737708714 -18.7386550945 c 0
 58.7363539296 -18.7386550945 57.6771660358 -18.4582345249 57.6771660358 -17.4136820999 c 2
 57.6771660358 328.5863179 l 2
 57.6771660358 336.112409604 105.558398008 364.738655095 118.126229129 364.738655095 c 0
 118.791820125 364.738655095 119.317522715 364.644205796 119.687768174 364.44947462 c 2
 346.480581866 245.167441121 l 1
 345.677172272 525.456963445 l 2
 345.677172272 532.984145462 393.553919516 561.613655095 406.126229129 561.613655095 c 0
 406.917463535 561.613655095 408.319404069 561.487465555 408.322827728 560.293036555 c 2
 409.322833964 211.4136821 l 2
EndSplineSet
EndChar

StartChar: runeTolOO
Encoding: 5875 5875 81
Width: 602
GlyphClass: 2
Flags: HMW
VStem: 268.503 66.3538
LayerCount: 2
Back
SplineSet
301 542.875 m 5
 509 396 l 5
 302 244 l 5
 91 396 l 5
 301 542.875 l 5
301 542.875 m 12
 301 542 305 0 301 0 c 1028
EndSplineSet
Fore
SplineSet
332.853785028 480.247247583 m 1
 333.190990745 425.787333282 333.61070723 350.403248948 333.867076448 276.270149098 c 1
 474.97888231 379.888479972 l 1
 332.853785028 480.247247583 l 1
270.956759775 306.937432658 m 1
 270.540199044 398.636382208 269.980562519 481.955655023 269.766007588 512.801974737 c 1
 125.373084298 411.812876603 l 1
 270.956759775 306.937432658 l 1
269.677166013 -17.413682062 m 0
 269.677166013 -12.2290771892 271.454598849 -36.923042712 271.454598849 123.093053032 c 0
 271.454598849 124.118702162 271.448824496 225.433899191 271.138461754 225.657478847 c 0
 59.9370855436 377.80254607 59.9370855436 377.80254607 59.8230854638 378 c 0
 59.7251364661 378.16965264 59.6771660358 378.365642995 59.6771660358 378.5863179 c 0
 59.6771660358 380.971144454 65.2796589395 386.238893221 73.9500713439 392.303020944 c 2
 283.950071344 539.178020944 l 2
 284.370766635 539.472257234 317.570638189 561.613655095 330.126229129 561.613655095 c 0
 330.896847103 561.613655095 331.479946147 561.487046809 331.851363415 561.224778005 c 0
 540.0600472 414.202420164 540.0600472 414.202420164 540.176914536 414 c 0
 540.274863534 413.83034736 540.322833964 413.634357005 540.322833964 413.4136821 c 0
 540.322833964 411.278591983 535.832277743 406.832758328 528.669957603 401.573470109 c 2
 333.925160417 258.572459615 l 1
 334.033622796 223.584649793 334.100956834 189.275550916 334.100956834 158.008784734 c 0
 334.100956834 63.4146925591 333.511242312 21.5875606218 332.422465782 17.2542906649 c 0
 332.46327063 17.0156231205 332.665016057 17.0452223527 332.665016057 16.8993272493 c 0
 332.665016057 16.5376475123 328.796162692 9.11259076064 304.025295486 -5.18887608903 c 0
 302.382505906 -6.13734109551 280.396323324 -18.7386550945 271.873770871 -18.7386550945 c 0
 270.73635394 -18.7386550945 269.677166013 -18.4582345209 269.677166013 -17.413682062 c 0
EndSplineSet
EndChar

StartChar: uni25C7
Encoding: 9671 9671 87
Width: 681
GlyphClass: 2
InSpiro: 1
Flags: HMW
HStem: 0.631607 21G
LayerCount: 2
Back
SplineSet
68.0869140625 271.6796875 m 1
 339.04296875 542.634765625 l 1
 611 270.677734375 l 1
 340.044921875 -0.2783203125 l 1
 68.0869140625 271.6796875 l 1
  Spiro
    68.0867 271.679 v
    339.043 542.635 v
    611 270.677 v
    340.044 -0.278372 v
    0 0 z
  EndSpiro
EndSplineSet
Fore
SplineSet
368.169197879 561.37342072 m 0
 369.059998751 561.37342072 369.700230177 561.204242237 370.052569496 560.851902918 c 0
 642.108854366 288.795618048 642.108854366 288.795618048 642.176914536 288.677734375 c 0
 642.274863534 288.508081735 642.322833964 288.31209138 642.322833964 288.091416475 c 0
 642.322833964 287.005014895 641.160185306 285.32033935 639.074498378 283.234644905 c 0
 368.119420253 12.2785902177 368.119420253 12.2785902177 368.119420253 12.2785902177 c 2
 356.065106428 0.224232946687 320.828264772 -19.016975407 310.918692746 -19.016975407 c 0
 310.027891874 -19.016975407 309.387660448 -18.847796924 309.035321129 -18.4954576056 c 0
 36.9780596966 253.561803827 36.9780596966 253.561803827 36.9099995263 253.6796875 c 0
 36.8120505286 253.84934014 36.7640800983 254.045330495 36.7640800983 254.2660054 c 0
 36.7640800983 255.352422624 37.9267622412 257.037131044 40.0125057876 259.122867073 c 2
 310.968560475 530.077945198 l 2
 323.02068209 542.130023375 358.257747315 561.37342072 368.169197879 561.37342072 c 0
322.188312689 510.262683647 m 1
 100.459084751 288.534254851 l 1
 356.899416005 32.0939235963 l 1
 578.627844801 253.823151535 l 1
 322.188312689 510.262683647 l 1
EndSplineSet
EndChar

StartChar: uniA75B
Encoding: 42843 42843 89
Width: 231
GlyphClass: 2
Flags: HMW
HStem: 279.856 42.9282
VStem: 248.239 66.3538
LayerCount: 2
Back
SplineSet
2 269 m 4
 33.728515625 287.130859375 56.0009765625 299.578125 98 300 c 4
 127 300.291015625 170 272.012695312 170 233 c 7
 170 173.032226562 124 159 66 125 c 5
 142 110 165 34 231 0 c 1029
EndSplineSet
Fore
SplineSet
138.677166036 215.5863179 m 0
 138.677166036 254.419186444 95.3751784354 281.263584213 69.3208934361 281.263584213 c 0
 65.5394896761 281.263584213 38.1110087128 280.958938418 20.4088885027 272.30380805 c 0
 18.4080621628 271.325540328 13.8853357672 268.878758372 4.15354121082 263.31764733 c 0
 -9.71648704509 255.391794926 -22.2207006509 250.261344905 -27.1262291286 250.261344905 c 0
 -28.2636460704 250.261344905 -29.3228339642 250.541765475 -29.3228339642 251.5863179 c 0
 -29.3228339642 260.305349795 36.2430453985 297.985411604 73.770272208 310.224044575 c 0
 81.1659933113 312.635987151 99.9230177339 318.740885917 127.572585454 318.740885917 c 0
 159.543653958 318.740885917 201.322833964 289.158319989 201.322833964 250.4136821 c 0
 201.322833964 207.485387118 179.010505097 181.596526023 106.954204767 141.014816753 c 1
 175.413747468 121.167590052 199.02947321 50.7280567141 261.67539322 18.4559161027 c 0
 261.981721831 18.2981104547 262.322833964 18.0016121351 262.322833964 17.4136820999 c 0
 262.322833964 9.88759039554 214.441601992 -18.7386550945 201.873770871 -18.7386550945 c 0
 201.215561013 -18.7386550945 200.694154151 -18.6462889907 200.32460678 -18.4559161027 c 0
 134.21451256 15.6007991018 110.831817451 91.5596722781 35.9388241921 106.341184106 c 0
 35.4318256593 106.441249605 34.6771660358 106.710405058 34.6771660358 107.5863179 c 0
 34.6771660358 115.013473997 70.8187406292 134.883090637 93.4087210678 147.302423671 c 0
 100.10821633 150.985616892 105.378951731 153.90539976 108.6949298 155.819880591 c 0
 111.592781606 157.492956111 138.677166036 170.59782014 138.677166036 215.5863179 c 0
EndSplineSet
EndChar

StartChar: gargF
Encoding: 58819 58819 93
Width: 503
GlyphClass: 2
Flags: HMW
HStem: -21.4641 42.9282 310.907 42.9282 321.536 42.9282
VStem: 51.8231 66.3538 403.823 66.3538
AnchorPoint: "dot-over" 241 400 basechar 0
LayerCount: 2
Back
SplineSet
496 346 m 4
 492.083984375 343.0625 467.260742188 341.263671875 432 340.22265625 c 4
 323.194335938 337.006835938 115 341 115 341 c 5
 95 341 61 325 61 300 c 5
 61 38 l 0
 61 -0.052734375 126 -13 252 -13 c 3
 365.039815994 -13 382 8 413 38 c 1025
413 131 m 17
 413 216 413 267 397 290 c 1
 413 300 l 17
 413 38 l 3
 413 -21.4296875 427.969726562 -34 439 -34 c 3
 446.81640625 -34 452.612304688 -32.169921875 458 -29 c 1024
EndSplineSet
Fore
SplineSet
442.126229129 318.738655095 m 0x98
 443.26364607 318.738655095 444.322833964 318.458234525 444.322833964 317.4136821 c 2
 444.322833964 55.4136820999 l 2
 444.322833964 23.1532952837 448.773983758 4.87694474451 454.456782149 -4.96595079744 c 0
 459.238142139 -13.2475092287 465.027508805 -15.2613449055 468.126229129 -15.2613449055 c 0
 469.754280885 -15.2613449055 470.977257764 -15.1910864535 471.866926868 -15.1042915942 c 0
 478.734684926 -12.0337007246 484.242970926 -10.2613449028 487.12622911 -10.2613449028 c 0
 488.263646069 -10.2613449028 489.322833964 -10.5417654744 489.322833964 -11.5863179001 c 0
 489.322833964 -17.8462260865 439.586231817 -52.7386550945 409.873770871 -52.7386550945 c 0
 390.215266021 -52.7386550945 383.697399467 -24.4589701107 382.111712177 3.9818768316 c 1
 336.873297979 -22.603426322 301.391335339 -31.7386550945 222.873770871 -31.7386550945 c 0
 97.5666700908 -31.7386550945 29.6771660358 -19.1804703917 29.6771660358 20.5863179001 c 2
 29.6771660358 282.5863179 l 2
 29.6771660358 303.148243686 51.5087451838 320.16511789 80.41927961 336.856622723 c 0
 89.5690195328 342.13922753 120.052122258 359.738655095 144.126229129 359.738655095 c 2
 144.126229129 359.738655095 250.084632118 357.710597101 350.214263407 357.710597101 c 0
 413.198585083 357.710597101 492.956083035 358.591751789 516.187651066 362.498595765 c 0
 520.090264398 363.944572888 523.196302453 364.738655096 525.126229117 364.738655096 c 0
 526.263646069 364.738655096 527.322833964 364.458234525 527.322833964 363.4136821 c 0
 527.322833964 357.929911175 488.712508438 329.836371858 461.304994984 325.320001324 c 0
 437.876429436 321.459305122 371.13673183 320.229347386 291.745705052 320.229347386 c 0
 206.779018097 320.229347386 117.930279521 321.689455545 92.8343552874 322.134268834 c 0
 92.5128801328 320.62304978 92.3228339642 319.039732871 92.3228339642 317.4136821 c 2
 92.3228339642 55.4136820999 l 2
 92.3228339642 19.0790135529 154.422627622 5.73865509453 281.126229129 5.73865509453 c 0
 324.309973199 5.73865509453 353.219511957 8.7691530087 373.401450162 14.4478375918 c 0
 375.866013379 16.7237328938 378.764949623 19.4570138369 381.677166036 22.292099616 c 1
 381.677166036 113.5863179 l 2
 381.677166036 200.140010604 381.467605235 249.371732681 365.823085464 272 c 0
 365.725136466 272.16965264 365.677166036 272.365642995 365.677166036 272.5863179 c 0
 365.677166036 277.649940495 381.840912789 287.752282216 403.631873231 301.371632492 c 0
 403.989988538 301.595454559 431.836618063 318.738655095 442.126229129 318.738655095 c 0x98
EndSplineSet
EndChar

StartChar: gargV
Encoding: 58820 58820 94
Width: 481
GlyphClass: 2
Flags: HMW
HStem: -21.4641 42.9282 257.683 42.9282 302.801 20G 333.435 42.9282
VStem: 28.8231 66.3538 380.823 66.3538
AnchorPoint: "dot-over" 241 400 basechar 0
LayerCount: 2
Back
SplineSet
365 372 m 0
 504 304 299 242 242 314 c 0
 194.655273438 373.803710938 61 360 61 300 c 2
 61 38 l 3
 61 -0.052734375 126 -13 252 -13 c 3
 365.039815994 -13 382 8 413 38 c 1025
413 131 m 17
 413 216 413 267 397 290 c 1
 413 300 l 17
 413 38 l 3
 413 -21.4296875 427.969726562 -34 439 -34 c 3
 446.81640625 -34 452.612304688 -32.169921875 458 -29 c 1024
EndSplineSet
Fore
SplineSet
442.126229129 318.738655095 m 0
 443.26364607 318.738655095 444.322833964 318.458234525 444.322833964 317.4136821 c 2
 444.322833964 55.4136820999 l 2
 444.322833964 23.1532952837 448.773983758 4.87694474451 454.456782149 -4.96595079744 c 0
 459.238142139 -13.2475092287 465.027508805 -15.2613449055 468.126229129 -15.2613449055 c 0
 469.754280885 -15.2613449055 470.977257764 -15.1910864535 471.866926868 -15.1042915942 c 0
 478.734684926 -12.0337007246 484.242970926 -10.2613449028 487.12622911 -10.2613449028 c 0
 488.263646069 -10.2613449028 489.322833964 -10.5417654744 489.322833964 -11.5863179001 c 0
 489.322833964 -17.8462260865 439.586231817 -52.7386550945 409.873770871 -52.7386550945 c 0
 390.215266021 -52.7386550945 383.697399467 -24.4589701107 382.111712177 3.9818768316 c 1
 336.873297979 -22.603426322 301.391335339 -31.7386550945 222.873770871 -31.7386550945 c 0
 97.5666700908 -31.7386550945 29.6771660358 -19.1804703917 29.6771660358 20.5863179001 c 2
 29.6771660358 282.5863179 l 2
 29.6771660358 294.270778334 32.138479885 313.849069734 83.4666103424 343.483379671 c 0
 116.736791808 362.691927896 144.889590519 371.270788058 176.647807668 371.270788058 c 0
 191.923764424 371.270788058 244.292601899 368.502902019 273.092623706 332.124020901 c 0
 290.680419071 309.907858335 322.70709884 300.587169335 354.160199752 300.587169335 c 0
 364.051532824 300.587169335 372.121557806 301.459641191 380.567944846 302.982053214 c 0
 380.95328042 304.43566773 381.130312747 305.937956581 381.130312747 307.561862094 c 0
 381.130312747 333.268261956 334.478842163 352.864196079 333.823085464 354 c 0
 333.725136466 354.16965264 333.677166036 354.365642995 333.677166036 354.5863179 c 0
 333.677166036 362.112409604 381.558398008 390.738655095 394.126229129 390.738655095 c 0
 395.431377338 390.738655095 443.788631167 369.612966902 443.788631167 342.439120539 c 0
 443.788631167 330.4331464 434.729296589 320.946980622 425.94695465 313.480319394 c 1
 433.241846294 316.805904494 439.115331573 318.738655095 442.126229129 318.738655095 c 0
92.3228339642 55.4136820999 m 2
 92.3228339642 19.0790135529 154.422627622 5.73865509453 281.126229129 5.73865509453 c 0
 324.309973199 5.73865509453 353.219511957 8.7691530087 373.401450162 14.4478375918 c 0
 375.866013379 16.7237328938 378.764949623 19.4570138369 381.677166036 22.292099616 c 1
 381.677166036 113.5863179 l 2
 381.677166036 200.140010604 381.467605235 249.371732681 365.823085464 272 c 0
 365.725136466 272.16965264 365.677166036 272.365642995 365.677166036 272.5863179 c 0
 365.677166036 274.067249328 367.837583191 276.659884905 371.551486493 279.864579286 c 1
 357.226432311 273.212244086 329.863847865 263.100518722 295.88593712 263.100518722 c 0
 277.474232347 263.100518722 234.213509761 266.436652614 210.907376294 295.875979099 c 0
 204.322357182 304.193876531 176.785975311 333.787397768 118.319038287 333.787397768 c 0
 114.076344882 333.787397768 106.117170157 333.560414439 95.4817439664 331.808867183 c 0
 93.6679307967 327.715485125 92.3228339642 322.752768688 92.3228339642 317.4136821 c 2
 92.3228339642 55.4136820999 l 2
EndSplineSet
EndChar

StartChar: gargU
Encoding: 58821 58821 95
Width: 481
GlyphClass: 2
Flags: HMW
HStem: -21.4641 42.9282 302.801 20G
VStem: 28.8231 66.3538 380.823 66.3538
AnchorPoint: "dot-over" 239 300 basechar 0
LayerCount: 2
Back
SplineSet
61 131 m 17
 61 216 61 267 45 290 c 1
 61 300 l 1
 61 38 l 7
 61 -0.052734375 126 -13 252 -13 c 7
 365.039815994 -13 382 8 413 38 c 1029
413 131 m 17
 413 216 413 267 397 290 c 1
 413 300 l 17
 413 38 l 3
 413 -21.4296875 427.969726562 -34 439 -34 c 3
 446.81640625 -34 452.612304688 -32.169921875 458 -29 c 1024
EndSplineSet
Fore
SplineSet
442.126229129 318.738655095 m 0
 443.26364607 318.738655095 444.322833964 318.458234525 444.322833964 317.4136821 c 2
 444.322833964 55.4136820999 l 2
 444.322833964 23.1532952837 448.773983758 4.87694474451 454.456782149 -4.96595079744 c 0
 459.238142139 -13.2475092287 465.027508805 -15.2613449055 468.126229129 -15.2613449055 c 0
 469.754280885 -15.2613449055 470.977257764 -15.1910864535 471.866926868 -15.1042915942 c 0
 478.734684926 -12.0337007246 484.242970926 -10.2613449028 487.12622911 -10.2613449028 c 0
 488.263646069 -10.2613449028 489.322833964 -10.5417654744 489.322833964 -11.5863179001 c 0
 489.322833964 -17.8462260865 439.586231817 -52.7386550945 409.873770871 -52.7386550945 c 0
 390.215266021 -52.7386550945 383.697399467 -24.4589701107 382.111712177 3.9818768316 c 1
 336.873297979 -22.603426322 301.391335339 -31.7386550945 222.873770871 -31.7386550945 c 0
 97.5666700908 -31.7386550945 29.6771660358 -19.1804703917 29.6771660358 20.5863179001 c 2
 29.6771660358 113.5863179 l 2
 29.6771660358 200.140010604 29.4676052351 249.371732681 13.8230854638 272 c 0
 13.7251364661 272.16965264 13.6771660358 272.365642995 13.6771660358 272.5863179 c 0
 13.6771660358 277.649940495 29.8409127886 287.752282216 51.6318732307 301.371632492 c 0
 51.9899885379 301.595454559 79.8366180626 318.738655095 90.1262291286 318.738655095 c 0
 91.2636460704 318.738655095 92.3228339642 318.458234525 92.3228339642 317.4136821 c 2
 92.3228339642 55.4136820999 l 2
 92.3228339642 19.0790135529 154.422627622 5.73865509453 281.126229129 5.73865509453 c 0
 324.309973199 5.73865509453 353.219511957 8.7691530087 373.401450162 14.4478375918 c 0
 375.866013379 16.7237328938 378.764949623 19.4570138369 381.677166036 22.292099616 c 1
 381.677166036 113.5863179 l 2
 381.677166036 200.140010604 381.467605235 249.371732681 365.823085464 272 c 0
 365.725136466 272.16965264 365.677166036 272.365642995 365.677166036 272.5863179 c 0
 365.677166036 277.649940495 381.840912789 287.752282216 403.631873231 301.371632492 c 0
 403.989988538 301.595454559 431.836618063 318.738655095 442.126229129 318.738655095 c 0
EndSplineSet
EndChar

StartChar: gargS
Encoding: 58825 58825 99
Width: 481
GlyphClass: 2
Flags: HMW
HStem: -21.4641 42.9282 322.895 42.9282
VStem: 28.8231 66.3538 380.823 66.3538
AnchorPoint: "dot-over" 241 400 basechar 0
LayerCount: 2
Back
SplineSet
97 -162.589752197 m 0
 87 -150 63 -129.071337695 63 -101 c 3
 63 -27.9931510062 94.9977121748 11.1660311233 246.999997353 11.1660311233 c 3
 346.000139224 11.1660311233 381.366245749 -16.5289642018 413 -90.58984375 c 1025
458 -157.58984375 m 0
 452.612304688 -160.759765625 446.81640625 -162.58984375 439 -162.58984375 c 3
 427.969726562 -162.58984375 413 -150.01953125 413 -90.58984375 c 3
 413 -90.58984375 413 147.669960937 413 300 c 0
 413 377 362 335 49 341 c 1024
EndSplineSet
Fore
SplineSet
468.126229129 -143.851188655 m 0
 475.4516301 -143.851188655 480.436094068 -138.85118865 487.126229091 -138.85118865 c 0
 488.263646067 -138.85118865 489.322833964 -139.131609224 489.322833964 -140.17616165 c 0
 489.322833964 -146.436069837 439.586231817 -181.328498845 409.873770871 -181.328498845 c 0
 386.85876147 -181.328498845 381.702757334 -142.694868147 381.677263936 -108.267283207 c 1
 350.061353522 -34.3540804147 314.943447038 -7.57262397123 217.873768224 -7.57262397123 c 0
 171.279012097 -7.57262397123 136.859218013 -11.2473077808 111.538168745 -18.3630115034 c 1
 97.0880517905 -36.2046798143 94.3228339642 -62.0957102931 94.3228339642 -83.5863179001 c 0
 94.3228339642 -115.751569006 128.322833964 -141.222039746 128.322833964 -145.176070097 c 0
 128.322833964 -152.702161801 80.4416019917 -181.328407292 67.8737708714 -181.328407292 c 0
 66.9088265582 -181.328407292 66.2378985046 -181.129894562 65.9084259209 -180.715096744 c 0
 64.1501748934 -178.50150227 61.9276042583 -175.99694912 59.4655807041 -173.223960219 c 0
 47.9221659256 -160.222556964 31.6771660358 -141.874678641 31.6771660358 -118.4136821 c 0
 31.6771660358 -66.7846266073 46.1899933217 -40.1139373995 101.99645601 -7.89406114415 c 0
 143.085881772 15.8289298809 183.296268892 29.9046862178 276.126226482 29.9046862178 c 0
 323.608582038 29.9046862178 356.672986774 23.5781686588 381.677166036 9.08991850901 c 1
 381.677166036 282.5863179 l 2
 381.677166036 320.19448741 369.44938221 328.389628348 320.501798116 328.389628348 c 0
 276.332528569 328.389628348 202.621288931 321.650034214 82.9115723386 321.650034214 c 0
 63.1351027363 321.650034214 42.1038496744 321.833953949 19.7447026202 322.262563796 c 0
 18.9907186846 322.277017163 17.6771660358 322.42774621 17.6771660358 323.5863179 c 0
 17.6771660358 331.112409604 65.5583980083 359.738655095 78.1262291286 359.738655095 c 0
 78.7574693963 359.738655095 106.110913992 359.126203271 141.247284709 359.126203271 c 0
 215.36358945 359.126203271 271.663263249 361.721467605 314.412368676 363.690650856 c 0
 340.272302968 364.881855887 361.352393989 365.863084585 378.413373316 365.863084585 c 0
 431.417192746 365.863084585 444.322833964 356.256354334 444.322833964 317.4136821 c 2
 444.322833964 -73.1761616501 l 2
 444.322833964 -105.436548466 448.773983758 -123.712899005 454.456782149 -133.555794547 c 0
 459.238142139 -141.837352979 465.027508805 -143.851188655 468.126229129 -143.851188655 c 0
EndSplineSet
EndChar

